<?xml version="1.0" encoding="UTF-8"?>
<svg width="157px" height="157px" viewBox="0 0 157 157" version="1.1" xmlns="http://www.w3.org/2000/svg" xmlns:xlink="http://www.w3.org/1999/xlink">
    <title>D0EFF21B-4B4B-4390-AB04-C321544895C0</title>
    <g id="Desktop" stroke="none" stroke-width="1" fill="none" fill-rule="evenodd">
        <g id="0.0-Exportable-Items-Copy" transform="translate(-333.000000, -8527.000000)" fill-rule="nonzero">
            <g id="icon-employers-conscience-big" transform="translate(333.337247, 8527.510530)">
                <circle id="Oval" fill="#FFFEF7" cx="78.0806125" cy="78.4894703" r="75"></circle>
                <path d="M134.380613,132.28947 C136.005616,130.797541 137.513401,129.182774 138.890613,127.45947 C137.550613,128.82947 136.240613,130.36947 134.380613,132.28947 Z" id="Path" fill="#FFFEF8"></path>
                <polygon id="Path" fill="#FFFEF8" points="138.920613 127.42947 138.920613 127.42947 138.870613 127.48947"></polygon>
                <path d="M127.490613,130.27947 L126.140613,131.57947 L127.490613,130.27947 Z" id="Path" fill="#FFFEF8"></path>
                <path d="M129.380613,19.0994703 L128.940613,19.0394703 C127.830613,18.0394703 127.190613,17.5194703 126.780613,17.1894703 C126.546402,16.9984717 126.325862,16.7912977 126.120613,16.5694703 C125.93218,16.3641252 125.728247,16.1735642 125.510613,15.9994703 C124.84979,15.4528102 124.155072,14.9484712 123.430613,14.4894703 C122.738786,14.1218612 122.070798,13.7110481 121.430613,13.2594703 L118.710613,11.4894703 C117.780613,10.8594703 116.800613,10.3394703 115.980613,9.86947027 C115.338791,9.48860425 114.670399,9.15440821 113.980613,8.86947027 C113.245103,8.50299771 112.530655,8.09569563 111.840613,7.64947027 C111.040613,7.42947027 109.310613,6.56947027 107.750613,5.92947027 C107.170613,5.73947027 108.140613,6.15947027 108.540613,6.38947027 C107.360613,5.87947027 106.140613,5.48947027 104.930613,5.03947027 C103.540613,4.45947027 103.230613,4.22947027 104.770613,4.77947027 C100.537495,3.2259122 96.1779069,2.04149608 91.7406125,1.23947027 C88.4745578,0.649975573 85.174748,0.265888405 81.8606125,0.0894702734 C78.236746,-0.0775138109 74.6058836,-0.0107086158 70.9906125,0.289470273 C64.0048238,0.903846566 57.1333066,2.45439451 50.5606125,4.89947027 C46.1778693,6.53425411 41.9536463,8.56603174 37.9406125,10.9694703 C39.6955744,9.98705714 41.5051845,9.10562341 43.3606125,8.32947027 C42.7306125,8.67947027 42.1806125,8.95947027 41.6906125,9.20947027 L40.4206125,9.90947027 C39.7822159,10.2345933 39.1643865,10.5986116 38.5706125,10.9994703 C37.3918352,11.5092657 36.2635468,12.1286526 35.2006125,12.8494703 C33.7806125,13.7894703 32.2506125,14.8494703 31.2706125,15.3394703 L30.7306125,15.9894703 L29.5406125,16.7794703 C27.5706605,18.3668455 25.6847698,20.0558025 23.8906125,21.8394703 C22.273695,23.2913619 20.7506289,24.8444885 19.3306125,26.4894703 C16.4867342,29.8293807 13.9088493,33.3869286 11.6206125,37.1294703 C11.9106125,36.6794703 12.7606125,35.5294703 11.9106125,36.9794703 C11.4146651,37.6245678 10.9794765,38.3141744 10.6106125,39.0394703 C10.1951372,39.8843436 9.72756982,40.7025866 9.21061253,41.4894703 C8.79061253,42.1994703 8.07061253,43.7794703 7.50061253,44.9494703 C6.93061253,46.1194703 6.68061253,46.9494703 7.12061253,46.1994703 C6.89061253,46.5794703 6.30061253,47.8594703 5.89061253,48.7094703 C5.48061253,49.5594703 5.29061253,49.9994703 5.77061253,48.7094703 C5.16061253,50.1894703 4.61061253,51.6394703 4.25061253,52.7094703 L5.02061253,50.8094703 C4.79061253,51.4394703 4.56061253,52.0294703 4.35061253,52.5994703 L3.81061253,54.2294703 C3.48061253,55.2294703 3.13061253,56.2294703 2.91061253,57.0894703 L2.22061253,59.6394703 C2.08061253,60.4894703 1.89061253,61.2894703 1.75061253,62.1594703 L2.26061253,60.2294703 C1.53061253,63.3694703 1.14061253,66.0294703 0.710612527,67.2294703 L1.20061253,63.9494703 C0.36742379,68.2317082 -0.0312648403,72.5871302 0.0106125275,76.9494703 L0.0106125275,75.3694703 C-0.0979976002,82.1823036 0.627392117,88.9828322 2.17061253,95.6194703 C3.12007566,99.6175079 4.38744099,103.533299 5.96061253,107.32947 C6.67061253,108.96947 7.34061253,110.42947 7.96061253,111.60947 C8.58061253,112.78947 9.06061253,113.67947 9.38061253,114.24947 L8.47061253,112.02947 C9.17061253,113.33947 9.86061253,114.64947 10.6506125,115.90947 C10.3906125,115.44947 9.11061253,114.29947 8.98061253,113.85947 C11.0324653,117.854647 13.4352464,121.659608 16.1606125,125.22947 C24.6154294,136.365964 35.900157,145.033242 48.8406125,150.32947 C52.8696323,151.96912 57.0270691,153.273545 61.2706125,154.22947 C64.7306125,155.07947 61.8406125,154.62947 61.7906125,154.64947 C62.7767463,154.882556 63.7799461,155.03638 64.7906125,155.10947 C65.1806125,155.10947 65.4906125,155.18947 67.3106125,155.45947 C68.3106125,155.60947 67.0806125,155.58947 66.5206125,155.50947 C67.5899016,155.688333 68.6681823,155.808513 69.7506125,155.86947 C67.7506125,155.56947 68.6206125,155.46947 67.7506125,155.22947 C69.3206125,155.42947 70.8906125,155.62947 72.4606125,155.71947 L72.2406125,155.83947 C73.3006125,155.90947 74.9406125,155.73947 79.5806125,155.74947 C87.6772355,155.618526 95.7025263,154.211231 103.360613,151.57947 C103.270613,151.68947 101.700613,152.23947 100.130613,152.79947 C101.130613,152.47947 102.670613,151.95947 103.620613,151.71947 C102.690613,151.92947 103.480613,151.71947 104.290613,151.34947 C105.100613,150.97947 105.990613,150.69947 105.290613,150.92947 C107.950613,149.80947 110.950613,148.39947 113.830613,146.92947 C116.469679,145.566853 119.003381,144.009194 121.410613,142.26947 C121.510613,142.01947 123.060613,139.45947 124.270613,136.84947 C124.920613,135.59947 125.420613,134.23947 125.810613,133.27947 C126.07435,132.736674 126.253103,132.156569 126.340613,131.55947 C127.410613,130.55947 128.470613,129.55947 128.820613,129.25947 C128.470613,129.43947 126.400613,131.45947 125.250613,132.46947 L125.170613,132.78947 C122.510613,135.12947 124.510613,133.28947 121.790613,135.41947 C121.670613,135.41947 122.240613,134.91947 123.100613,134.21947 L126.100613,131.57947 L123.360613,133.86947 C122.701157,134.355842 122.073229,134.883569 121.480613,135.44947 C120.480613,136.14947 120.550613,136.06947 120.480613,136.02947 C120.410613,135.98947 120.390613,136.02947 119.200613,136.77947 C117.364566,138.215365 115.414809,139.499596 113.370613,140.61947 L113.370613,140.61947 C112.120613,141.26947 111.040613,141.88947 110.000613,142.38947 C108.960613,142.88947 108.000613,143.38947 107.080613,143.84947 C105.069359,144.839606 102.982833,145.668866 100.840613,146.32947 L101.360613,146.10947 C98.6063579,147.020874 95.8016697,147.77213 92.9606125,148.35947 C93.8806125,148.18947 94.7106125,148.12947 92.7806125,148.56947 C89.812452,149.178016 86.8049348,149.575677 83.7806125,149.75947 C82.9006125,149.85947 82.0206125,149.99947 81.1406125,150.07947 L78.2306125,150.14947 L74.5206125,150.06947 C71.4082733,149.909131 68.3089409,149.555112 65.2406125,149.00947 C61.5686223,148.354238 57.9515908,147.421566 54.4206125,146.21947 C38.0381475,140.535624 24.2573093,129.130302 15.6106125,114.09947 L15.8906125,114.53947 C14.4670805,112.079181 13.1947247,109.534469 12.0806125,106.91947 C11.4306125,105.50947 10.9006125,103.91947 10.2906125,102.40947 C9.68061253,100.89947 9.19061253,99.1994703 8.76061253,97.4794703 C4.70829388,82.7939834 5.40839816,67.2026611 10.7606125,52.9394703 C11.3506125,51.2394703 12.1006125,49.6594703 12.7606125,48.0894703 C13.4206125,46.5194703 14.2006125,45.0894703 15.0006125,43.6794703 C16.3909045,41.1127941 17.9336663,38.6316858 19.6206125,36.2494703 C21.8965493,33.3323645 24.33368,30.5446875 26.9206125,27.8994703 C25.5806125,29.2194703 25.9206125,28.6794703 26.9206125,27.6194703 C30.6306125,24.0294703 30.8406125,23.9994703 30.9206125,23.8294703 C31.1189096,23.5918178 31.3399605,23.3741162 31.5806125,23.1794703 C32.1006125,22.6694703 33.1706125,21.8294703 35.2306125,20.1794703 C39.116721,17.3461194 43.2736364,14.9042247 47.6406125,12.8894703 C50.6534646,11.5112328 53.753448,10.3320365 56.9206125,9.35947027 C60.3303477,8.33213393 63.8092339,7.55013645 67.3306125,7.01947027 C70.8324141,6.5234626 74.3638968,6.26620227 77.9006125,6.24947027 C81.1450811,6.27055792 84.3849354,6.49768173 87.6006125,6.92947027 C92.0846719,7.52226038 96.4971798,8.56759254 100.770613,10.0494703 C106.330613,11.5594703 112.770613,14.9194703 117.500613,17.8794703 L116.990613,17.6294703 C119.516259,19.2180693 121.931754,20.9753999 124.220613,22.8894703 C127.885975,25.9472439 131.236013,29.3642821 134.220613,33.0894703 C137.246983,36.8627763 139.893167,40.9258422 142.120613,45.2194703 C143.565171,48.034385 144.840763,50.9328518 145.940613,53.8994703 L145.630613,53.0094703 C146.083835,54.0814493 146.481038,55.1762593 146.820613,56.2894703 C147.070613,57.1094703 147.270613,57.6994703 147.390613,58.2894703 C147.510613,58.8794703 147.630613,59.3794703 147.780613,60.0594703 C147.930613,60.7394703 148.130613,61.5694703 148.350613,62.7494703 C148.350613,62.4194703 148.750613,63.5194703 149.110613,64.9594703 C149.470613,66.3994703 149.800613,68.1994703 149.890613,69.1994703 L149.830613,69.1294703 C149.920613,69.8794703 150.090613,70.8594703 150.210613,71.9994703 C150.330613,73.1394703 150.480613,74.4294703 150.530613,75.7894703 C150.580613,77.1494703 150.690613,78.5794703 150.650613,79.9694703 C150.650613,80.6694703 150.650613,81.3594703 150.650613,82.0394703 C150.650613,82.7194703 150.570613,83.3694703 150.530613,84.0394703 L150.410613,83.8394703 C150.410613,84.3594703 150.360613,84.9394703 150.330613,85.5594703 C150.300613,86.1794703 150.200613,86.8294703 150.120613,87.5594703 C150.010613,88.9194703 149.740613,90.3694703 149.510613,91.7794703 C149.280613,93.1894703 148.920613,94.5494703 148.670613,95.7794703 C148.420613,97.0094703 148.090613,97.9794703 147.890613,98.6994703 C146.69419,102.674155 145.165465,106.541128 143.320613,110.25947 C141.207426,114.485896 138.742047,118.526843 135.950613,122.33947 C135.290613,123.06947 134.660613,123.82947 133.950613,124.54947 L131.920613,126.48947 C131.750613,126.71947 131.560613,126.93947 131.370613,127.14947 C130.943485,128.458178 130.763756,129.834972 130.840613,131.20947 C130.844444,131.581954 131.028456,131.929509 131.334367,132.142058 C131.640278,132.354606 132.030191,132.405817 132.380613,132.27947 C133.098192,132.088435 133.775617,131.770045 134.380613,131.33947 C134.780613,131.05947 135.240613,130.72947 135.740613,130.33947 C136.240613,129.94947 136.740613,129.41947 137.320613,128.84947 L137.320613,129.08947 C137.860613,128.42947 138.450613,127.79947 138.950613,127.08947 C139.950613,125.88947 140.600613,124.98947 141.020613,124.39947 C141.440613,123.80947 141.590613,123.55947 141.580613,123.67947 C140.790613,124.84947 139.870613,125.91947 139.020613,127.04947 C140.950613,124.61947 139.680613,126.36947 139.020613,127.35947 L141.270613,124.54947 C141.590613,124.02947 140.970613,124.88947 140.640613,125.24947 C141.150613,124.57947 141.640613,123.71947 142.240613,122.84947 C142.840613,121.97947 143.420613,121.07947 143.970613,120.21947 C144.820613,118.87947 144.890613,118.85947 144.970613,118.78947 C145.050613,118.71947 145.260613,118.60947 146.160613,116.97947 C155.977193,99.8775323 158.919557,79.6814006 154.390613,60.4894703 C154.340613,60.0294703 154.460613,60.5594703 154.600613,61.1194703 C153.347816,55.6463657 151.49668,50.3277034 149.080613,45.2594703 C148.7422,44.5381435 148.448316,43.7967536 148.200613,43.0394703 C145.900967,38.6647839 143.224158,34.4989998 140.200613,30.5894703 C139.050613,29.0394703 137.760613,27.5894703 136.570613,26.2094703 C135.380613,24.8294703 134.160613,23.6094703 133.100613,22.5794703 L130.470613,20.0794703 L129.380613,19.0994703 Z" id="Path" fill="#FFFEF8"></path>
                <path d="M50.3706125,88.3094703 C50.5217483,88.5930927 50.6956525,88.8639819 50.8906125,89.1194703 C50.7375363,88.8369897 50.5637265,88.5662476 50.3706125,88.3094703 Z" id="Path" fill="#373735"></path>
                <path d="M70.2806125,62.2694703 L70.5606125,62.2694703 L70.2806125,62.2694703 Z" id="Path" fill="#373735"></path>
                <path d="M48.8506125,88.9994703 L49.2806125,89.7894703 L49.3706125,89.8894703 C49.6609524,89.9487356 49.9602727,89.9487356 50.2506125,89.8894703 C50.6306125,89.7894703 50.9106125,89.4694703 50.4706125,88.6294703 L50.4706125,88.6294703 L50.2506125,88.3294703 C50.0006125,87.9594703 49.8406125,87.8194703 49.8906125,87.8194703 L50.2506125,88.3194703 C49.9906125,87.9394703 50.1906125,88.1894703 50.3106125,88.3194703 C50.2106125,88.1694703 50.1006125,88.0194703 50.0206125,87.8894703 C49.9406125,87.7594703 50.0206125,87.9494703 50.0806125,88.0094703 C49.9306125,87.8294703 49.7106125,87.5694703 49.5406125,87.3294703 C49.3706125,87.0894703 49.5406125,87.2694703 49.2406125,86.8394703 C47.5394823,84.5904409 45.6921555,82.4558264 43.7106125,80.4494703 C43.7106125,80.4494703 43.7106125,80.4494703 43.7906125,80.4494703 C43.1706125,79.8494703 42.6406125,79.3094703 42.0506125,78.7794703 C41.9684943,78.6958721 41.8978736,78.6017113 41.8406125,78.4994703 C41.6792943,78.3720347 41.5256903,78.2351268 41.3806125,78.0894703 L40.2606125,77.0894703 L39.1006125,76.0894703 L38.5406125,75.6094703 L38.4506125,75.6094703 C37.8006125,75.0594703 38.3206125,75.3794703 37.7006125,74.8894703 C37.4006125,74.7794703 36.7006125,74.0594703 36.4406125,73.8894703 C36.4406125,73.8894703 36.1506125,73.6394703 36.1906125,73.6294703 C36.0606125,73.6294703 35.8606125,73.3994703 35.6606125,73.2694703 C35.4606125,73.1394703 35.6606125,73.3194703 35.7506125,73.3694703 L35.5206125,73.2094703 L35.5206125,73.2094703 C35.5206125,73.2094703 35.5206125,73.2094703 35.5206125,73.2094703 L35.5206125,73.2094703 L35.5206125,73.2094703 L36.2106125,72.4394703 L37.9906125,70.4394703 C39.1906125,69.0894703 40.3006125,67.8394703 40.7306125,67.3294703 C40.5339486,67.5363876 40.3270215,67.733302 40.1106125,67.9194703 C40.3506125,67.5894703 40.5106125,67.4794703 40.6106125,67.3194703 C40.7106125,67.1594703 41.2206125,66.6594703 41.4906125,66.4894703 L41.4906125,66.3694703 L41.6506125,66.2394703 C42.098216,65.6967281 42.5756179,65.1792645 43.0806125,64.6894703 C43.6906125,63.9894703 43.9206125,63.6094703 44.2806125,63.2494703 C44.2806125,63.2494703 44.0706125,63.4294703 44.2206125,63.2494703 C44.2806125,63.2494703 44.6106125,62.7494703 44.7206125,62.6994703 C44.8306125,62.6494703 45.3806125,61.9594703 45.1606125,62.1094703 C45.2706125,62.0294703 45.7306125,61.5294703 45.4806125,61.8494703 C45.6406125,61.6794703 45.7906125,61.5194703 45.8906125,61.3894703 L45.6806125,61.5994703 C46.1806125,61.0094703 46.5006125,60.7294703 46.7906125,60.3194703 L46.5806125,60.5094703 C46.7889604,60.2368284 47.0308702,59.9915587 47.3006125,59.7794703 L47.0006125,60.1494703 C47.5006125,59.5794703 47.8106125,59.2294703 48.2006125,58.7294703 L48.0806125,58.8894703 C48.2606125,58.6494703 48.7306125,58.0794703 49.2906125,57.4194703 L50.1506125,56.4194703 L50.3606125,56.1594703 L50.4206125,56.0794703 L50.5206125,55.9394703 L50.7106125,56.0294703 L50.7106125,56.0294703 L50.7106125,56.0294703 L50.8306125,56.0994703 L51.0106125,56.1894703 L50.7406125,55.9594703 L51.3206125,56.2694703 C51.2506125,56.2694703 50.9606125,56.2694703 50.9206125,56.1994703 C51.5106125,56.5694703 53.3606125,57.6794703 55.2506125,58.6794703 C57.1406125,59.6794703 59.0906125,60.5694703 59.6706125,60.8494703 C60.2506125,61.1294703 59.6706125,60.9594703 59.6706125,60.9694703 C60.2606125,61.1994703 59.9406125,61.0294703 60.4406125,61.2394703 C60.5706125,61.3094703 60.3906125,61.2394703 60.3106125,61.2394703 C60.4550596,61.3098686 60.6056992,61.3667769 60.7606125,61.4094703 C60.4906125,61.2794703 60.6306125,61.2694703 60.5306125,61.1894703 L61.1706125,61.4594703 L61.1706125,61.4594703 C61.5111296,61.5422273 61.8453108,61.6491652 62.1706125,61.7794703 C63.2306125,62.2094703 64.4206125,62.5994703 65.5306125,62.9394703 C65.3605291,62.9332596 65.1921861,62.9029578 65.0306125,62.8494703 L65.5406125,63.0094703 C65.2806125,62.8994703 66.0106125,63.1194703 65.8106125,63.0094703 C66.2306125,63.0694703 66.7006125,63.2194703 67.1606125,63.3294703 C67.6206125,63.4394703 68.0806125,63.5394703 68.4506125,63.5794703 L68.7706125,63.3794703 L69.4006125,62.9494703 C69.7064098,62.7524056 69.9912281,62.524551 70.2506125,62.2694703 L70.7506125,62.3494703 C70.5176219,62.2901394 70.2801603,62.2500051 70.0406125,62.2294703 L70.0406125,62.2294703 C69.5106125,62.1694703 69.9206125,62.2294703 69.4106125,62.0994703 C69.698988,62.0908402 69.9874286,62.1143179 70.2706125,62.1694703 C69.9780702,62.1032746 69.68024,62.0631177 69.3806125,62.0494703 C69.0306125,61.9794703 69.3806125,62.0494703 69.0106125,61.9094703 C68.6737294,61.8665074 68.3397772,61.8030565 68.0106125,61.7194703 L68.0106125,61.7194703 L67.4506125,61.5894703 L66.9706125,61.4794703 C66.6606125,61.4094703 66.3506125,61.3394703 65.9706125,61.2194703 L66.0806125,61.2194703 C65.8206125,61.1294703 65.2906125,60.9894703 64.8306125,60.8094703 C64.9606125,60.8094703 65.0706125,60.9294703 64.8306125,60.8094703 C64.2906125,60.5994703 63.9106125,60.5094703 63.5306125,60.3194703 L63.1306125,60.2094703 C62.1906125,59.8694703 59.8806125,58.9194703 57.6306125,57.7994703 C55.3806125,56.6794703 53.2106125,55.4194703 52.3506125,54.8894703 L52.4206125,54.8894703 L51.7406125,54.4694703 L51.3806125,54.4894703 L51.0006125,54.2394703 L50.1806125,53.6994703 L45.8706125,58.6194703 C44.5506125,60.1394703 43.2706125,61.6194703 42.3806125,62.6194703 C42.0206125,62.9694703 41.5706125,63.4994703 41.2106125,63.8794703 C41.4206125,63.6694703 41.3706125,63.7694703 41.2106125,63.9394703 C40.1506125,65.1294703 41.2106125,64.0394703 40.1106125,65.2594703 C39.5606125,65.9194703 38.2506125,67.3994703 36.9006125,68.9194703 L32.8006125,73.4894703 L33.5806125,74.0594703 L34.0906125,74.4094703 L34.5606125,74.7394703 L35.1406125,75.1794703 L36.2506125,76.0394703 L36.1806125,76.0394703 C36.5406125,76.3194703 37.7206125,77.2994703 38.8806125,78.3394703 C40.0406125,79.3794703 41.1606125,80.4894703 41.5606125,80.8494703 L41.4606125,80.7494703 C41.8188648,81.0997841 42.1529636,81.4739749 42.4606125,81.8694703 C42.4606125,81.7494703 43.0406125,82.2994703 43.2506125,82.5194703 L43.2506125,82.5194703 C43.5806125,82.8494703 44.3506125,83.5194703 44.8606125,84.1294703 L44.8106125,84.1294703 C45.0406125,84.3494703 45.3506125,84.6894703 45.6406125,85.0094703 L46.3306125,85.8394703 C46.6606125,86.2394703 47.0806125,86.7594703 47.5006125,87.3294703 L48.8506125,88.9994703 Z" id="Path" fill="#373735"></path>
                <path d="M107.990613,57.5794703 C107.600613,57.0794703 107.170613,56.5794703 106.580613,55.8994703 C106.880613,56.3094703 107.450613,56.9594703 107.990613,57.5794703 Z" id="Path" fill="#373735"></path>
                <path d="M105.210613,54.6594703 L105.800613,54.3194703 L105.210613,54.6594703 Z" id="Path" fill="#373735"></path>
                <path d="M73.5606125,71.8094703 L73.4106125,71.9294703 L73.5606125,71.8094703 Z" id="Path" fill="#373735"></path>
                <path d="M123.360613,72.4894703 C123.040613,72.1194703 122.620613,71.6694703 122.190613,71.1794703 L121.260613,70.1794703 L119.510613,68.2494703 L119.590613,68.2494703 C118.590613,67.1594703 116.730613,65.0494703 116.010613,64.2494703 C114.400613,62.3994703 111.960613,59.5194703 109.750613,57.0994703 L108.430613,55.4894703 L108.220613,55.2694703 C108.220613,55.2694703 104.950613,53.5994703 107.590613,57.0394703 L107.520613,57.0394703 L108.090613,57.6794703 C108.750613,58.4594703 109.090613,58.7894703 109.030613,58.7594703 L108.080613,57.6294703 C108.750613,58.4094703 108.260613,57.8894703 107.980613,57.6294703 L108.760613,58.5394703 C108.900613,58.6894703 108.670613,58.4194703 108.570613,58.2894703 C108.950613,58.6994703 109.490613,59.2894703 109.920613,59.7794703 C110.620613,60.5694703 109.920613,59.8694703 110.730613,60.7794703 L120.730613,72.1894703 L120.730613,72.1894703 L120.730613,72.1894703 L120.420613,72.4194703 C120.000613,72.7394703 119.580613,73.0594703 119.170613,73.4194703 C119.040613,73.5094703 119.170613,73.4194703 119.330613,73.2694703 C117.760613,74.5394703 116.420613,75.7294703 115.100613,77.0094703 C114.730613,77.3594703 114.620613,77.4394703 114.500613,77.5394703 C114.620613,77.4394703 112.810613,79.2294703 111.170613,81.2694703 L110.000613,82.7994703 L109.000613,84.2094703 C108.710613,84.6194703 108.510613,84.9994703 108.350613,85.2094703 L108.080613,85.6494703 L108.080613,85.7894703 L107.770613,86.3094703 C107.680613,86.4494703 107.630613,86.5594703 107.590613,86.6294703 L107.430613,86.8994703 C107.217261,87.2153905 107.033165,87.5501101 106.880613,87.8994703 L106.750613,88.2194703 L106.590613,88.6494703 L106.500613,88.8794703 C106.500613,88.8794703 106.500613,88.8794703 106.500613,88.8794703 L106.500613,88.8794703 C106.500613,88.8794703 106.500613,88.8794703 106.500613,88.8794703 C106.500613,88.8794703 106.500613,88.8794703 106.500613,88.8794703 L106.500613,88.8794703 L106.440613,88.8794703 C106.290613,88.7394703 106.140613,88.5994703 106.170613,88.5994703 C105.778244,88.3090575 105.401078,87.9986471 105.040613,87.6694703 C104.880613,87.5494703 105.140613,87.7794703 105.250613,87.8894703 L104.250613,87.0694703 C103.880613,86.7294703 103.810613,86.6194703 104.250613,86.9694703 L95.6706125,79.5094703 L90.2806125,75.0194703 L88.2006125,73.2294703 L87.3906125,72.5294703 C87.1549672,72.3110195 86.9006646,72.1136004 86.6306125,71.9394703 L87.0906125,72.2994703 L87.5206125,72.6894703 C87.7701735,72.8987318 88.0072472,73.1224492 88.2306125,73.3594703 C87.8606125,73.0694703 87.6006125,72.8394703 87.3906125,72.6494703 L87.0806125,72.3994703 C86.9728151,72.3088589 86.8592424,72.2253496 86.7406125,72.1494703 C86.327138,71.8040447 85.8421384,71.5547139 85.3206125,71.4194703 C85.1465004,71.3689236 84.9695168,71.3288519 84.7906125,71.2994703 L84.5306125,71.2994703 L84.3006125,71.2994703 C84.0723114,71.2783986 83.8453144,71.2450167 83.6206125,71.1994703 L83.3406125,71.1994703 L82.8706125,71.1294703 C78.7106125,70.8494703 81.8706125,71.1294703 78.2306125,70.7694703 L77.4806125,70.7094703 L77.1306125,70.7094703 L76.7406125,70.7094703 C76.2806282,70.7181463 75.8236202,70.7853533 75.3806125,70.9094703 C74.7060257,71.1150883 74.0800983,71.4552662 73.5406125,71.9094703 C73.7306125,71.7594703 73.9306125,71.6394703 73.5406125,71.9794703 C73.2659465,72.1874232 73.0291515,72.4411321 72.8406125,72.7294703 L72.7406125,72.8894703 L72.6906125,72.9694703 L72.6906125,73.0394703 L72.5506125,73.2694703 L72.3406125,73.5794703 C72.0606125,74.0494703 71.1206125,75.5794703 71.4906125,75.0694703 C71.3106125,75.3094703 70.4906125,76.6394703 70.9406125,75.8294703 C70.6506125,76.2794703 70.3706125,76.7094703 70.1906125,77.0394703 L70.5606125,76.4694703 C70.0906125,77.2394703 69.7206125,77.8194703 69.3906125,78.3394703 L68.9306125,79.0894703 C68.8164036,79.2620952 68.689379,79.42589 68.5506125,79.5794703 C68.6830104,79.4688379 68.8036483,79.3448489 68.9106125,79.2094703 C68.680486,79.5205493 68.3999489,79.7909464 68.0806125,80.0094703 C67.86956,80.1638703 67.6324495,80.2790383 67.3806125,80.3494703 C67.6512013,80.2225959 67.9062255,80.0648836 68.1406125,79.8794703 C67.6392927,80.2506922 67.0677072,80.5160712 66.4606125,80.6594703 C65.8800676,80.7900856 65.2854053,80.8472001 64.6906125,80.8294703 C64.8506125,80.8294703 65.0006125,80.8294703 65.1606125,80.8294703 L64.7706125,80.8294703 L64.2206125,80.8294703 C63.7846737,80.8001491 63.3577137,80.6917148 62.9606125,80.5094703 C62.506925,80.2980399 62.132209,79.9478381 61.8906125,79.5094703 C61.6115124,79.0158603 61.469926,78.4564213 61.4806125,77.8894703 C61.5075844,77.2997291 61.6719518,76.7244432 61.9606125,76.2094703 L62.0706125,76.0194703 L62.2106125,75.8094703 L62.4706125,75.3894703 L62.9806125,74.5894703 C63.6206125,73.5894703 64.1206125,72.7794703 64.3406125,72.4094703 L63.8606125,73.0494703 L64.6406125,71.7794703 C64.5406125,71.9194703 64.3806125,72.4694703 64.2906125,72.5794703 L66.7406125,68.8194703 C67.2936374,67.9401974 67.9821275,67.1538337 68.7806125,66.4894703 C69.6876999,65.7827328 70.6999938,65.2225968 71.7806125,64.8294703 C72.3338842,64.6249822 72.8980864,64.4513815 73.4706125,64.3094703 L75.2006125,63.8294703 L78.4006125,62.9594703 C79.4006125,62.6994703 80.2506125,62.4394703 80.9406125,62.2794703 C81.6306125,62.1194703 82.2006125,62.0194703 82.5506125,61.9694703 C83.7006125,61.8294703 82.7706125,61.9694703 82.7606125,62.0294703 C83.4506125,61.9194703 83.6006125,61.8994703 83.7606125,61.8694703 C84.0320993,61.8264229 84.3059249,61.7997082 84.5806125,61.7894703 C84.9006125,61.7894703 84.5106125,61.7894703 84.3306125,61.8494703 C84.8506125,61.8494703 85.3306125,61.8494703 85.3306125,61.7794703 C84.6806125,61.7794703 84.9506125,61.7194703 84.6706125,61.6894703 C85.1906125,61.6894703 85.6706125,61.6894703 86.2206125,61.6894703 L86.1406125,61.6894703 C86.5006125,61.6894703 87.0406125,61.5794703 88.6006125,61.5994703 L96.4806125,61.5994703 L97.0106125,61.2994703 L96.9106125,61.3794703 L96.4906125,61.6294703 L95.5806125,61.6294703 L96.4906125,61.6294703 L96.8906125,61.4094703 L97.1006125,61.2994703 C96.5306125,61.5794703 98.1006125,60.7294703 97.6106125,60.9594703 C99.2506125,59.9594703 101.470613,58.7494703 102.920613,57.8494703 C103.010613,57.6994703 105.370613,54.7494703 105.320613,54.6594703 C105.780613,54.3994703 106.240613,54.1394703 106.390613,54.0694703 C106.260613,54.1194703 105.390613,54.6194703 104.870613,54.9094703 L104.810613,54.9994703 C103.710613,55.6494703 104.540613,55.1194703 103.460613,55.7394703 C104.033585,55.3469356 104.627826,54.9863852 105.240613,54.6594703 C104.450613,55.0994703 103.650613,55.5194703 103.350613,55.7494703 C102.600613,56.1494703 103.410613,55.6494703 102.500613,56.1394703 C101.870613,56.5194703 101.060613,57.0294703 100.310613,57.4294703 L100.310613,57.4294703 C99.4106125,57.9194703 98.7406125,58.3194703 98.0906125,58.7094703 L97.0906125,59.2994703 L96.5506125,59.5994703 L96.2706125,59.7594703 L96.1206125,59.8394703 C96.1206125,59.8394703 96.0006125,59.9094703 96.0206125,59.8394703 L96.0206125,59.8394703 L96.0206125,59.8394703 L96.1006125,59.7794703 L96.0206125,59.7794703 L96.0206125,59.7794703 L93.5606125,59.7794703 C93.9006125,59.7794703 94.1906125,59.7794703 93.4706125,59.7794703 C92.1006125,59.7794703 91.1706125,59.7794703 90.1706125,59.7794703 L89.1706125,59.7794703 L86.0206125,59.7794703 L85.1706125,59.7794703 C84.5806125,59.7794703 83.9506125,59.8394703 83.3006125,59.9194703 C82.6506125,59.9994703 81.9706125,60.0994703 81.3006125,60.2394703 C80.9472792,60.3061369 80.6139459,60.3861369 80.3006125,60.4794703 L79.7706125,60.6194703 L79.2606125,60.7594703 L75.0406125,61.9194703 L72.9106125,62.5094703 L72.3806125,62.6594703 L71.8206125,62.8294703 L71.2706125,63.0194703 L70.7406125,63.2294703 C69.3899134,63.7978064 68.1481409,64.5963305 67.0706125,65.5894703 C66.5937125,66.0384778 66.1554956,66.5268722 65.7606125,67.0494703 C65.6641477,67.1679537 65.5740217,67.2914598 65.4906125,67.4194703 C65.4106125,67.5494703 65.3206125,67.6694703 65.2506125,67.7794703 C65.1806125,67.8894703 64.9706125,68.2194703 64.8306125,68.4194703 C64.3006125,69.2494703 63.8306125,69.9394703 63.5206125,70.4194703 L63.6206125,70.2594703 L61.8706125,72.9894703 L60.8706125,74.4594703 C60.7006125,74.7194703 60.5506125,74.9394703 60.3506125,75.2794703 C60.1618583,75.5953412 60.0076375,75.9306039 59.8906125,76.2794703 C59.497825,77.4571258 59.5657132,78.7398539 60.0806125,79.8694703 C60.2470699,80.2670685 60.4766977,80.6351482 60.7606125,80.9594703 C61.3376544,81.6222304 62.1007121,82.0960927 62.9506125,82.3194703 C63.3385789,82.4320355 63.7375513,82.5024424 64.1406125,82.5294703 C64.3306125,82.5294703 64.5206125,82.5294703 64.7206125,82.5294703 L65.3006125,82.5294703 C66.1032474,82.5086555 66.8970683,82.3566473 67.6506125,82.0794703 C68.4202839,81.7989741 69.1222027,81.359423 69.7106125,80.7894703 C69.8639418,80.6457959 70.0075894,80.4921264 70.1406125,80.3294703 L70.3306125,80.0794703 L70.4306125,79.9194703 L70.5106125,79.7994703 L71.0406125,78.9394703 C71.3906125,78.3694703 71.7306125,77.8094703 72.0406125,77.2694703 L73.9606125,74.1394703 L74.1806125,73.7794703 L74.3506125,73.5294703 C74.4787405,73.3747045 74.6228752,73.2339217 74.7806125,73.1094703 C75.0807222,72.8809686 75.4194326,72.7082263 75.7806125,72.5994703 C76.0228442,72.5389887 76.271016,72.505452 76.5206125,72.4994703 L76.9206125,72.4994703 L77.4406125,72.4994703 L79.4406125,72.6694703 C78.7706125,72.5994703 79.0006125,72.5894703 79.5306125,72.6694703 C83.2306125,72.9794703 79.7806125,72.6694703 83.5306125,72.9494703 L83.9706125,72.9494703 L84.2106125,72.9494703 L84.4206125,72.9494703 C84.7335672,73.0000029 85.0370292,73.0977851 85.3206125,73.2394703 C85.4750399,73.3161644 85.6222939,73.4065248 85.7606125,73.5094703 L85.8706125,73.5994703 L86.0106125,73.7194703 L86.2906125,73.9594703 L87.4906125,74.9594703 L93.0806125,79.7894703 L102.250613,87.7894703 C103.050613,88.4394703 103.930613,89.1894703 104.810613,89.9394703 L106.520613,91.4194703 L106.520613,91.5194703 L106.520613,91.5194703 L106.660613,91.6694703 C106.810613,91.8694703 106.910613,91.9294703 106.870613,91.9394703 C106.806153,91.8484714 106.736013,91.761632 106.660613,91.6794703 C106.810613,91.8694703 106.660613,91.7494703 106.660613,91.6794703 L106.830613,91.9094703 C106.830613,91.9094703 106.830613,91.9094703 106.830613,91.8394703 C106.95118,91.9434803 107.05565,92.0648008 107.140613,92.1994703 C107.270613,92.4094703 107.140613,92.1994703 107.240613,92.4894703 C107.592528,93.1193643 107.745897,93.8408961 107.680613,94.5594703 C107.630408,95.2240182 107.32597,95.8436387 106.830613,96.2894703 C106.830613,96.2894703 106.830613,96.2894703 106.830613,96.2894703 C106.539386,96.5648997 106.200554,96.785141 105.830613,96.9394703 C105.767582,96.9482318 105.703643,96.9482318 105.640613,96.9394703 C105.275762,97.0963026 104.892823,97.2071533 104.500613,97.2694703 C104.180613,97.2694703 103.860613,97.3694703 103.600613,97.3794703 L103.290613,97.3794703 L103.080613,97.3794703 L103.020613,97.4494703 L102.560613,97.4494703 C102.560613,97.4494703 102.560613,97.4494703 102.560613,97.4494703 C102.560613,97.4494703 102.560613,97.4494703 102.560613,97.4494703 L102.560613,97.4494703 C102.560613,97.4494703 102.420613,97.3894703 102.380613,97.3294703 C102.340613,97.2694703 102.380613,97.2694703 102.310613,97.1794703 C101.750613,96.6594703 101.220613,96.1794703 100.620613,95.6594703 C100.620613,95.6594703 100.620613,95.6594703 100.620613,95.6594703 C100.430613,95.5194703 100.280613,95.3794703 100.110613,95.2594703 C100.102936,95.2265789 100.102936,95.1923617 100.110613,95.1594703 C99.7947599,94.9250601 99.4910342,94.6747367 99.2006125,94.4094703 L99.1406125,94.4594703 C98.9606125,94.3094703 99.1406125,94.3494703 98.9706125,94.2294703 C98.8006125,94.1094703 98.7106125,93.9894703 98.6206125,93.9894703 C98.5306125,93.9894703 98.5506125,93.9094703 98.6206125,93.8894703 C98.6906125,93.8694703 98.5306125,93.8894703 98.4806125,93.7994703 C98.4306125,93.7094703 98.4806125,93.7994703 98.4806125,93.7994703 L98.3606125,93.7194703 C98.3606125,93.7194703 98.3606125,93.6294703 98.3606125,93.7194703 C98.0806125,93.4494703 96.6906125,92.1994703 96.3606125,91.9494703 C96.3606125,92.0194703 96.4906125,92.0794703 96.4906125,92.1594703 C96.4906125,92.2394703 96.3706125,92.0494703 96.3106125,92.0494703 C96.2506125,92.0494703 96.1406125,91.8694703 96.1406125,91.7394703 L96.0806125,91.7394703 L96.0806125,91.6794703 C95.6706125,91.4094703 95.9806125,91.6794703 95.6506125,91.3394703 C95.3206125,90.9994703 95.3206125,91.1694703 95.2306125,91.0494703 C95.1406125,90.9294703 95.2306125,91.1294703 95.2306125,91.0494703 C95.2306125,90.9694703 95.0706125,90.9594703 95.0806125,90.9094703 C95.0906125,90.8594703 94.8806125,90.7294703 94.8906125,90.8294703 C94.8906125,90.7794703 94.7506125,90.6494703 94.8906125,90.6994703 C94.8546753,90.6548637 94.810552,90.6175287 94.7606125,90.5894703 L94.7606125,90.6594703 C94.6006125,90.5294703 94.5406125,90.4194703 94.4006125,90.3694703 L94.4006125,90.4394703 C94.3106125,90.3694703 94.2206125,90.2994703 94.2306125,90.2194703 L94.3406125,90.2894703 C94.2119578,90.1789573 94.0748749,90.0786528 93.9306125,89.9894703 L93.9306125,89.9894703 C93.7206125,89.8994703 92.8106125,89.1994703 92.6006125,89.1294703 L92.6006125,89.2294703 L92.4806125,89.4894703 C92.4806125,89.4894703 92.6506125,89.4194703 92.6506125,89.4894703 C92.3706125,89.2494703 90.8606125,88.0194703 90.6506125,87.7694703 C90.4406125,87.5194703 90.6506125,87.6994703 90.6506125,87.6894703 C90.5106125,87.5894703 90.5606125,87.6894703 90.4506125,87.5894703 C90.3406125,87.4894703 90.4506125,87.5894703 90.5006125,87.5894703 C90.5506125,87.5894703 90.4206125,87.4994703 90.4006125,87.5194703 C90.3806125,87.5394703 90.4006125,87.6094703 90.4006125,87.6594703 L90.2506125,87.4894703 L90.2506125,87.4894703 C90.2506125,87.4894703 90.1006125,87.4894703 89.9806125,87.3694703 C89.8606125,87.2494703 89.4906125,86.9594703 89.2606125,86.7494703 C89.2606125,86.7494703 89.3406125,86.7494703 89.4006125,86.7494703 C89.3621829,86.7177822 89.3285055,86.6807371 89.3006125,86.6394703 C89.3006125,86.7194703 89.1806125,86.5794703 89.2106125,86.6394703 C88.9806125,86.5694703 88.8106125,86.3094703 88.6206125,86.2294703 C88.4306125,86.1494703 87.3306125,87.0894703 87.2706125,87.1694703 L87.1606125,87.0694703 C87.1979386,87.128096 87.2495549,87.1762712 87.3106125,87.2094703 L87.3106125,87.2094703 C87.4406125,87.2894703 87.3106125,87.2094703 87.4306125,87.3494703 C87.4306125,87.3494703 87.3006125,87.3494703 87.2006125,87.2294703 C87.2806125,87.3094703 87.3406125,87.3994703 87.4106125,87.3894703 C87.4806125,87.3794703 87.3606125,87.3894703 87.4106125,87.5194703 C87.5059768,87.5560304 87.5915551,87.6142237 87.6606125,87.6894703 L87.6606125,87.6894703 C87.8106125,87.8794703 87.9806125,87.8794703 88.1206125,88.0494703 L88.1206125,88.0494703 C88.1206125,88.1194703 88.3006125,88.1894703 88.3906125,88.2994703 C88.4806125,88.4094703 88.3906125,88.2194703 88.3906125,88.2994703 C88.3906125,88.3794703 88.5906125,88.4794703 88.6606125,88.5794703 L88.7706125,88.5794703 C89.1906125,88.9494703 90.9106125,90.3194703 91.3406125,90.6794703 L91.3406125,90.6794703 C92.0106125,91.2194703 93.3406125,92.3494703 94.0506125,92.8794703 C94.1528288,93.0001072 94.2630799,93.1136992 94.3806125,93.2194703 C94.3806125,93.1494703 94.3806125,93.1494703 94.3806125,93.2194703 C94.7006125,93.4994703 94.3806125,93.2194703 94.7706125,93.4794703 C95.1606125,93.7394703 96.6206125,95.0594703 96.9406125,95.3794703 C97.1606125,95.4894703 97.3606125,95.7194703 97.5706125,95.8394703 L97.5706125,95.8394703 C97.7806125,95.9894703 98.8306125,96.9594703 99.0706125,97.1294703 L99.0706125,97.1294703 C99.2906125,97.2694703 99.2206125,97.2994703 99.3606125,97.4394703 C99.3606125,97.3694703 99.5806125,97.4394703 99.6406125,97.5294703 L99.6406125,97.5294703 C99.7506125,97.6094703 100.000613,97.7394703 100.170613,97.8694703 L100.170613,97.8694703 C100.346633,97.9788716 100.510843,98.1062184 100.660613,98.2494703 C100.859174,98.4580052 101.069519,98.6549946 101.290613,98.8394703 C101.278835,98.9892391 101.278835,99.1397015 101.290613,99.2894703 C101.282684,99.3592458 101.282684,99.4296948 101.290613,99.4994703 L101.290613,99.4894703 L101.290613,99.4894703 C101.290613,99.5594703 101.290613,99.7094703 101.290613,99.8394703 C101.290613,99.9694703 101.290613,99.8394703 101.290613,99.7694703 C101.290613,99.6994703 101.290613,99.9794703 101.290613,100.07947 C101.290613,100.17947 101.200613,100.20947 101.230613,100.07947 C101.148809,100.425343 101.028037,100.760821 100.870613,101.07947 C100.646967,101.536775 100.334173,101.944767 99.9506125,102.27947 C99.5472556,102.607951 99.0906676,102.864993 98.6006125,103.03947 C98.2470856,103.153626 97.8862683,103.24383 97.5206125,103.30947 C97.6070276,103.318809 97.6941974,103.318809 97.7806125,103.30947 C97.8594261,103.289986 97.9417989,103.289986 98.0206125,103.30947 C97.8006125,103.39947 97.6806125,103.36947 97.5806125,103.41947 C97.4806125,103.46947 97.4006125,103.41947 97.2606125,103.41947 C97.1314971,103.440918 96.9997279,103.440918 96.8706125,103.41947 L96.8106125,103.47947 L96.6906125,103.47947 L96.3706125,103.47947 L95.7706125,103.47947 C95.7706125,103.47947 95.7706125,103.47947 95.7706125,103.38947 C95.3706125,103.00947 95.0006125,102.62947 94.5706125,102.26947 C94.5706125,102.26947 94.5706125,102.26947 94.5706125,102.26947 C94.5706125,102.26947 94.3306125,102.06947 94.2006125,101.98947 C94.1914004,101.960177 94.1914004,101.928763 94.2006125,101.89947 C93.9653072,101.734852 93.7414584,101.554436 93.5306125,101.35947 L93.5306125,101.35947 C93.4006125,101.25947 93.5306125,101.26947 93.4206125,101.17947 C93.3106125,101.08947 93.2306125,101.00947 93.1606125,101.01947 C93.0906125,101.02947 93.1606125,100.95947 93.1606125,100.93947 C93.1606125,100.91947 93.0906125,100.93947 93.0506125,100.87947 C93.0106125,100.81947 93.0506125,100.87947 93.0506125,100.87947 L92.9606125,100.81947 C92.9606125,100.81947 92.9606125,100.74947 92.9606125,100.81947 C92.7606125,100.61947 91.7706125,99.6894703 91.5306125,99.5094703 C91.5306125,99.5694703 91.6206125,99.6094703 91.6006125,99.6794703 C91.5806125,99.7494703 91.5206125,99.5894703 91.4706125,99.5994703 C91.4206125,99.6094703 91.3506125,99.4694703 91.3706125,99.3494703 L91.3706125,99.3494703 L91.3706125,99.2994703 C91.0606125,99.1094703 91.2906125,99.2994703 91.0606125,99.0494703 C90.8306125,98.7994703 90.8006125,98.9394703 90.7506125,98.8494703 C90.7006125,98.7594703 90.7506125,98.9094703 90.7506125,98.8494703 C90.7506125,98.7894703 90.6306125,98.8494703 90.6506125,98.7394703 C90.6706125,98.6294703 90.5006125,98.6194703 90.5006125,98.7394703 C90.5006125,98.8594703 90.4106125,98.5994703 90.5006125,98.6294703 C90.5906125,98.6594703 90.5006125,98.5594703 90.4106125,98.5494703 L90.4106125,98.6094703 C90.2906125,98.5094703 90.2606125,98.4194703 90.1506125,98.3994703 L90.1506125,98.4594703 C90.0706125,98.3994703 90.0106125,98.3594703 90.0306125,98.2794703 L90.1106125,98.2794703 C90.0222549,98.1941577 89.9210152,98.1232899 89.8106125,98.0694703 L89.8106125,98.0694703 C89.6506125,98.0094703 88.9906125,97.5094703 88.8106125,97.4694703 L88.8106125,97.5494703 L88.6906125,97.4994703 C88.6906125,97.4994703 88.8406125,97.4194703 88.8406125,97.4394703 C88.6306125,97.2694703 87.5406125,96.3694703 87.3806125,96.1794703 C87.2206125,95.9894703 87.3806125,96.1094703 87.3806125,96.1094703 C87.3806125,96.1094703 87.3106125,96.1094703 87.2306125,96.0394703 C87.1506125,95.9694703 87.2306125,96.0394703 87.2306125,96.0394703 C87.2306125,96.0394703 87.1706125,95.9694703 87.1506125,95.9894703 C87.1306125,96.0094703 87.1506125,96.0694703 87.1506125,96.1194703 L87.0606125,96.0294703 L87.0606125,96.0294703 C87.0606125,96.0294703 86.9306125,96.0294703 86.8406125,95.9594703 C86.7506125,95.8894703 86.5006125,95.6494703 86.3306125,95.4994703 C86.3306125,95.4994703 86.4006125,95.4994703 86.4406125,95.4994703 C86.4806125,95.4994703 86.3806125,95.4994703 86.3706125,95.4294703 C86.3606125,95.3594703 86.2806125,95.4294703 86.3006125,95.4294703 C86.1106125,95.4294703 86.0106125,95.1894703 85.8606125,95.1394703 C85.7106125,95.0894703 84.6506125,96.0594703 84.5806125,96.1394703 C84.5556244,96.1169372 84.5352476,96.0897681 84.5206125,96.0594703 C84.5206125,96.0594703 84.5206125,96.1494703 84.6106125,96.1694703 L84.6106125,96.1694703 C84.7106125,96.2194703 84.6106125,96.1694703 84.6906125,96.2694703 C84.7706125,96.3694703 84.5906125,96.2694703 84.5206125,96.1994703 C84.4506125,96.1294703 84.6106125,96.3294703 84.6706125,96.3094703 C84.7306125,96.2894703 84.6706125,96.3094703 84.6706125,96.4194703 C84.6706125,96.5294703 84.8106125,96.4694703 84.8506125,96.5394703 L84.8506125,96.5394703 C84.9606125,96.6794703 85.1006125,96.6594703 85.1906125,96.7994703 L85.1906125,96.7994703 C85.1906125,96.8494703 85.3206125,96.8994703 85.3806125,96.9894703 C85.4406125,97.0794703 85.3806125,96.9194703 85.3806125,96.9894703 C85.3806125,97.0594703 85.5306125,97.1194703 85.5706125,97.1994703 L85.6606125,97.1994703 C85.9606125,97.4794703 87.2006125,98.4694703 87.5106125,98.7394703 L87.5106125,98.7394703 C87.9906125,99.1294703 88.9406125,99.9594703 89.5106125,100.33947 C89.5694572,100.434514 89.6438214,100.519019 89.7306125,100.58947 C89.7306125,100.58947 89.7306125,100.52947 89.7306125,100.58947 C89.9606125,100.79947 89.7306125,100.58947 90.0206125,100.77947 C90.5591387,101.21765 91.0732431,101.685018 91.5606125,102.17947 C91.7415279,102.26952 91.9153589,102.37315 92.0806125,102.48947 L92.0806125,102.48947 C92.2406125,102.58947 92.9806125,103.30947 93.1606125,103.48947 L93.1606125,103.48947 C93.3306125,103.57947 93.2606125,103.61947 93.3606125,103.72947 C93.3606125,103.66947 93.5406125,103.72947 93.5906125,103.72947 L93.5906125,103.72947 C93.6606125,103.78947 93.8606125,103.86947 93.9806125,103.96947 L93.9806125,103.96947 C94.1137623,104.044542 94.2350752,104.138897 94.3406125,104.24947 C94.4406125,104.33947 94.5506125,104.47947 94.6906125,104.60947 L94.6906125,104.60947 C94.6906125,104.76947 94.6906125,104.90947 94.6906125,105.03947 C94.6953466,105.106053 94.6953466,105.172888 94.6906125,105.23947 L94.6906125,105.48947 C94.7047037,105.585623 94.7047037,105.683317 94.6906125,105.77947 C94.6906125,105.77947 94.6906125,105.62947 94.6906125,105.77947 C94.6906125,105.92947 94.6906125,106.12947 94.6206125,106.18947 C94.5506125,106.24947 94.4906125,106.69947 94.6206125,106.58947 C94.6206125,106.64947 94.4406125,106.97947 94.4906125,106.76947 C94.4454413,106.867323 94.4053873,106.967459 94.3706125,107.06947 L94.4506125,106.92947 C94.3006125,107.30947 94.1306125,107.45947 94.0406125,107.69947 L94.1406125,107.59947 C94.0106125,107.79947 93.8806125,107.94947 93.7706125,107.96947 L93.9106125,107.77947 C93.7051663,108.016919 93.4811237,108.237618 93.2406125,108.43947 L93.3406125,108.36947 C92.9267401,108.713104 92.4468838,108.968347 91.9306125,109.11947 C91.7506125,109.11947 91.5806125,109.22947 91.4106125,109.25947 C91.2457904,109.301441 91.0788987,109.334819 90.9106125,109.35947 L90.5106125,109.42947 L90.3606125,109.42947 L90.2306125,109.42947 L90.3606125,109.42947 L90.4606125,109.42947 L90.2606125,109.42947 L89.9206125,109.42947 C89.9878529,109.413246 90.0520184,109.386229 90.1106125,109.34947 C90.1664118,109.314209 90.2270478,109.287259 90.2906125,109.26947 L89.9206125,109.26947 L89.9206125,109.26947 C89.9206125,109.26947 89.9206125,109.26947 89.9206125,109.26947 L89.9206125,109.26947 C89.9206125,109.26947 89.9206125,109.26947 89.9206125,109.26947 L89.9206125,109.20947 C89.9206125,109.20947 89.9206125,109.20947 89.9206125,109.20947 C89.9206125,109.20947 89.8306125,109.20947 89.8206125,109.20947 C89.8106125,109.20947 89.8206125,109.20947 89.8206125,109.10947 C89.5754379,108.844496 89.3149944,108.594069 89.0406125,108.35947 C89.0406125,108.35947 89.0406125,108.35947 89.0406125,108.35947 C89.0406125,108.35947 88.8706125,108.22947 88.7806125,108.17947 C88.7705719,108.153749 88.7705719,108.125192 88.7806125,108.09947 C88.7806125,108.09947 88.3306125,107.76947 88.3306125,107.75947 L88.3306125,107.75947 C88.2406125,107.68947 88.3306125,107.67947 88.2706125,107.62947 C88.2106125,107.57947 88.1506125,107.50947 88.0906125,107.52947 C88.0306125,107.54947 88.0906125,107.52947 88.0906125,107.46947 C88.0906125,107.40947 88.0906125,107.46947 88.0106125,107.46947 C87.9306125,107.46947 88.0106125,107.46947 88.0106125,107.46947 L87.9406125,107.46947 C87.9406125,107.46947 87.9406125,107.40947 87.9406125,107.46947 C87.8106125,107.33947 87.1606125,106.71947 86.9406125,106.60947 C86.9406125,106.60947 87.0006125,106.67947 86.9406125,106.74947 C86.8806125,106.81947 86.9406125,106.68947 86.8506125,106.69947 C86.7606125,106.70947 86.7806125,106.60947 86.8506125,106.50947 L86.8506125,106.50947 L86.8506125,106.50947 C86.6406125,106.39947 86.7906125,106.50947 86.6406125,106.34947 C86.4906125,106.18947 86.4606125,106.34947 86.4206125,106.23947 C86.3806125,106.12947 86.4206125,106.23947 86.4206125,106.23947 C86.4206125,106.23947 86.3306125,106.23947 86.3506125,106.15947 C86.3706125,106.07947 86.2506125,106.07947 86.2406125,106.15947 C86.2306125,106.23947 86.2406125,106.05947 86.2406125,106.06947 C86.2406125,106.07947 86.2406125,106.06947 86.1806125,106.06947 L86.1806125,106.06947 C86.1006125,106.00947 86.0906125,105.93947 86.0006125,105.93947 L86.0006125,105.93947 C86.0006125,105.93947 85.9106125,105.87947 85.9406125,105.81947 L86.0006125,105.81947 C85.9400028,105.764908 85.8683908,105.723987 85.7906125,105.69947 L85.7906125,105.69947 C85.6606125,105.69947 85.2106125,105.35947 85.0806125,105.35947 L85.0806125,105.42947 L84.9906125,105.42947 C84.9906125,105.42947 85.1206125,105.32947 85.1206125,105.34947 C84.7717503,105.095643 84.4378596,104.821853 84.1206125,104.52947 C84.1206125,104.46947 84.1206125,104.46947 84.1206125,104.45947 C84.1206125,104.44947 84.0606125,104.45947 84.0106125,104.45947 C83.9606125,104.45947 84.0106125,104.45947 84.0106125,104.45947 C84.0106125,104.45947 84.0106125,104.45947 83.9506125,104.45947 C83.8906125,104.45947 83.9506125,104.53947 83.9506125,104.57947 L83.8806125,104.51947 L83.8806125,104.51947 C83.8806125,104.51947 83.7706125,104.51947 83.7206125,104.51947 C83.6706125,104.51947 83.4906125,104.31947 83.3806125,104.21947 C83.2706125,104.11947 83.3806125,104.21947 83.4606125,104.21947 C83.5406125,104.21947 83.4606125,104.21947 83.4606125,104.21947 C83.4606125,104.21947 83.3906125,104.21947 83.4006125,104.21947 C83.4106125,104.21947 83.2106125,104.05947 83.0906125,104.04947 C82.9706125,104.03947 81.9806125,105.04947 81.9106125,105.12947 L81.9106125,105.12947 C81.9106125,105.12947 81.9106125,105.19947 81.9706125,105.20947 L81.9706125,105.20947 C82.0406125,105.20947 81.9706125,105.20947 81.9706125,105.28947 C81.9706125,105.36947 81.8806125,105.28947 81.8406125,105.28947 C81.8006125,105.28947 81.8406125,105.37947 81.9406125,105.35947 C82.0406125,105.33947 81.9406125,105.35947 81.9406125,105.44947 C81.9406125,105.53947 82.0506125,105.44947 82.0706125,105.51947 L82.0706125,105.51947 C82.1306125,105.62947 82.2506125,105.57947 82.3006125,105.68947 L82.3006125,105.68947 C82.3006125,105.68947 82.3906125,105.74947 82.4206125,105.81947 C82.4506125,105.88947 82.4206125,105.75947 82.4206125,105.81947 C82.4206125,105.87947 82.5206125,105.90947 82.5406125,105.96947 L82.6106125,105.96947 C82.8006125,106.14947 83.6106125,106.77947 83.8506125,106.96947 L83.8506125,106.96947 C84.1806125,107.20947 84.8506125,107.75947 85.1706125,107.96947 C85.206482,108.037139 85.2538556,108.098048 85.3106125,108.14947 C85.3106125,108.14947 85.3106125,108.14947 85.3106125,108.14947 C85.3106125,108.14947 85.3106125,108.14947 85.5106125,108.24947 C85.8711083,108.528916 86.2057852,108.840166 86.5106125,109.17947 C86.6406125,109.17947 86.7206125,109.32947 86.8306125,109.36947 L86.8306125,109.36947 C86.9306125,109.42947 87.4206125,109.90947 87.5406125,109.98947 L87.5406125,109.98947 C87.6606125,110.03947 87.6006125,110.07947 87.6606125,110.15947 C87.7206125,110.23947 87.8106125,110.15947 87.8406125,110.15947 L87.8406125,110.15947 C87.8406125,110.15947 88.0406125,110.22947 88.1206125,110.27947 L88.1206125,110.27947 C88.2106125,110.27947 88.3206125,110.41947 88.3706125,110.44947 C88.4206125,110.47947 88.4906125,110.60947 88.5706125,110.68947 C88.6506125,110.76947 88.5706125,110.78947 88.5706125,110.83947 L88.5706125,111.12947 L88.5706125,111.30947 C88.5706125,111.42947 88.5706125,111.53947 88.4906125,111.65947 C88.3681471,112.141694 88.1902979,112.608129 87.9606125,113.04947 C87.6611161,113.654414 87.2097328,114.171265 86.6506125,114.54947 C86.4006125,114.65947 86.5606125,114.54947 86.5606125,114.54947 C86.2906125,114.72947 86.4706125,114.66947 86.2206125,114.78947 C86.1406125,114.78947 86.2206125,114.78947 86.2206125,114.71947 C86.1106125,114.77947 86.0006125,114.81947 86.0006125,114.83947 C86.0006125,114.85947 86.1106125,114.83947 86.1906125,114.83947 C86.0806125,114.89947 85.9606125,114.92947 85.8506125,114.97947 L85.8506125,114.97947 C85.6952961,115.104517 85.5083934,115.184123 85.3106125,115.20947 C84.6449152,115.301992 83.9682123,115.278307 83.3106125,115.13947 C83.4098754,115.122299 83.5113496,115.122299 83.6106125,115.13947 C83.5060455,115.121983 83.4025479,115.098612 83.3006125,115.06947 C83.4506125,115.13947 83.0106125,115.06947 83.1406125,115.06947 C82.861502,115.045541 82.5862321,114.988473 82.3206125,114.89947 L81.9206125,114.76947 L81.7806125,114.76947 L81.6106125,114.70947 C81.6106125,114.70947 81.1806125,114.96947 80.7906125,115.17947 C80.4006125,115.38947 79.9706125,115.59947 79.9406125,115.63947 C79.8195212,115.569758 79.7026513,115.492958 79.5906125,115.40947 C79.7362403,115.541061 79.9015764,115.649036 80.0806125,115.72947 L80.0806125,115.72947 C80.4406125,115.89947 80.1506125,115.80947 80.4806125,115.96947 C80.4806125,116.01947 80.1706125,115.87947 79.8906125,115.72947 C80.0737691,115.860106 80.2762099,115.961326 80.4906125,116.02947 C80.7106125,116.15947 80.4906125,116.02947 80.7006125,116.21947 L81.5006125,116.50947 L81.5006125,116.50947 C81.7447003,116.611623 81.9997004,116.685438 82.2606125,116.72947 C82.4906125,116.72947 82.7206125,116.80947 83.0106125,116.87947 L82.9406125,116.87947 C83.0816224,116.917388 83.2254006,116.944138 83.3706125,116.95947 L83.9406125,117.02947 C83.8306125,117.02947 83.7406125,116.96947 83.9406125,117.02947 C84.1370313,117.043434 84.3341937,117.043434 84.5306125,117.02947 C84.7006125,117.02947 84.8706125,117.02947 85.0306125,117.02947 L85.3506125,116.94947 C85.9499066,116.866019 86.5311612,116.683532 87.0706125,116.40947 C87.8432832,115.995221 88.5025458,115.397765 88.9906125,114.66947 C89.4477946,113.973642 89.7857616,113.206457 89.9906125,112.39947 C89.9906125,112.21947 90.0806125,112.04947 90.1206125,111.87947 L90.1206125,111.63947 L90.1206125,111.53947 L90.1206125,111.43947 L90.2806125,111.43947 C90.4438191,111.448572 90.607406,111.448572 90.7706125,111.43947 L91.3106125,111.36947 C91.5006125,111.36947 91.6906125,111.30947 91.8906125,111.25947 C92.7707004,111.074616 93.6020434,110.706645 94.3306125,110.17947 C95.0864928,109.618853 95.6688111,108.856293 96.0106125,107.97947 C96.1585537,107.598509 96.2658162,107.202979 96.3306125,106.79947 C96.3306125,106.61947 96.3306125,106.43947 96.4006125,106.26947 C96.4093337,106.149629 96.4093337,106.029312 96.4006125,105.90947 L96.4006125,105.90947 C96.4054655,105.879667 96.4054655,105.849274 96.4006125,105.81947 C96.4006125,105.81947 96.4006125,105.81947 96.4006125,105.81947 C96.4006125,105.81947 96.3406125,105.76947 96.4006125,105.76947 L96.4606125,105.76947 C96.5106125,105.76947 96.4606125,105.76947 96.4606125,105.76947 L96.4606125,105.76947 L96.5406125,105.76947 C96.6404239,105.778157 96.7408012,105.778157 96.8406125,105.76947 C97.3700218,105.724649 97.8950171,105.637707 98.4106125,105.50947 C98.5806125,105.50947 98.7606125,105.39947 98.9406125,105.34947 L99.4906125,105.13947 C99.87151,104.971548 100.233533,104.76372 100.570613,104.51947 C101.229474,104.052273 101.776034,103.444225 102.170613,102.73947 C102.434921,102.28287 102.643097,101.796009 102.790613,101.28947 C102.790613,101.04947 102.870613,100.78947 102.910613,100.52947 C102.910613,100.46947 102.910613,100.39947 102.910613,100.33947 L102.910613,100.16947 L102.910613,100.06947 C102.915401,100.026269 102.915401,99.9826713 102.910613,99.9394703 L102.910613,99.9394703 L102.910613,99.9394703 C102.910613,99.9394703 102.980613,99.9394703 103.030613,99.9394703 L103.190613,99.9394703 L103.790613,99.9394703 C104.233885,99.8965558 104.674523,99.8297924 105.110613,99.7394703 C105.792693,99.6085735 106.448286,99.3652606 107.050613,99.0194703 L106.940613,99.0194703 C107.550613,98.6094703 107.500613,98.7194703 107.940613,98.3494703 C107.840613,98.3494703 108.270613,97.8694703 108.390613,97.6494703 L108.390613,97.6494703 C108.543839,97.417372 108.671261,97.1692344 108.770613,96.9094703 C108.834386,96.7531417 108.887834,96.5927973 108.930613,96.4294703 C108.972482,96.2747421 109.005865,96.1178415 109.030613,95.9594703 L109.030613,95.9594703 C109.072691,95.6511668 109.096067,95.3405988 109.100613,95.0294703 C109.106912,94.7548464 109.086819,94.4802523 109.040613,94.2094703 C108.980574,93.7283316 108.856126,93.2574478 108.670613,92.8094703 C108.454991,92.309614 108.161331,91.8471845 107.800613,91.4394703 L107.620613,91.1494703 L107.780613,90.4894703 C107.880613,90.2094703 107.990613,89.9394703 108.100613,89.6694703 L107.980613,90.0094703 L108.230613,89.3694703 L108.350613,89.0594703 L108.520613,88.7294703 L108.910613,87.9394703 L109.140613,87.4994703 C109.212132,87.3368 109.295698,87.1796967 109.390613,87.0294703 L109.980613,86.0294703 L110.290613,85.5094703 L110.650613,84.9894703 L111.380613,83.9194703 C111.640613,83.5594703 111.930613,83.2094703 112.200613,82.8594703 C113.956795,80.6492626 115.900694,78.5949536 118.010613,76.7194703 L117.750613,76.9294703 C118.221465,76.477482 118.715463,76.0502405 119.230613,75.6494703 L120.510613,74.6494703 C120.410613,74.6494703 120.700613,74.3994703 121.110613,74.0794703 L121.430613,73.8194703 L121.590613,73.6894703 L121.770613,73.5494703 C122.140613,73.2694703 122.500613,73.0194703 122.770613,72.8394703 L122.770613,72.8394703 L123.360613,72.4894703 Z" id="Shape" fill="#373735"></path>
                <path d="M106.690613,91.8794703 C106.597073,91.707155 106.475397,91.5516809 106.330613,91.4194703 C106.434769,91.5845683 106.555385,91.7386887 106.690613,91.8794703 Z" id="Path" fill="#373735"></path>
                <polygon id="Path" fill="#373735" points="106.690613 91.8894703 106.700613 91.8894703 106.690613 91.8794703"></polygon>
                <path d="M49.9006125,97.2494703 C49.8430424,97.1413211 49.7725239,97.0405805 49.6906125,96.9494703 L49.7606125,97.1094703 L49.9006125,97.2494703 Z" id="Path" fill="#373735"></path>
                <path d="M56.3606125,104.12947 C56.2428708,103.972169 56.1050317,103.830968 55.9506125,103.70947 C56.0713677,103.864166 56.2088712,104.005023 56.3606125,104.12947 L56.3606125,104.12947 Z" id="Path" fill="#373735"></path>
                <path d="M63.5506125,109.75947 C63.4402015,109.614566 63.3126006,109.483607 63.1706125,109.36947 C63.2812451,109.514183 63.4088214,109.645117 63.5506125,109.75947 Z" id="Path" fill="#373735"></path>
                <path d="M71.2006125,114.97947 C71.1044733,114.853461 70.9936961,114.739327 70.8706125,114.63947 C70.9617733,114.76968 71.0731815,114.884464 71.2006125,114.97947 L71.2006125,114.97947 Z" id="Path" fill="#373735"></path>
                <polygon id="Path" fill="#373735" points="70.8706125 114.62947 70.8606125 114.62947 70.8706125 114.63947"></polygon>
                <path d="M80.0806125,113.62947 L80.5706125,113.17947 L80.7106125,113.05947 L80.8806125,112.88947 C81.0006979,112.771927 81.1110592,112.644844 81.2106125,112.50947 C81.6884048,111.93799 81.9997659,111.246076 82.1106125,110.50947 C82.2197986,109.750831 82.108726,108.976793 81.7906125,108.27947 C81.5307297,107.71815 81.1519946,107.219994 80.6806125,106.81947 C80.5706125,106.68947 80.4706125,106.60947 80.3606125,106.49947 L80.0306125,106.20947 C80.1306125,106.31947 80.0306125,106.30947 80.0306125,106.20947 C79.6506125,105.90947 79.6206125,105.90947 79.6006125,105.90947 C79.4397979,105.84471 79.2857262,105.764324 79.1406125,105.66947 C78.7474058,105.466548 78.3310297,105.312086 77.9006125,105.20947 C77.2915312,105.066776 76.6629804,105.026224 76.0406125,105.08947 L75.8806125,105.08947 C76.0461407,104.841638 76.1773335,104.572524 76.2706125,104.28947 C76.5555754,103.453076 76.5555754,102.545865 76.2706125,101.70947 C76.0484611,101.032007 75.6518292,100.424988 75.1206125,99.9494703 C75.0606125,99.8794703 75.0006125,99.7994703 74.9306125,99.7294703 L74.7406125,99.5494703 L74.3606125,99.2194703 C74.4806125,99.3394703 74.3606125,99.3294703 74.3106125,99.2194703 C73.8806125,98.8794703 73.8506125,98.8794703 73.8306125,98.8794703 C73.8106125,98.8794703 73.8306125,98.8794703 73.7306125,98.8794703 C73.6306125,98.8794703 73.5406125,98.7594703 73.2906125,98.6494703 C72.8331972,98.4349735 72.3487706,98.2835902 71.8506125,98.1994703 C71.1896536,98.0760988 70.5115715,98.0760988 69.8506125,98.1994703 L69.8506125,98.1394703 C70.2454231,97.2850085 70.3302845,96.3197107 70.0906125,95.4094703 C69.9790865,95.0107431 69.8106895,94.630166 69.5906125,94.2794703 C69.404508,93.9865609 69.1828183,93.7178461 68.9306125,93.4794703 C68.6753662,93.2010947 68.4013946,92.9404876 68.1106125,92.6994703 C68.2406125,92.8294703 68.1706125,92.8194703 68.1106125,92.6994703 C67.6406125,92.3294703 67.6106125,92.3394703 67.5906125,92.3394703 C67.5706125,92.3394703 67.5906125,92.3394703 67.4906125,92.3394703 C67.3906125,92.3394703 67.2806125,92.2194703 67.0106125,92.0894703 C66.5192493,91.8746409 66.0013025,91.7266561 65.4706125,91.6494703 C64.7076669,91.5463516 63.9316787,91.6008069 63.1906125,91.8094703 C62.8072523,91.9193548 62.4380732,92.0737388 62.0906125,92.2694703 C61.9233205,92.3610501 61.7628988,92.4646558 61.6106125,92.5794703 L61.3906125,92.7494703 L61.2506125,92.8694703 C61.4566461,92.2232188 61.4978959,91.5357208 61.3706125,90.8694703 C61.2575175,90.2517889 61.0005861,89.6694111 60.6206125,89.1694703 C60.4321016,88.8608459 60.1958331,88.5840742 59.9206125,88.3494703 C60.0506125,88.4894703 59.9806125,88.4694703 59.9206125,88.3494703 C59.5306125,88.0394703 59.5106125,88.0394703 59.4906125,88.0394703 C59.4706125,88.0394703 59.4906125,88.0394703 59.0206125,87.7994703 C58.6254999,87.6033563 58.2095408,87.4524034 57.7806125,87.3494703 C56.5336978,87.0603222 55.2249406,87.2159582 54.0806125,87.7894703 C53.7207573,87.982416 53.3850758,88.2173931 53.0806125,88.4894703 C52.7906125,88.8294703 52.3406125,89.1694703 52.0806125,89.4894703 L52.0806125,89.4894703 C51.7406125,89.8294703 49.7206125,91.5594703 49.3306125,91.9494703 L49.3906125,91.9494703 C49.0606125,92.3094703 49.0706125,92.1994703 48.7706125,92.4494703 C48.8606125,92.4494703 48.5306125,92.8294703 48.4206125,92.9894703 L48.4206125,92.9894703 C48.1431249,93.3685488 47.9302518,93.7909162 47.7906125,94.2394703 L47.7906125,94.2394703 C47.754726,94.3504344 47.7279702,94.4641464 47.7106125,94.5794703 C47.7106125,94.6994703 47.6506125,94.8394703 47.6306125,94.9694703 C47.6152631,95.1925399 47.6152631,95.4164007 47.6306125,95.6394703 C47.6290117,96.035738 47.6863041,96.4300441 47.8006125,96.8094703 C47.9328706,97.2386355 48.1505688,97.6366151 48.4406125,97.9794703 C48.5306125,98.1394703 48.6206125,98.3194703 48.7206125,98.4694703 L48.7906125,98.5194703 L49.0306125,98.4494703 C49.1059052,98.4168606 49.1793492,98.3801386 49.2506125,98.3394703 C49.2907783,98.3221538 49.3279145,98.2985217 49.3606125,98.2694703 L49.4206125,98.2694703 L49.4206125,98.2694703 L49.4206125,98.2694703 L49.4906125,98.1794703 L49.7606125,97.8294703 C49.8354836,97.6642221 49.8354836,97.4747185 49.7606125,97.3094703 L49.7606125,97.3094703 L49.6606125,97.1994703 C49.5606125,97.0594703 49.5006125,97.0194703 49.5306125,97.0094703 C49.5683285,97.0759252 49.6154863,97.1365567 49.6706125,97.1894703 C49.5606125,97.0594703 49.6706125,97.1294703 49.6706125,97.1894703 C49.6262584,97.1418516 49.5891907,97.0879349 49.5606125,97.0294703 C49.5606125,97.0294703 49.5606125,97.0294703 49.5606125,97.0294703 C49.5606125,97.0294703 49.3906125,96.8894703 49.3606125,96.7794703 C49.3306125,96.6694703 49.3606125,96.7794703 49.3606125,96.5694703 C49.1659932,96.1182869 49.1272874,95.6151109 49.2506125,95.1394703 C49.385943,94.657294 49.6607932,94.2258836 50.0406125,93.8994703 C50.0406125,93.8994703 50.0406125,93.8994703 50.0406125,93.8994703 C50.3406125,93.6094703 50.6406125,93.3494703 50.9106125,93.0794703 C50.9617179,93.0444265 51.0196489,93.0205725 51.0806125,93.0094703 C51.3229904,92.7514951 51.5800864,92.5077547 51.8506125,92.2794703 L52.4206125,91.7594703 L52.6906125,91.5194703 L52.6906125,91.4494703 C53.0006125,91.1594703 52.8306125,91.4494703 53.1106125,91.1494703 C53.1606125,90.9694703 53.6006125,90.7194703 53.6706125,90.5894703 C53.7406125,90.4594703 53.8106125,90.4694703 53.8306125,90.5094703 C53.8506125,90.5494703 53.9606125,90.3594703 54.0506125,90.2694703 C54.1406125,90.1794703 54.0506125,90.2694703 53.9806125,90.2694703 L54.1706125,90.0694703 C54.2606125,90.0094703 54.3006125,90.0694703 54.2206125,90.0694703 L54.3406125,89.9694703 L54.4806125,89.8694703 C54.5921516,89.7745691 54.7127287,89.690835 54.8406125,89.6194703 C55.1751892,89.4396908 55.5364491,89.3147692 55.9106125,89.2494703 C56.5482538,89.1479855 57.2011157,89.2063995 57.8106125,89.4194703 C57.7606125,89.3494703 57.5706125,89.3294703 57.5206125,89.2494703 C57.6906125,89.2494703 57.7406125,89.3194703 57.8206125,89.3194703 C57.9006125,89.3194703 57.9106125,89.4094703 58.0006125,89.4494703 C58.0906125,89.4894703 58.1706125,89.5494703 58.2006125,89.6194703 L58.2606125,89.6194703 L58.3106125,89.6894703 L58.4906125,89.7794703 L58.5906125,89.8394703 L58.6606125,89.8394703 L58.9106125,90.0794703 C59.1406125,90.3194703 59.2906125,90.4094703 59.3506125,90.5894703 C59.3506125,90.5894703 59.3506125,90.4794703 59.3506125,90.5894703 C59.3506125,90.6994703 59.4906125,90.7794703 59.4606125,90.8394703 C59.4306125,90.8994703 59.5706125,91.1794703 59.6106125,91.0694703 C59.6106125,91.1194703 59.6106125,91.3594703 59.6106125,91.2294703 C59.5992301,91.2990076 59.5992301,91.369933 59.6106125,91.4394703 L59.6106125,91.3394703 C59.6237164,91.44908 59.6237164,91.5598605 59.6106125,91.6694703 C59.5956779,91.7554935 59.5956779,91.843447 59.6106125,91.9294703 C59.6122802,91.8961578 59.6122802,91.8627827 59.6106125,91.8294703 C59.616788,91.9060126 59.616788,91.982928 59.6106125,92.0594703 C59.605993,92.1130127 59.5763283,92.1612179 59.5306125,92.1894703 C59.5354379,92.1329063 59.5354379,92.0760342 59.5306125,92.0194703 C59.4957401,92.2360686 59.4456154,92.4499338 59.3806125,92.6594703 C59.3861332,92.6364635 59.3861332,92.6124771 59.3806125,92.5894703 C59.2855056,92.9686047 59.0883743,93.3144491 58.8106125,93.5894703 C58.3806125,94.0194703 57.9206125,94.4794703 57.8106125,94.5894703 L57.9806125,94.5094703 L57.7606125,94.7594703 C57.7606125,94.7594703 57.7606125,94.5294703 57.7606125,94.5294703 L56.0806125,96.0794703 L54.9706125,97.0794703 L54.5606125,97.4294703 C54.4855006,97.4973731 54.4013729,97.55458 54.3106125,97.5994703 C54.1206125,97.6894703 54.2406125,97.5494703 54.2306125,97.5494703 C54.0406125,97.6994703 54.1706125,97.6494703 53.9806125,97.7494703 C53.7906125,97.8494703 53.9806125,97.7494703 53.9806125,97.6894703 C53.9806125,97.6294703 53.8106125,97.7694703 53.8206125,97.7894703 C53.8306125,97.8094703 53.9106125,97.7894703 53.9806125,97.7894703 L53.7106125,97.9094703 L53.7106125,97.9094703 C53.6714185,97.9435193 53.6346615,97.9802762 53.6006125,98.0194703 C53.516471,98.0782035 53.4211721,98.1190458 53.3206125,98.1394703 C52.8346541,98.2657557 52.3298477,98.3030233 51.8306125,98.2494703 C51.8306125,98.2494703 51.9406125,98.2494703 52.0406125,98.2494703 C51.967975,98.2637566 51.8932501,98.2637566 51.8206125,98.2494703 C51.9306125,98.3094703 51.6206125,98.2494703 51.7006125,98.2494703 C51.321663,98.2271105 50.9494711,98.1391378 50.6006125,97.9894703 C50.3821945,98.1835348 50.1442576,98.3544473 49.8906125,98.4994703 C49.7190807,98.6022152 49.5421597,98.6956829 49.3606125,98.7794703 L49.0806125,98.9194703 C48.9929291,98.8548186 48.9094286,98.7846782 48.8306125,98.7094703 C48.9319107,98.8299892 49.0538024,98.9315656 49.1906125,99.0094703 L49.1906125,99.0094703 C49.4906125,99.1794703 49.1906125,99.0794703 49.5206125,99.2594703 C49.5206125,99.2594703 49.2406125,99.1594703 49.0206125,98.9994703 C49.164688,99.1354392 49.33476,99.2408838 49.5206125,99.3094703 C49.7106125,99.4394703 49.5206125,99.3094703 49.7106125,99.4894703 C49.9006125,99.6694703 50.1506125,99.6294703 50.3506125,99.7394703 L50.3506125,99.7394703 C50.7740395,99.8847433 51.2142507,99.9754738 51.6606125,100.00947 L51.6006125,100.00947 C51.8802687,100.029094 52.1609564,100.029094 52.4406125,100.00947 C52.3506125,100.00947 52.2706125,100.00947 52.4406125,100.00947 C52.8006125,100.00947 53.0406125,99.9494703 53.3106125,99.9394703 L53.5506125,99.8394703 C53.7101734,99.8031364 53.8671775,99.7563692 54.0206125,99.6994703 C53.8781248,99.9450103 53.7576545,100.202683 53.6606125,100.46947 L53.6606125,100.46947 C53.5651984,100.75956 53.4949389,101.057326 53.4506125,101.35947 C53.4370014,101.515841 53.4370014,101.673099 53.4506125,101.82947 C53.4397868,101.945886 53.4397868,102.063055 53.4506125,102.17947 C53.462982,102.662791 53.5717774,103.138771 53.7706125,103.57947 C53.9982704,104.081881 54.3408118,104.523759 54.7706125,104.86947 L55.1506125,105.33947 L55.2206125,105.33947 C55.2206125,105.33947 56.7806125,104.88947 56.0906125,103.92947 L56.0906125,103.92947 L55.9206125,103.78947 C55.7706125,103.61947 55.6706125,103.58947 55.7106125,103.56947 L55.9206125,103.77947 C55.7706125,103.61947 55.9206125,103.69947 55.9206125,103.77947 C55.8406125,103.70947 55.8006125,103.64947 55.7506125,103.59947 C55.7006125,103.54947 55.7506125,103.59947 55.7506125,103.65947 C55.6343614,103.585229 55.5326851,103.490331 55.4506125,103.37947 C55.3306125,103.20947 55.4506125,103.37947 55.3606125,103.13947 C55.0401948,102.626622 54.9460942,102.004111 55.1006125,101.41947 C55.1754297,101.131129 55.3043861,100.859642 55.4806125,100.61947 C55.5732749,100.496849 55.6770476,100.383034 55.7906125,100.27947 L55.8706125,100.18947 L56.0006125,100.07947 L56.2406125,99.8594703 C56.2406125,99.8594703 56.2406125,99.8594703 56.2406125,99.9194703 L57.3106125,98.9194703 C57.3708247,98.8768066 57.4387485,98.8462409 57.5106125,98.8294703 C57.8083386,98.5167422 58.1220939,98.219676 58.4506125,97.9394703 L59.1506125,97.3094703 L59.4806125,97.0094703 L59.4806125,96.9394703 C59.8606125,96.5894703 59.6406125,96.9394703 59.9906125,96.5694703 C60.0606125,96.3694703 60.5806125,96.0394703 60.6706125,95.8894703 C60.6706125,95.8894703 60.8506125,95.7494703 60.8606125,95.7794703 C60.8706125,95.8094703 61.0306125,95.6094703 61.1306125,95.4994703 C61.2306125,95.3894703 61.1306125,95.4994703 61.0506125,95.4994703 L61.2906125,95.2594703 C61.4006125,95.1894703 61.4406125,95.1894703 61.2906125,95.2594703 L62.1906125,94.4794703 C62.2892497,94.3842163 62.3927196,94.2940973 62.5006125,94.2094703 C62.5906125,94.1494703 62.6606125,94.0694703 62.7606125,94.0094703 C62.8604339,93.943616 62.9639358,93.8835181 63.0706125,93.8294703 C63.1768691,93.7716133 63.2871543,93.7214837 63.4006125,93.6794703 C63.8412135,93.5135491 64.3100155,93.4354154 64.7806125,93.4494703 C65.0948295,93.4616697 65.4067297,93.5086225 65.7106125,93.5894703 C65.651713,93.5533024 65.5876436,93.5263258 65.5206125,93.5094703 C65.4506734,93.496063 65.3852918,93.4650927 65.3306125,93.4194703 C65.4070931,93.4119164 65.4841319,93.4119164 65.5606125,93.4194703 C65.6063268,93.4328036 65.6548982,93.4328036 65.7006125,93.4194703 C65.7006125,93.5294703 66.1106125,93.5794703 66.1906125,93.7394703 L66.2606125,93.7394703 L66.3306125,93.8194703 C66.482822,93.8824128 66.6271379,93.9629612 66.7606125,94.0594703 L67.1606125,94.4194703 L67.4506125,94.6394703 L67.6306125,94.7794703 C67.7277113,94.8445135 67.809585,94.9297986 67.8706125,95.0294703 C67.8706125,95.0294703 67.8706125,94.9094703 67.8706125,95.0294703 C67.8706125,95.1494703 68.0706125,95.2394703 68.0506125,95.3094703 C68.0306125,95.3794703 68.2306125,95.7094703 68.2506125,95.5794703 C68.2506125,95.6394703 68.3206125,95.9294703 68.2506125,95.7694703 C68.2506125,95.8694703 68.2506125,95.9594703 68.3206125,96.0294703 C68.3259471,95.9863011 68.3259471,95.9426394 68.3206125,95.8994703 C68.3612512,96.1410688 68.387962,96.3848045 68.4006125,96.6294703 L68.4006125,96.4994703 L68.4006125,96.6494703 C68.3966025,96.6893698 68.3966025,96.7295708 68.4006125,96.7694703 C68.3944857,96.8358722 68.3620845,96.8970746 68.3106125,96.9394703 C68.3150619,96.8728778 68.3150619,96.8060627 68.3106125,96.7394703 C68.2733677,97.0051027 68.1993237,97.2642568 68.0906125,97.5094703 L68.0906125,97.4194703 C68.0744282,97.4884279 68.0509632,97.5554708 68.0206125,97.6194703 C68.0206125,97.6894703 67.9306125,97.7894703 67.8606125,97.8894703 L67.7506125,98.0494703 L67.6106125,98.1994703 L67.5306125,98.2794703 L67.4306125,98.3794703 L67.2306125,98.5894703 C66.6706125,99.1294703 66.1206125,99.6594703 65.9806125,99.8494703 L66.1706125,99.7394703 L65.9106125,100.03947 C65.9106125,100.03947 65.9106125,99.7894703 65.9806125,99.7794703 C65.3506125,100.34947 62.1006125,103.32947 61.4906125,103.77947 C61.2406125,103.96947 61.4006125,103.77947 61.4006125,103.77947 C61.1206125,104.05947 61.3106125,103.93947 61.0606125,104.14947 C60.9906125,104.14947 61.0606125,104.14947 61.0606125,104.06947 L60.9206125,104.19947 C60.9206125,104.19947 60.8606125,104.19947 60.8706125,104.25947 C60.909435,104.245744 60.95179,104.245744 60.9906125,104.25947 C61.0161176,104.270602 61.0451075,104.270602 61.0706125,104.25947 L60.7906125,104.48947 L60.7906125,104.48947 C60.7509272,104.533684 60.7141819,104.580451 60.6806125,104.62947 C60.6037713,104.725806 60.504089,104.801427 60.3906125,104.84947 C59.8453137,105.127575 59.2427166,105.274801 58.6306125,105.27947 C58.7132502,105.244873 58.8011707,105.224583 58.8906125,105.21947 L58.6106125,105.21947 C58.7606125,105.21947 58.3706125,105.21947 58.4806125,105.21947 C58.014371,105.24428 57.5480161,105.172795 57.1106125,105.00947 C56.8745825,105.205947 56.6161162,105.373783 56.3406125,105.50947 C55.9506125,105.71947 55.4906125,105.86947 55.4606125,105.89947 L55.1506125,105.64947 C55.2843341,105.788512 55.4356083,105.909532 55.6006125,106.00947 L55.6006125,106.00947 C55.9706125,106.19947 55.6606125,106.09947 56.0206125,106.28947 C56.0206125,106.28947 55.6806125,106.16947 55.4106125,105.97947 C55.5898743,106.141446 55.8010754,106.264079 56.0306125,106.33947 C56.2706125,106.47947 55.9706125,106.33947 56.2706125,106.54947 C56.5706125,106.75947 56.8106125,106.69947 57.0706125,106.78947 L57.0706125,106.78947 C57.3336605,106.883712 57.6111969,106.931096 57.8906125,106.92947 C58.1406125,106.92947 58.3806125,106.92947 58.6806125,106.92947 L58.6106125,106.92947 C58.7604674,106.938802 58.9107577,106.938802 59.0606125,106.92947 L59.6306125,106.84947 C59.5206125,106.84947 59.4206125,106.84947 59.6306125,106.84947 C59.8246034,106.826002 60.0156297,106.782435 60.2006125,106.71947 L60.4706125,106.62947 C60.4323283,106.851263 60.4056254,107.074899 60.3906125,107.29947 C60.3684149,107.555657 60.3684149,107.813284 60.3906125,108.06947 C60.4501183,108.516468 60.5782954,108.951595 60.7706125,109.35947 C60.994713,109.816287 61.315454,110.21892 61.7106125,110.53947 L62.0506125,110.97947 L62.1206125,110.97947 C62.1206125,110.97947 63.6406125,110.49947 63.0006125,109.58947 L63.0006125,109.58947 L62.8406125,109.44947 C62.6806125,109.28947 62.6006125,109.26947 62.6306125,109.24947 C62.6606125,109.22947 62.7506125,109.36947 62.8406125,109.43947 C62.7406125,109.35947 62.7606125,109.34947 62.7706125,109.34947 L62.7706125,109.34947 L62.8406125,109.34947 L62.7406125,109.24947 L62.6706125,109.15947 C62.6706125,109.15947 62.6706125,109.15947 62.6706125,109.21947 L62.5106125,109.11947 C62.459742,109.076535 62.4158813,109.025927 62.3806125,108.96947 C62.2506125,108.81947 62.3806125,108.96947 62.2906125,108.73947 C61.8199315,108.025666 61.7966533,107.106177 62.2306125,106.36947 C62.3851172,106.115273 62.5773054,105.885995 62.8006125,105.68947 C62.8006125,105.68947 62.8006125,105.68947 62.8006125,105.68947 L63.8006125,104.74947 C63.8532343,104.706552 63.9147052,104.675817 63.9806125,104.65947 C63.9806125,104.65947 64.4006125,104.24947 64.8706125,103.82947 L65.5206125,103.23947 L65.8306125,102.95947 L65.8306125,102.88947 C66.1906125,102.55947 65.9906125,102.88947 66.3106125,102.53947 C66.3706125,102.34947 66.8706125,102.04947 66.9506125,101.90947 C67.0306125,101.76947 67.1206125,101.76947 67.1306125,101.79947 C67.1406125,101.82947 67.2906125,101.63947 67.3806125,101.53947 C67.4706125,101.43947 67.3806125,101.53947 67.3006125,101.53947 L67.5306125,101.31947 C67.6306125,101.24947 67.6806125,101.24947 67.5306125,101.31947 L68.3706125,100.58947 C68.6978539,100.313311 69.0794113,100.108905 69.4906125,99.9894703 C69.9140807,99.8581029 70.3584102,99.8072255 70.8006125,99.8394703 C71.0948998,99.8602438 71.3863599,99.9104956 71.6706125,99.9894703 C71.5906125,99.9294703 71.3806125,99.8894703 71.3206125,99.8194703 C71.5106125,99.8194703 71.5706125,99.9094703 71.6606125,99.8894703 C71.7506125,99.8694703 72.0406125,100.04947 72.1106125,100.19947 L72.1806125,100.19947 L72.2506125,100.25947 C72.3919351,100.325331 72.5259952,100.405767 72.6506125,100.49947 L73.0206125,100.82947 L73.3006125,101.04947 L73.4706125,101.16947 C73.7080217,101.192085 73.9270658,101.306993 74.0806125,101.48947 C74.0806125,101.48947 74.0806125,101.36947 74.0806125,101.48947 C74.0806125,101.60947 74.2706125,101.68947 74.2606125,101.75947 C74.2506125,101.82947 74.4506125,102.11947 74.4706125,101.99947 C74.4706125,102.05947 74.5506125,102.31947 74.4706125,102.17947 C74.4927163,102.26092 74.5194259,102.341049 74.5506125,102.41947 L74.5506125,102.29947 C74.6606125,102.59947 74.6106125,102.76947 74.6806125,102.96947 C74.6806125,102.96947 74.6806125,102.89947 74.6806125,102.85947 C74.6806125,103.04947 74.6806125,103.20947 74.6006125,103.26947 C74.610704,103.206539 74.610704,103.142402 74.6006125,103.07947 C74.5917196,103.330963 74.547969,103.580005 74.4706125,103.81947 L74.4706125,103.73947 C74.3630464,104.152476 74.1412296,104.526791 73.8306125,104.81947 C73.3206125,105.32947 72.8306125,105.81947 72.6706125,106.00947 L72.8506125,105.90947 L72.6006125,106.18947 C72.6006125,106.18947 72.6006125,105.94947 72.6706125,105.93947 C72.0806125,106.46947 69.0306125,109.26947 68.4606125,109.73947 C68.2206125,109.90947 68.3706125,109.73947 68.3706125,109.73947 C68.3072203,109.7936 68.2531651,109.857791 68.2106125,109.92947 L68.0906125,110.04947 C68.0306125,110.04947 68.0906125,110.04947 68.0906125,109.97947 C68.0906125,109.90947 67.9206125,110.09947 67.9306125,110.11947 C67.9406125,110.13947 68.0406125,110.11947 68.1106125,110.11947 C68.024557,110.185186 67.9343716,110.24531 67.8406125,110.29947 L67.8406125,110.29947 C67.7369867,110.440463 67.5945084,110.54819 67.4306125,110.60947 C66.904568,110.837817 66.3335634,110.943812 65.7606125,110.91947 C65.8405138,110.913849 65.9207113,110.913849 66.0006125,110.91947 C65.9179744,110.934693 65.8332507,110.934693 65.7506125,110.91947 C65.8806125,110.91947 65.5106125,110.91947 65.6206125,110.91947 C65.1829345,110.928201 64.7478719,110.850026 64.3406125,110.68947 C64.1113927,110.885379 63.8596124,111.053232 63.5906125,111.18947 C63.2106125,111.39947 62.7706125,111.55947 62.7406125,111.58947 C62.6381871,111.516695 62.5412585,111.436479 62.4506125,111.34947 C62.5666368,111.485612 62.7053511,111.600644 62.8606125,111.68947 L62.9206125,111.68947 C63.2606125,111.87947 62.9206125,111.76947 63.3006125,111.95947 C63.3006125,112.00947 62.9906125,111.84947 62.7306125,111.66947 C62.9019228,111.81925 63.0982486,111.937722 63.3106125,112.01947 C63.5306125,112.14947 63.3106125,112.01947 63.5306125,112.20947 C63.651415,112.25689 63.7749737,112.296963 63.9006125,112.32947 L64.2806125,112.45947 L64.2806125,112.45947 C64.7677507,112.603106 65.2727448,112.677172 65.7806125,112.67947 L65.7206125,112.67947 C66.0529851,112.715262 66.38824,112.715262 66.7206125,112.67947 C66.6106125,112.67947 66.5206125,112.67947 66.7206125,112.67947 C67.0586954,112.63926 67.3930704,112.572385 67.7206125,112.47947 C67.8147003,112.437211 67.9050255,112.387031 67.9906125,112.32947 L68.2906125,112.20947 L68.2906125,112.53947 L68.2906125,112.53947 C68.2906125,112.73947 68.2906125,113.02947 68.2906125,113.29947 C68.3151783,113.519471 68.3586728,113.736944 68.4206125,113.94947 C68.5126847,114.330993 68.6574062,114.697845 68.8506125,115.03947 C69.0791852,115.424643 69.3776265,115.763781 69.7306125,116.03947 L70.0006125,116.41947 L70.0606125,116.41947 C70.0606125,116.41947 71.5006125,115.85947 70.9706125,115.03947 L70.9706125,115.03947 L70.8206125,114.91947 L70.7206125,114.81947 L70.6506125,114.81947 C70.6506125,114.81947 70.6506125,114.81947 70.6506125,114.81947 L70.7306125,114.89947 L70.8406125,114.99947 C70.6806125,114.84947 70.8406125,114.92947 70.8406125,114.99947 C70.7816982,114.948328 70.7280935,114.891373 70.6806125,114.82947 C70.6806125,114.82947 70.6806125,114.82947 70.6806125,114.82947 C70.583528,114.777569 70.4956797,114.709994 70.4206125,114.62947 C70.3106125,114.48947 70.4206125,114.56947 70.3306125,114.41947 C69.7272769,113.613175 69.7272769,112.505765 70.3306125,111.69947 C70.3306125,111.69947 70.3306125,111.69947 70.3306125,111.69947 C70.5202085,111.436351 70.7381874,111.194897 70.9806125,110.97947 C71.0317179,110.944426 71.0896489,110.920573 71.1506125,110.90947 C71.1506125,110.90947 71.5106125,110.55947 71.9206125,110.17947 L72.4906125,109.66947 L72.7606125,109.42947 L72.7606125,109.35947 C73.0806125,109.06947 72.9106125,109.35947 73.1906125,109.05947 C73.1906125,108.87947 73.6806125,108.62947 73.7406125,108.49947 C73.8006125,108.36947 73.8906125,108.38947 73.9006125,108.41947 C73.9106125,108.44947 74.0406125,108.27947 74.1206125,108.18947 C74.2006125,108.09947 74.1206125,108.18947 74.0506125,108.18947 L74.2406125,107.98947 C74.3306125,107.92947 74.3706125,107.92947 74.2406125,107.98947 L74.3606125,107.87947 L74.5006125,107.77947 C74.6150606,107.69144 74.7353354,107.611257 74.8606125,107.53947 C75.1944708,107.358057 75.5560045,107.23304 75.9306125,107.16947 C76.3116158,107.109698 76.6996093,107.109698 77.0806125,107.16947 C77.3362533,107.207981 77.5874704,107.271623 77.8306125,107.35947 C77.7706125,107.27947 77.5906125,107.25947 77.5306125,107.17947 C77.7006125,107.17947 77.7606125,107.25947 77.8406125,107.24947 C77.9206125,107.23947 77.9306125,107.33947 78.0106125,107.37947 C78.0906125,107.41947 78.1806125,107.47947 78.2106125,107.54947 L78.2706125,107.54947 L78.3206125,107.61947 L78.5006125,107.70947 L78.6006125,107.77947 L78.6706125,107.77947 L78.9906125,108.06947 C79.0702862,108.13748 79.1537536,108.200915 79.2406125,108.25947 L79.4206125,108.37947 C79.5006125,108.44947 79.5906125,108.48947 79.6306125,108.57947 C79.6706125,108.66947 79.6306125,108.47947 79.6306125,108.57947 C79.6306125,108.67947 79.8206125,108.72947 79.7906125,108.79947 C79.7606125,108.86947 79.8706125,108.90947 79.9206125,108.95947 C79.9706125,109.00947 79.9906125,109.04947 80.0006125,108.95947 C80.0106125,108.86947 80.1006125,109.23947 80.0006125,109.12947 C80.0269319,109.197733 80.0569771,109.2645 80.0906125,109.32947 L80.0906125,109.21947 C80.2106125,109.46947 80.1806125,109.62947 80.2806125,109.79947 L80.2806125,109.48947 C80.3394268,109.605792 80.3394268,109.743149 80.2806125,109.85947 L80.2806125,109.69947 C80.2953921,109.915885 80.2953921,110.133056 80.2806125,110.34947 L80.2806125,110.26947 C80.2678903,110.62588 80.1571683,110.971887 79.9606125,111.26947 C79.8997657,111.37323 79.8329883,111.473396 79.7606125,111.56947 C79.6806125,111.65947 79.6206125,111.73947 79.5306125,111.82947 C79.4406125,111.91947 79.2106125,112.16947 79.1506125,112.24947 L79.3106125,112.16947 L79.1006125,112.41947 C79.1006125,112.41947 79.1006125,112.18947 79.1006125,112.17947 L77.2706125,113.85947 L76.1506125,114.85947 L75.9206125,115.06947 L75.7406125,115.20947 L75.5006125,115.37947 C75.3106125,115.46947 75.4206125,115.37947 75.4206125,115.31947 C75.2306125,115.47947 75.3606125,115.41947 75.1706125,115.52947 C74.9806125,115.63947 75.1706125,115.52947 75.1706125,115.45947 C75.1706125,115.38947 75.0006125,115.53947 75.0106125,115.55947 C75.0206125,115.57947 75.1006125,115.55947 75.1606125,115.55947 C75.0768343,115.605453 74.9899578,115.64555 74.9006125,115.67947 L74.9006125,115.67947 C74.9006125,115.67947 74.8406125,115.67947 74.7906125,115.77947 C74.7052676,115.838265 74.6106018,115.882217 74.5106125,115.90947 C74.023272,116.02746 73.519349,116.06128 73.0206125,116.00947 C73.0206125,116.00947 73.1306125,116.00947 73.2306125,116.00947 C73.1575888,116.019001 73.0836362,116.019001 73.0106125,116.00947 C73.1306125,116.06947 72.8106125,116.00947 72.9006125,116.00947 C72.5213308,115.989401 72.1487425,115.901335 71.8006125,115.74947 C71.5792894,115.939873 71.341715,116.110525 71.0906125,116.25947 L70.5606125,116.53947 C70.4618223,116.574316 70.3677632,116.621346 70.2806125,116.67947 C70.1932655,116.614393 70.1097902,116.544273 70.0306125,116.46947 C70.1304122,116.587616 70.2485928,116.688914 70.3806125,116.76947 L70.3806125,116.76947 C70.6806125,116.93947 70.3806125,116.83947 70.7206125,117.00947 C70.7206125,117.05947 70.4406125,116.91947 70.2206125,116.75947 C70.3629921,116.892706 70.5292336,116.997879 70.7106125,117.06947 C70.9106125,117.18947 70.7106125,117.06947 70.9006125,117.24947 C71.0906125,117.42947 71.3406125,117.38947 71.5406125,117.48947 L71.5406125,117.48947 C71.9619245,117.629894 72.3982274,117.72051 72.8406125,117.75947 L72.7806125,117.75947 C73.0602687,117.779094 73.3409564,117.779094 73.6206125,117.75947 C73.5206125,117.75947 73.4506125,117.75947 73.6206125,117.75947 C73.9806125,117.75947 74.2206125,117.69947 74.4906125,117.68947 L74.7306125,117.58947 C75.2309601,117.470324 75.7099282,117.274689 76.1506125,117.00947 L76.5906125,116.71947 L76.8006125,116.53947 L77.0106125,116.36947 L77.7006125,115.72947 L79.9706125,113.63947 L80.0806125,113.62947 Z" id="Path" fill="#373735"></path>
                <path d="M67.9406125,50.6194703 C67.9459967,50.6806346 67.9791777,50.7359363 68.0306125,50.7694703 C68.0806125,50.7094703 67.9806125,50.6694703 67.9406125,50.6194703 Z" id="Path" fill="#373735"></path>
                <path d="M57.7906125,43.8394703 L57.7906125,43.8394703 C57.8806125,43.8994703 57.7906125,43.8394703 57.8606125,43.9494703 C57.9306125,44.0594703 57.7606125,43.9494703 57.7006125,43.8794703 C57.6406125,43.8094703 57.7806125,43.9994703 57.8306125,43.9894703 C57.8806125,43.9794703 57.8306125,43.9894703 57.8306125,44.0894703 C57.8306125,44.1894703 57.9706125,44.0894703 58.0006125,44.1994703 L58.0006125,44.1994703 C58.0806125,44.3394703 58.2206125,44.3094703 58.3006125,44.4394703 L58.3006125,44.4394703 C58.3006125,44.4994703 58.4206125,44.5394703 58.4706125,44.6194703 C58.5206125,44.6994703 58.4706125,44.5594703 58.4706125,44.6194703 C58.4706125,44.6794703 58.5906125,44.7394703 58.6306125,44.8194703 L58.7106125,44.8194703 C58.9706125,45.0694703 60.0706125,45.9994703 60.3506125,46.2394703 L60.3506125,46.2394703 C60.7706125,46.5994703 61.6106125,47.3694703 62.0806125,47.7194703 C62.0806125,47.8094703 62.2106125,47.8794703 62.2706125,47.9594703 C62.3306125,48.0394703 62.2706125,47.8994703 62.2706125,47.9594703 C62.4706125,48.1494703 62.2706125,47.9594703 62.5306125,48.1294703 C63.0045925,48.5371913 63.455302,48.9712079 63.8806125,49.4294703 C64.0406125,49.4894703 64.1506125,49.6594703 64.2906125,49.7294703 L64.2906125,49.7294703 C64.4306125,49.8294703 65.0806125,50.4994703 65.2306125,50.6194703 L65.2306125,50.6194703 C65.3806125,50.7094703 65.3206125,50.7394703 65.4006125,50.8494703 C65.4006125,50.7794703 65.5706125,50.8494703 65.6106125,50.8494703 L65.6106125,50.8494703 C65.6806125,50.8494703 65.8606125,50.9794703 65.9706125,51.0694703 L65.9706125,51.0694703 C66.0873186,51.1429924 66.194757,51.2302861 66.2906125,51.3294703 C66.4318126,51.5260177 66.6040651,51.6982702 66.8006125,51.8394703 L66.8006125,52.0294703 L66.8006125,52.0294703 C66.8006125,52.0294703 67.9106125,51.2094703 67.8606125,50.7694703 L67.8606125,50.7694703 L67.8606125,50.7694703 C67.8606125,50.6994703 67.7606125,50.7094703 67.7906125,50.6894703 L67.8706125,50.7594703 C67.8706125,50.6994703 67.8706125,50.7594703 67.8706125,50.7594703 C67.8675549,50.7328913 67.8675549,50.7060493 67.8706125,50.6794703 C67.8706125,50.6794703 67.8706125,50.6794703 67.8706125,50.6794703 C67.815821,50.6705715 67.7660964,50.6421574 67.7306125,50.5994703 C67.6706125,50.5994703 67.7306125,50.5994703 67.7306125,50.4894703 C67.4135045,50.1402972 67.0797856,49.8065783 66.7306125,49.4894703 C66.7306125,49.4894703 66.7306125,49.4894703 66.7306125,49.4894703 L66.4006125,49.2294703 C66.3838734,49.2054305 66.3838734,49.1735101 66.4006125,49.1494703 C66.1874412,48.9995572 65.9897917,48.8287076 65.8106125,48.6394703 L65.8106125,48.6894703 C65.7006125,48.5894703 65.8106125,48.5994703 65.7206125,48.5194703 C65.6306125,48.4394703 65.5506125,48.3594703 65.4806125,48.3694703 C65.4106125,48.3794703 65.4806125,48.3094703 65.4806125,48.2894703 C65.4806125,48.2694703 65.4206125,48.2894703 65.3806125,48.2394703 C65.3406125,48.1894703 65.3806125,48.2394703 65.3806125,48.2394703 L65.3006125,48.2394703 C65.3006125,48.2394703 65.3006125,48.1694703 65.3006125,48.2394703 C65.1306125,48.0494703 64.3006125,47.1894703 64.0406125,47.0294703 C64.0406125,47.0294703 64.1206125,47.1194703 64.1006125,47.1894703 C64.0806125,47.2594703 64.0306125,47.0994703 63.9806125,47.1094703 C63.9306125,47.1194703 63.8806125,46.9894703 63.9106125,46.8794703 L63.9106125,46.8794703 L63.9106125,46.8794703 C63.6406125,46.6994703 63.8406125,46.8794703 63.6406125,46.6494703 C63.4406125,46.4194703 63.4106125,46.5494703 63.3606125,46.4594703 C63.3106125,46.3694703 63.3606125,46.5194703 63.3606125,46.4594703 C63.3606125,46.3994703 63.2606125,46.4594703 63.2706125,46.3594703 C63.2806125,46.2594703 63.1406125,46.2394703 63.1306125,46.3594703 C63.1206125,46.4794703 63.0606125,46.2294703 63.1306125,46.2594703 C63.2006125,46.2894703 63.0806125,46.1994703 63.0506125,46.1894703 L63.0506125,46.1894703 C62.9406125,46.0994703 62.9206125,46.0094703 62.8106125,45.9994703 L62.8106125,45.9994703 C62.7506125,45.9994703 62.7006125,45.9094703 62.7206125,45.8394703 L62.7906125,45.8394703 C62.7117612,45.7616149 62.6205179,45.6974067 62.5206125,45.6494703 L62.5206125,45.6494703 C62.3706125,45.6494703 61.7806125,45.1394703 61.6306125,45.1094703 L61.6306125,45.1794703 L61.5206125,45.1794703 C61.5206125,45.1794703 61.6706125,45.0994703 61.6706125,45.1194703 C61.4806125,44.9494703 60.5206125,44.1194703 60.3806125,43.9494703 C60.2406125,43.7794703 60.3806125,43.8794703 60.4306125,43.8694703 C60.4806125,43.8594703 60.3606125,43.8694703 60.2906125,43.8094703 C60.2206125,43.7494703 60.2906125,43.8094703 60.2906125,43.8094703 C60.2906125,43.8094703 60.2906125,43.7494703 60.2206125,43.8094703 C60.1506125,43.8694703 60.2206125,43.8794703 60.2206125,43.9294703 L60.0806125,43.6494703 L60.0806125,43.6494703 C60.0806125,43.6494703 59.9606125,43.6494703 59.8806125,43.5894703 C59.8006125,43.5294703 59.5806125,43.2994703 59.4406125,43.1594703 C59.4406125,43.1594703 59.5006125,43.1594703 59.5406125,43.1594703 C59.5806125,43.1594703 59.4806125,43.1594703 59.4806125,43.0894703 C59.4806125,43.0194703 59.4006125,43.0894703 59.4106125,43.0894703 C59.2406125,43.0894703 59.1606125,42.8694703 59.0206125,42.8294703 C58.8806125,42.7894703 57.8106125,43.7294703 57.7406125,43.8294703 C57.6706125,43.9294703 57.6806125,43.7694703 57.6806125,43.7494703 C57.6806125,43.7294703 57.7506125,43.8194703 57.7906125,43.8394703 Z" id="Path" fill="#373735"></path>
                <path d="M88.5806125,51.9594703 C88.5196459,51.9584686 88.4612542,51.984015 88.4206125,52.0294703 C88.4806125,52.0394703 88.5306125,51.9894703 88.5806125,51.9594703 Z" id="Path" fill="#373735"></path>
                <path d="M88.4706125,51.9195256 L88.4706125,51.9195256 L88.4706125,51.9195256 C88.5406125,51.9195256 88.5406125,51.8194703 88.5606125,51.8494703 L88.4806125,51.9195256 C88.5406125,51.9195256 88.4806125,51.9195256 88.4806125,51.9195256 L88.5606125,51.9195256 C88.5606125,51.9195256 88.5606125,51.9195256 88.5606125,51.9195256 C88.5606125,51.9195256 88.5606125,51.8094703 88.6506125,51.7894703 C88.7406125,51.7694703 88.6506125,51.7894703 88.7706125,51.7894703 C89.1506125,51.4794703 89.5406125,51.1894703 89.9006125,50.7894703 C89.9006125,50.7894703 89.9006125,50.7894703 89.9006125,50.7894703 L90.1906125,50.4894703 C90.2184586,50.4733933 90.2527664,50.4733933 90.2806125,50.4894703 C90.4461355,50.2921851 90.6303237,50.1113457 90.8306125,49.9494703 L90.8306125,49.8894703 C90.9306125,49.7894703 90.9106125,49.8894703 91.0006125,49.8094703 C91.0906125,49.7294703 91.1806125,49.6694703 91.1806125,49.5894703 C91.1806125,49.5094703 91.2306125,49.5894703 91.2506125,49.5894703 C91.2706125,49.5894703 91.2506125,49.5894703 91.3106125,49.4994703 C91.3706125,49.4094703 91.3106125,49.4994703 91.3106125,49.4994703 L91.3706125,49.4194703 C91.3706125,49.4194703 91.4406125,49.4194703 91.3706125,49.4194703 C91.5706125,49.2594703 92.5006125,48.4194703 92.6806125,48.2694703 C92.6806125,48.2694703 92.5806125,48.3394703 92.5206125,48.2694703 C92.4606125,48.1994703 92.6006125,48.2094703 92.6006125,48.1594703 C92.6006125,48.1094703 92.7306125,48.0694703 92.8406125,48.1094703 L92.8406125,48.0494703 L92.8406125,48.0494703 C93.0306125,47.7894703 92.8406125,47.9794703 93.0906125,47.7994703 C93.3406125,47.6194703 93.2106125,47.5794703 93.2906125,47.5294703 C93.3706125,47.4794703 93.2306125,47.5294703 93.2906125,47.5294703 C93.3506125,47.5294703 93.3506125,47.4294703 93.3906125,47.4494703 C93.4306125,47.4694703 93.5206125,47.3394703 93.4506125,47.3194703 C93.3806125,47.2994703 93.5806125,47.2594703 93.5506125,47.3194703 L93.6306125,47.2394703 L93.6306125,47.2394703 C93.7206125,47.1394703 93.8106125,47.1294703 93.8306125,47.0294703 L93.8306125,47.0294703 C93.8906125,46.9694703 93.9306125,46.9194703 94.0006125,46.9494703 L94.0006125,47.0194703 C94.0874036,46.9490191 94.1617679,46.8645143 94.2206125,46.7694703 L94.2206125,46.7694703 C94.2806125,46.6294703 94.8006125,46.0794703 94.8406125,45.9294703 L94.7606125,45.9294703 L94.7606125,45.8194703 C94.7606125,45.8194703 94.8306125,45.9794703 94.7606125,45.9694703 C94.9406125,45.7994703 95.8506125,44.9194703 96.0406125,44.7894703 C96.2306125,44.6594703 96.1006125,44.7894703 96.1106125,44.7894703 C96.1206125,44.7894703 96.1106125,44.7194703 96.1806125,44.6594703 C96.2506125,44.5994703 96.1806125,44.6594703 96.1806125,44.7094703 C96.1806125,44.7594703 96.2406125,44.6594703 96.1806125,44.6394703 C96.1206125,44.6194703 96.1006125,44.6394703 96.0606125,44.5894703 L96.1506125,44.5094703 L96.1506125,44.5094703 C96.1506125,44.5094703 96.1506125,44.3894703 96.2306125,44.3194703 C96.3106125,44.2494703 96.5406125,44.0394703 96.7006125,43.9094703 C96.7006125,43.9094703 96.7006125,43.9694703 96.7006125,44.0094703 C96.7006125,44.0494703 96.7006125,44.0094703 96.7706125,44.0094703 C96.8406125,44.0094703 96.8206125,43.9294703 96.7706125,43.9394703 C96.7706125,43.7694703 97.0106125,43.7094703 97.0606125,43.5694703 C97.1106125,43.4294703 96.2606125,42.2894703 96.1906125,42.2094703 L96.2706125,42.2094703 C96.2706125,42.2094703 96.1806125,42.2094703 96.1606125,42.2794703 L96.1606125,42.2794703 C96.1006125,42.3594703 96.1606125,42.2794703 96.0506125,42.3394703 C95.9406125,42.3994703 96.0506125,42.2394703 96.1306125,42.1894703 C96.2106125,42.1394703 96.0006125,42.2494703 96.0206125,42.3094703 C96.0406125,42.3694703 96.0206125,42.3094703 95.9106125,42.3094703 C95.8006125,42.3094703 95.9106125,42.4394703 95.7906125,42.4594703 L95.7906125,42.4594703 C95.6406125,42.5294703 95.6606125,42.6694703 95.5206125,42.7294703 L95.5206125,42.7294703 C95.5206125,42.7294703 95.4206125,42.8394703 95.3306125,42.8794703 C95.2406125,42.9194703 95.4006125,42.8794703 95.3306125,42.8794703 C95.2606125,42.8794703 95.2006125,42.9994703 95.1206125,43.0194703 L95.1206125,43.0994703 C94.8406125,43.3394703 93.8306125,44.3594703 93.5706125,44.6094703 L93.5706125,44.6094703 C93.1806125,44.9994703 92.3306125,45.7694703 91.9506125,46.2094703 C91.855891,46.2472501 91.770568,46.3052698 91.7006125,46.3794703 C91.7006125,46.3794703 91.7006125,46.3794703 91.7006125,46.3794703 C91.4906125,46.5594703 91.7006125,46.3794703 91.5106125,46.6194703 C91.0674808,47.0623896 90.5965229,47.4765653 90.1006125,47.8594703 C90.0306125,48.0094703 89.8506125,48.1094703 89.7606125,48.2494703 L89.7606125,48.2494703 C89.6606125,48.3794703 88.9306125,48.9694703 88.7606125,49.1194703 L88.7606125,49.1194703 C88.6606125,49.2594703 88.6306125,49.1894703 88.5206125,49.2694703 C88.5806125,49.2694703 88.5206125,49.4394703 88.5206125,49.4794703 L88.5206125,49.4794703 C88.4470024,49.5971817 88.3668777,49.7106917 88.2806125,49.8194703 L88.2806125,49.8194703 C88.2057616,49.9324164 88.1108636,50.0307036 88.0006125,50.1094703 C87.7958739,50.2392017 87.6106772,50.3974608 87.4506125,50.5794703 L87.2506125,50.5794703 L87.2506125,50.5794703 C87.2506125,50.5794703 88.0806125,51.9294703 88.4706125,51.9195256 Z" id="Path" fill="#373735"></path>
                <path d="M78.5506125,51.1194703 C78.5239459,51.1972481 78.5239459,51.2816925 78.5506125,51.3594703 C78.5733906,51.2810916 78.5733906,51.1978489 78.5506125,51.1194703 L78.5506125,51.1194703 Z" id="Path" fill="#373735"></path>
                <polygon id="Path" fill="#373735" points="78.5506125 51.1094703 78.5506125 51.1094703 78.5506125 51.1194703"></polygon>
                <path d="M76.6106125,33.7594703 L76.6106125,33.7594703 C76.6106125,33.9894703 76.6806125,34.1094703 76.6106125,34.3294703 L76.6106125,34.3294703 C76.6106125,34.4094703 76.6106125,34.5594703 76.6106125,34.6894703 C76.6106125,34.6894703 76.6106125,34.6194703 76.6106125,34.6894703 C76.6176344,34.8160396 76.6176344,34.9429009 76.6106125,35.0694703 L76.6106125,35.1694703 C76.6106125,35.7094703 76.6606125,37.8494703 76.6706125,38.3894703 L76.6706125,38.3894703 C76.6706125,39.2194703 76.6706125,40.9194703 76.7506125,41.7794703 C76.7402474,41.9292912 76.7402474,42.0796493 76.7506125,42.2294703 C76.7506125,42.1494703 76.7506125,42.1794703 76.7506125,42.2294703 C76.7506125,42.6494703 76.7506125,42.2294703 76.7506125,42.6794703 C76.7506125,43.1294703 76.7506125,45.0494703 76.7506125,45.4794703 C76.8106125,45.7094703 76.7506125,46.0094703 76.8006125,46.2294703 L76.8006125,46.2294703 C76.8006125,46.4794703 76.8006125,47.8694703 76.8006125,48.1494703 L76.8006125,48.1494703 C76.8006125,48.3894703 76.8006125,48.3594703 76.7406125,48.5594703 C76.8206125,48.5594703 76.8606125,48.7394703 76.8606125,48.8294703 L76.8606125,48.8294703 C76.8606125,48.9594703 76.9306125,49.2294703 76.9406125,49.4394703 L76.9406125,49.4394703 C76.9596193,49.6423594 76.9596193,49.8465811 76.9406125,50.0494703 C76.9041017,50.4052026 76.9041017,50.763738 76.9406125,51.1194703 L76.8306125,51.3594703 L76.8306125,51.3594703 C76.8306125,51.3594703 78.1806125,51.7494703 78.4706125,51.2594703 L78.4706125,51.2594703 L78.4706125,51.1694703 C78.4706125,51.0494703 78.4706125,50.9994703 78.4706125,50.9994703 L78.4706125,51.1594703 C78.4706125,51.0494703 78.4706125,51.1594703 78.4706125,51.1594703 C78.4706125,51.1594703 78.4706125,51.0694703 78.4706125,51.0294703 C78.4706125,50.9894703 78.4706125,51.0294703 78.4706125,51.0294703 C78.4552249,50.9569441 78.4552249,50.8819964 78.4706125,50.8094703 C78.4706125,50.6894703 78.5306125,50.8094703 78.5306125,50.6594703 C78.5306125,49.9194703 78.6106125,49.2094703 78.6006125,48.4594703 C78.6006125,48.4594703 78.6006125,48.4594703 78.6006125,48.4594703 C78.6006125,48.2294703 78.6006125,48.0294703 78.6006125,47.8294703 C78.6006125,47.6294703 78.6006125,47.7594703 78.6506125,47.7394703 C78.6301701,47.3564095 78.6301701,46.9725311 78.6506125,46.5894703 L78.5806125,46.5894703 C78.5806125,46.3694703 78.6606125,46.5194703 78.6406125,46.3194703 C78.6206125,46.1194703 78.6406125,45.9794703 78.6406125,45.9094703 C78.6406125,45.8394703 78.6406125,45.8094703 78.6406125,45.8194703 C78.6406125,45.8294703 78.6406125,45.7194703 78.6406125,45.6494703 C78.6406125,45.5794703 78.6406125,45.6494703 78.6406125,45.6494703 L78.6406125,45.4994703 C78.6406125,45.4394703 78.6406125,45.4294703 78.7006125,45.4994703 C78.7006125,45.1194703 78.7706125,43.3094703 78.7006125,42.8994703 C78.7006125,42.9594703 78.7006125,43.0794703 78.6206125,43.1294703 C78.6206125,43.0194703 78.6206125,42.9694703 78.6206125,42.9194703 C78.6206125,42.8694703 78.6206125,42.6894703 78.7406125,42.6094703 L78.6806125,42.6094703 L78.6806125,42.5494703 C78.6463688,42.374463 78.6463688,42.1944775 78.6806125,42.0194703 C78.6806125,41.7794703 78.6006125,41.6694703 78.6806125,41.5294703 C78.6806125,41.5294703 78.6806125,41.6094703 78.6306125,41.5294703 C78.5806125,41.4494703 78.6306125,41.3694703 78.6306125,41.3294703 C78.6306125,41.2894703 78.6306125,41.0694703 78.5706125,41.1394703 C78.5106125,41.2094703 78.5706125,40.9294703 78.6406125,41.0394703 C78.6454379,40.9829063 78.6454379,40.9260342 78.6406125,40.8694703 L78.6406125,40.9494703 C78.6406125,40.7494703 78.6406125,40.6394703 78.6406125,40.5094703 L78.6406125,40.5794703 C78.6406125,40.4594703 78.6406125,40.3594703 78.6406125,40.3094703 L78.6406125,40.4294703 C78.6616506,40.2668144 78.6616506,40.1021262 78.6406125,39.9394703 L78.6406125,39.9994703 C78.5806125,39.7894703 78.5206125,38.6694703 78.4406125,38.4794703 L78.4406125,38.5694703 L78.4406125,38.3994703 C78.4406125,38.3994703 78.6006125,38.4794703 78.5806125,38.4994703 C78.5806125,38.1294703 78.5806125,36.2494703 78.5806125,35.9094703 C78.5806125,35.7794703 78.6506125,35.9094703 78.6606125,35.9094703 C78.6606125,35.7494703 78.6606125,35.8394703 78.6606125,35.6994703 C78.6606125,35.5594703 78.6606125,35.6994703 78.6606125,35.6994703 C78.6606125,35.6994703 78.6606125,35.5794703 78.6606125,35.5794703 C78.6606125,35.5794703 78.5806125,35.5794703 78.5406125,35.6494703 L78.5406125,35.4894703 L78.5406125,35.4894703 C78.5406125,35.4894703 78.4306125,35.3894703 78.4606125,35.2094703 C78.4906125,35.0294703 78.4606125,34.5894703 78.4606125,34.2894703 C78.4606125,34.2894703 78.4606125,34.3594703 78.4606125,34.4194703 C78.4505996,34.3733407 78.4505996,34.3255998 78.4606125,34.2794703 C78.4606125,34.3594703 78.4606125,34.1594703 78.4606125,34.2194703 C78.3606125,33.9994703 78.4606125,33.7094703 78.3806125,33.5194703 C78.3006125,33.5194703 76.9006125,33.0994703 76.8006125,33.0994703 C76.7931452,33.0564586 76.7931452,33.0124819 76.8006125,32.9694703 C76.8006125,32.9694703 76.8006125,33.0994703 76.8006125,33.1594703 L76.8506125,33.1594703 C76.8506125,33.3094703 76.8506125,33.1594703 76.8506125,33.3394703 C76.8506125,33.5194703 76.8006125,33.2194703 76.7906125,33.0994703 C76.7906125,33.1994703 76.7906125,33.3094703 76.7906125,33.3494703 C76.7906125,33.3894703 76.7906125,33.3494703 76.7206125,33.4494703 C76.6506125,33.5494703 76.6406125,33.6694703 76.6106125,33.7594703 Z" id="Path" fill="#373735"></path>
            </g>
        </g>
    </g>
</svg>