<?xml version="1.0" encoding="UTF-8"?>
<svg width="158px" height="157px" viewBox="0 0 158 157" version="1.1" xmlns="http://www.w3.org/2000/svg" xmlns:xlink="http://www.w3.org/1999/xlink">
    <title>EA4F8DD2-9DEB-4E68-8738-A06FD3E9D824</title>
    <g id="Desktop" stroke="none" stroke-width="1" fill="none" fill-rule="evenodd">
        <g id="0.0-Exportable-Items-Copy" transform="translate(-562.000000, -8527.000000)" fill-rule="nonzero">
            <g id="icon-social-shoppers-big" transform="translate(562.899203, 8527.526129)">
                <circle id="Oval" fill="#FFFEF7" cx="78.5186563" cy="78.4738711" r="75"></circle>
                <path d="M156.368656,76.7038711 C156.461395,74.501469 156.387853,72.2952087 156.148656,70.1038711 C156.168656,72.0138711 156.328656,74.0338711 156.368656,76.7038711 Z" id="Path" fill="#FFFEF8"></path>
                <path d="M150.078656,80.1538711 C150.078656,80.7238711 150.078656,81.3738711 150.078656,82.0238711 C150.048656,81.4038711 150.068656,80.7638711 150.078656,80.1538711 Z" id="Path" fill="#FFFEF8"></path>
                <path d="M72.7986563,0.203871134 L72.4386563,0.473871134 C70.9686563,0.573871134 70.1286563,0.633871134 69.6086563,0.693871134 C69.3055264,0.709583221 69.0017861,0.709583221 68.6986563,0.693871134 C68.4224677,0.670868115 68.1448448,0.670868115 67.8686563,0.693871134 C67.0083086,0.772699498 66.153448,0.902932177 65.3086563,1.08387113 C64.5557959,1.30835214 63.7913463,1.49195358 63.0186563,1.63387113 L59.8786563,2.33387113 C58.7886563,2.54387113 57.7286563,2.87387113 56.8086563,3.11387113 C56.0936596,3.29130381 55.3919476,3.51852483 54.7086563,3.79387113 C54.7086563,3.79387113 52.2086563,4.59387113 52.3386563,4.44387113 C51.6086563,4.84387113 49.7886563,5.44387113 48.2286563,6.11387113 C47.6786563,6.38387113 48.6686563,6.00387113 49.1086563,5.88387113 C47.9186563,6.35387113 46.7686563,6.94387113 45.6086563,7.48387113 C44.2186563,8.05387113 43.8286563,8.11387113 45.3086563,7.40387113 C41.1877961,9.31834083 37.2426955,11.5903708 33.5186563,14.1938711 C30.790442,16.087331 28.1821158,18.1479422 25.7086563,20.3638711 C23.0309708,22.8104624 20.5124974,25.4258001 18.1686563,28.1938711 C13.6658036,33.5663235 9.90547396,39.5196181 6.98865627,45.8938711 C5.0560547,50.1513074 3.51632631,54.5763528 2.38865627,59.1138711 C2.94778455,57.1778306 3.61550856,55.2748171 4.38865627,53.4138711 C4.18865627,54.1038711 3.99865627,54.6938711 3.82865627,55.2238711 L3.42865627,56.6138711 C3.20743362,57.2924546 3.02710986,57.9836957 2.88865627,58.6838711 C2.40158343,59.8747215 2.03313382,61.1107024 1.78865627,62.3738711 C1.43865627,64.0538711 1.08865627,65.8638711 0.788656269,66.9138711 L0.868656269,67.7638711 L0.518656269,69.1638711 C0.242883402,71.6777447 0.106008754,74.204918 0.108656269,76.7338711 C-0.0362187562,78.894779 -0.0362187562,81.0629633 0.108656269,83.2238711 C0.45468636,87.60502 1.14684651,91.9519195 2.17865627,96.2238711 C2.05865627,95.7038711 1.84865627,94.2938711 2.26865627,95.9138711 C2.37593641,96.7186981 2.55669111,97.5120104 2.80865627,98.2838711 C3.11935145,99.1794969 3.36990856,100.094866 3.55865627,101.023871 C3.76865627,101.813871 4.36865627,103.443871 4.79865627,104.683871 C5.22865627,105.923871 5.64865627,106.683871 5.40865627,105.823871 C5.52865627,106.263871 6.00865627,107.583871 6.31865627,108.473871 C6.62865627,109.363871 6.80865627,109.813871 6.20865627,108.533871 C6.82865627,110.013871 7.45865627,111.433871 7.97865627,112.453871 L7.17865627,110.563871 L7.97865627,112.303871 C8.24865627,112.843871 8.49865627,113.303871 8.74865627,113.843871 C9.23865627,114.843871 9.64865627,115.703871 10.1286563,116.503871 L11.5186563,118.773871 C11.9686563,119.503871 12.4586563,120.183871 12.9686563,120.903871 L11.9686563,119.173871 C13.6786563,121.913871 15.2786563,124.063871 15.8386563,125.233871 L13.8386563,122.563871 C16.2710023,126.169577 19.0618776,129.519968 22.1686563,132.563871 L21.1186563,131.473871 C25.8610502,136.367171 31.1838644,140.662363 36.9686563,144.263871 C40.4806723,146.422759 44.1589539,148.298682 47.9686563,149.873871 C49.6386563,150.523871 51.1386563,151.093871 52.3886563,151.503871 C53.6386563,151.913871 54.6286563,152.193871 55.2486563,152.373871 L53.0386563,151.443871 C54.4586563,151.883871 55.8786563,152.323871 57.3186563,152.653871 C56.4412875,152.608642 55.5668096,152.518524 54.6986563,152.383871 C58.9718758,153.767657 63.3588998,154.771552 67.8086563,155.383871 C86.0725115,157.899205 104.636966,153.863916 120.208656,143.993871 C123.268656,142.143871 120.898656,143.873871 120.878656,143.923871 C121.743298,143.392066 122.562728,142.790036 123.328656,142.123871 C123.618656,141.863871 123.868656,141.683871 125.328656,140.593871 C126.138656,139.983871 125.258656,140.843871 124.798656,141.183871 C125.683022,140.562223 126.53419,139.894641 127.348656,139.183871 C125.708656,140.393871 126.258656,139.693871 125.498656,140.113871 C126.748656,139.113871 127.998656,138.183871 129.178656,137.113871 L129.108656,137.353871 C129.908656,136.653871 130.948656,135.353871 134.228656,132.103871 C139.863081,126.284433 144.543974,119.61239 148.098656,112.333871 C147.680337,113.407814 147.206361,114.459238 146.678656,115.483871 C147.168656,114.543871 147.888656,113.093871 148.378656,112.243871 C147.878656,113.063871 148.258656,112.333871 148.598656,111.513871 C148.938656,110.693871 149.328656,109.853871 148.998656,110.513871 C150.088656,107.833871 151.208656,104.723871 152.228656,101.663871 C153.130127,98.8325611 153.818712,95.9378308 154.288656,93.0038711 C154.178656,92.7538711 153.468656,89.8438711 152.478656,87.1538711 C152.048656,85.8038711 151.478656,84.4938711 151.038656,83.5338711 C150.846136,82.9620818 150.562479,82.4251609 150.198656,81.9438711 C150.198656,80.4738711 150.288656,79.0138711 150.328656,78.5638711 C150.208656,78.9438711 150.178656,81.8338711 150.068656,83.3638711 L150.238656,83.6438711 C150.018656,87.1738711 150.128656,84.4638711 149.718656,87.8938711 C149.628656,87.9738711 149.718656,87.2238711 149.788656,86.1138711 C149.858656,85.0038711 149.958656,83.5038711 150.048656,82.1138711 C149.938656,83.3638711 149.828656,84.6138711 149.738656,85.6738711 C149.613993,86.4851132 149.540514,87.3033976 149.518656,88.1238711 C149.338656,89.2938711 149.308656,89.2238711 149.258656,89.2138711 C149.208656,89.2038711 149.178656,89.2138711 148.888656,90.6338711 C148.604166,92.9514947 148.132628,95.2423016 147.478656,97.4838711 L147.478656,97.4838711 C147.048656,98.8338711 146.728656,100.033871 146.338656,101.113871 C145.948656,102.193871 145.688656,103.243871 145.338656,104.213871 C144.616795,106.337739 143.72733,108.400897 142.678656,110.383871 L142.888656,109.863871 C141.588248,112.455377 140.139166,114.969568 138.548656,117.393871 C139.078656,116.623871 139.618656,115.993871 138.548656,117.663871 C136.878099,120.209611 135.023126,122.629432 132.998656,124.903871 C132.448656,125.603871 131.928656,126.313871 131.358656,127.003871 L129.358656,129.103871 L126.678656,131.673871 C124.366373,133.765157 121.92489,135.708991 119.368656,137.493871 C116.305364,139.617209 113.09002,141.512323 109.748656,143.163871 C94.1086894,150.708364 76.2669993,152.338732 59.5186563,147.753871 L60.0286563,147.873871 C57.2868877,147.156764 54.5918033,146.271761 51.9586563,145.223871 C50.4886563,144.683871 49.0386563,143.973871 47.5086563,143.303871 C45.9786563,142.633871 44.4486563,141.813871 42.9386563,140.893871 C29.6920339,133.375317 19.1710523,121.849503 12.8886563,107.973871 C12.1086563,106.353871 11.5086563,104.703871 10.8886563,103.123871 C10.2686563,101.543871 9.75865627,99.9738711 9.34865627,98.4338711 C8.52034321,95.6308785 7.85259195,92.7829194 7.34865627,89.9038711 C6.89275258,86.2341918 6.64568788,82.5415762 6.60865627,78.8438711 C6.60865627,80.7238711 6.46865627,80.0838711 6.43865627,78.6038711 C6.52865627,73.4438711 6.65865627,73.2738711 6.60865627,73.0838711 C6.57962491,72.7778915 6.57962491,72.4698507 6.60865627,72.1638711 C6.60865627,71.4338711 6.77865627,70.0838711 7.08865627,67.4838711 C7.80311969,62.7537913 8.97872125,58.1049737 10.5986563,53.6038711 C11.7550742,50.5026692 13.1112494,47.4796681 14.6586563,44.5538711 C16.3467517,41.4226094 18.2548753,38.4150591 20.3686563,35.5538711 C22.4933835,32.7321814 24.8087971,30.0592653 27.2986563,27.5538711 C29.6070519,25.2731634 32.0587052,23.1421624 34.6386563,21.1738711 C38.2278242,18.4196542 42.0876634,16.0374097 46.1586563,14.0638711 C51.1586563,11.2038711 58.0586563,9.06387113 63.5286563,7.77387113 L62.9886563,7.95387113 C65.8967196,7.28905356 68.8469866,6.82462875 71.8186563,6.56387113 C76.5807197,6.1264942 81.3745974,6.16669443 86.1286563,6.68387113 C90.9364585,7.21185259 95.6798136,8.2168007 100.288656,9.68387113 C103.300511,10.6554069 106.252323,11.8040757 109.128656,13.1238711 L108.278656,12.7038711 C109.356627,13.142792 110.411349,13.6367757 111.438656,14.1838711 C112.198656,14.5838711 112.748656,14.8638711 113.238656,15.1838711 L114.768656,16.1838711 C115.358656,16.5538711 116.078656,17.0038711 117.078656,17.6838711 C116.868656,17.4138711 117.898656,17.9338711 119.178656,18.6838711 C120.458656,19.4338711 121.948656,20.4838711 122.718656,21.1338711 L122.628656,21.1338711 C123.218656,21.6038711 124.038656,22.1338711 124.928656,22.8938711 C125.818656,23.6538711 126.838656,24.4238711 127.838656,25.3538711 C128.838656,26.2838711 129.918656,27.2138711 130.838656,28.2238711 L132.288656,29.6938711 L133.578656,31.1638711 L133.348656,31.1038711 C133.708656,31.4938711 134.098656,31.9138711 134.508656,32.3738711 C134.918656,32.8338711 135.318656,33.3738711 135.748656,33.9038711 C136.638656,34.9038711 137.468656,36.1638711 138.298656,37.3338711 C139.128656,38.5038711 139.848656,39.7038711 140.518656,40.7238711 L142.038656,43.3438711 C144.001208,47.0011815 145.650437,50.8181596 146.968656,54.7538711 C148.479987,59.2237707 149.610681,63.8134509 150.348656,68.4738711 C150.408656,69.4738711 150.498656,70.4738711 150.518656,71.4738711 L150.518656,74.4738711 C150.518656,74.7538711 150.578656,75.0438711 150.598656,75.3338711 C151.242826,76.5264791 152.100358,77.5907677 153.128656,78.4738711 C153.396333,78.7364766 153.774443,78.8534897 154.14366,78.7879834 C154.512878,78.7224771 154.827656,78.4825323 154.988656,78.1438711 C155.334846,77.5222303 155.571625,76.8457174 155.688656,76.1438711 C155.803278,75.5889758 155.886742,75.028098 155.938656,74.4638711 C155.938656,73.8238711 155.998656,73.1038711 155.998656,72.2838711 L156.148656,72.4838711 C156.068656,71.6238711 156.038656,70.7738711 155.908656,69.9238711 C155.738656,68.3838711 155.578656,67.2738711 155.468656,66.5638711 C155.358656,65.8538711 155.268656,65.5638711 155.358656,65.6538711 C155.628656,67.0338711 155.728656,68.4438711 155.918656,69.8438711 C155.568656,66.7638711 155.918656,68.9038711 156.138656,70.0738711 C155.998656,68.7838711 155.858656,67.5338711 155.748656,66.4938711 C155.598656,65.9038711 155.748656,66.9538711 155.748656,67.4338711 C155.638656,66.6038711 155.388656,65.6338711 155.188656,64.6138711 C154.988656,63.5938711 154.768656,62.5138711 154.548656,61.5238711 C154.198656,59.9738711 154.238656,59.9138711 154.268656,59.7838711 C154.298656,59.6538711 154.338656,59.4538711 153.828656,57.6738711 C148.720527,38.5848944 136.520649,22.1645948 119.718656,11.7638711 C119.368656,11.4738711 119.818656,11.7638711 120.318656,12.0538711 C115.573577,9.07994952 110.516686,6.63533862 105.238656,4.76387113 C103.828656,4.21387113 103.458656,4.00387113 103.048656,3.81387113 C98.3319827,2.34411802 93.4974339,1.28352842 88.5986563,0.643871134 C86.6986563,0.363871134 84.7586563,0.253871134 82.9386563,0.123871134 C81.1186563,-0.00612886575 79.3986563,-0.00612886575 77.9386563,0.00387113425 L74.3086563,0.103871134 L72.7986563,0.203871134 Z" id="Path" fill="#FFFEF8"></path>
                <path d="M55.6686563,90.2038711 C55.7094104,90.119772 55.7299562,90.0273157 55.7286563,89.9338711 C55.6841675,90.0166262 55.6634039,90.1100625 55.6686563,90.2038711 L55.6686563,90.2038711 Z" id="Path" fill="#373835"></path>
                <path d="M57.7286563,109.113871 L57.7286563,109.113871 C57.7786563,108.853871 57.6586563,108.723871 57.7286563,108.493871 L57.7286563,108.493871 C57.7286563,108.413871 57.7286563,108.253871 57.7286563,108.103871 C57.7286563,108.103871 57.7286563,108.183871 57.7286563,108.103871 C57.7286563,108.023871 57.7286563,107.823871 57.7286563,107.703871 L57.7286563,107.583871 C57.7286563,106.993871 57.6686563,104.663871 57.6586563,104.073871 L57.6586563,104.073871 C57.6586563,103.173871 57.6586563,101.313871 57.5786563,100.383871 C57.5939049,100.220894 57.5939049,100.056849 57.5786563,99.8938711 C57.5786563,99.9738711 57.5786563,99.9438711 57.5786563,99.8938711 C57.5786563,99.4338711 57.5786563,99.8938711 57.5786563,99.3938711 C57.5786563,98.8938711 57.5786563,96.8238711 57.5786563,96.3938711 C57.5437574,96.1218325 57.5237276,95.8480923 57.5186563,95.5738711 L57.5186563,95.5738711 C57.5186563,95.3038711 57.5186563,93.7838711 57.5186563,93.4738711 L57.5186563,93.4738711 C57.5186563,93.2038711 57.5186563,93.2438711 57.5686563,93.0238711 C57.4986563,93.0238711 57.4486563,92.8238711 57.4486563,92.7338711 L57.4486563,92.7338711 C57.4486563,92.6038711 57.3786563,92.3038711 57.3586563,92.0838711 L57.4086563,92.0838711 C57.3843826,91.8645407 57.3843826,91.6432016 57.4086563,91.4238711 C57.445065,91.0347209 57.445065,90.6430214 57.4086563,90.2538711 L57.5286563,89.9838711 L57.5286563,89.9838711 C57.5286563,89.9838711 56.0986563,89.5538711 55.7886563,90.0938711 L55.7886563,90.0938711 L55.7886563,90.2038711 C55.7886563,90.3238711 55.7886563,90.3838711 55.7886563,90.3738711 L55.7886563,90.2038711 C55.7886563,90.3338711 55.7886563,90.2038711 55.7286563,90.2038711 C55.733538,90.253752 55.733538,90.3039903 55.7286563,90.3538711 C55.7286563,90.3538711 55.7286563,90.3538711 55.7286563,90.3538711 C55.7493974,90.4359139 55.7493974,90.5218284 55.7286563,90.6038711 C55.7286563,90.7338711 55.6586563,90.6038711 55.6586563,90.7638711 C55.6586563,91.5638711 55.5786563,92.3438711 55.5886563,93.1538711 C55.5886563,93.1538711 55.5886563,93.1538711 55.5886563,93.1538711 C55.5886563,93.4038711 55.5886563,93.6238711 55.5886563,93.8438711 C55.5784985,93.8822006 55.5576963,93.916871 55.5286563,93.9438711 C55.5286563,93.9438711 55.5286563,95.1738711 55.5286563,95.1938711 L55.5986563,95.1938711 C55.5986563,95.4338711 55.5186563,95.2638711 55.5386563,95.4838711 C55.5586563,95.7038711 55.5386563,95.8538711 55.5386563,95.9338711 C55.5386563,96.0138711 55.5386563,96.0438711 55.5386563,96.0338711 C55.5386563,96.0238711 55.5386563,96.1438711 55.5386563,96.2138711 C55.5386563,96.2838711 55.5386563,96.2138711 55.5386563,96.2138711 L55.5386563,96.3638711 C55.5386563,96.4238711 55.5386563,96.4438711 55.4786563,96.3638711 C55.4786563,96.7738711 55.4086563,98.7538711 55.4786563,99.1938711 C55.4786563,99.1938711 55.4786563,99.0038711 55.5686563,98.9538711 C55.5686563,99.0738711 55.5686563,99.1238711 55.5686563,99.1738711 C55.5686563,99.2238711 55.5686563,99.4338711 55.4486563,99.5238711 L55.4486563,99.5238711 L55.4486563,99.5838711 C55.4882754,99.7751747 55.4882754,99.9725675 55.4486563,100.163871 C55.4486563,100.423871 55.5386563,100.553871 55.5086563,100.693871 C55.5086563,100.693871 55.5086563,100.613871 55.5586563,100.693871 C55.6086563,100.773871 55.5586563,100.873871 55.5586563,100.913871 C55.5586563,100.953871 55.5586563,101.193871 55.6286563,101.123871 C55.6986563,101.053871 55.6286563,101.353871 55.5486563,101.233871 C55.5436006,101.293765 55.5436006,101.353978 55.5486563,101.413871 L55.5486563,101.333871 C55.5486563,101.553871 55.5486563,101.673871 55.5486563,101.813871 L55.5486563,101.733871 C55.5486563,101.863871 55.5486563,101.973871 55.4886563,102.033871 L55.4886563,101.893871 C55.4722515,102.070157 55.4722515,102.247585 55.4886563,102.423871 L55.4886563,102.363871 C55.5586563,102.593871 55.6186563,103.813871 55.6986563,104.023871 L55.7586563,103.923871 L55.7586563,104.113871 C55.7586563,104.113871 55.5886563,104.023871 55.6086563,104.003871 C55.6086563,104.403871 55.6086563,106.453871 55.6086563,106.823871 C55.6086563,106.963871 55.5186563,106.823871 55.5086563,106.823871 C55.5086563,107.003871 55.5686563,106.903871 55.5686563,107.053871 C55.5686563,107.203871 55.5186563,107.053871 55.5186563,107.053871 C55.5186563,107.053871 55.5186563,107.183871 55.5186563,107.183871 C55.5186563,107.183871 55.5986563,107.183871 55.6486563,107.103871 L55.6486563,107.303871 L55.6486563,107.303871 C55.6486563,107.303871 55.7586563,107.413871 55.7386563,107.603871 C55.7186563,107.793871 55.7386563,108.283871 55.7386563,108.603871 C55.7386563,108.603871 55.7386563,108.523871 55.6786563,108.453871 C55.6888977,108.503347 55.6888977,108.554396 55.6786563,108.603871 C55.6786563,108.523871 55.6786563,108.743871 55.6786563,108.683871 C55.7786563,108.923871 55.6786563,109.233871 55.7586563,109.443871 C55.8486563,109.443871 57.3286563,109.893871 57.4386563,109.893871 C57.4421007,109.943812 57.4421007,109.99393 57.4386563,110.043871 C57.4386563,110.043871 57.4386563,109.903871 57.4386563,109.833871 L57.3786563,109.833871 C57.3786563,109.673871 57.3786563,109.833871 57.3786563,109.643871 C57.3786563,109.453871 57.4386563,109.773871 57.4386563,109.893871 C57.4386563,109.783871 57.4386563,109.673871 57.4386563,109.623871 C57.4386563,109.573871 57.4986563,109.623871 57.5186563,109.513871 C57.5410247,109.360502 57.6151159,109.219375 57.7286563,109.113871 L57.7286563,109.113871 Z" id="Path" fill="#373835"></path>
                <path d="M98.3886563,90.2038711 C98.4294104,90.119772 98.4499562,90.0273157 98.4486563,89.9338711 C98.4041675,90.0166262 98.3834039,90.1100625 98.3886563,90.2038711 L98.3886563,90.2038711 Z" id="Path" fill="#373835"></path>
                <path d="M100.448656,109.113871 L100.448656,109.113871 C100.448656,108.853871 100.378656,108.723871 100.448656,108.493871 L100.448656,108.493871 C100.448656,108.413871 100.448656,108.253871 100.448656,108.103871 C100.448656,108.103871 100.448656,108.183871 100.448656,108.103871 C100.448656,108.023871 100.448656,107.823871 100.448656,107.703871 L100.448656,107.583871 C100.448656,106.993871 100.388656,104.663871 100.378656,104.073871 L100.378656,104.073871 C100.378656,103.173871 100.378656,101.313871 100.298656,100.383871 C100.313905,100.220894 100.313905,100.056849 100.298656,99.8938711 C100.298656,99.9738711 100.248656,99.9438711 100.248656,99.8938711 C100.248656,99.4338711 100.248656,99.8938711 100.248656,99.3938711 C100.248656,98.8938711 100.248656,96.8238711 100.248656,96.3938711 C100.213757,96.1218325 100.193728,95.8480923 100.188656,95.5738711 L100.188656,95.5738711 C100.188656,95.3038711 100.188656,93.7838711 100.188656,93.4738711 L100.188656,93.4738711 C100.188656,93.2038711 100.188656,93.2438711 100.188656,93.0238711 C100.118656,93.0238711 100.068656,92.8238711 100.068656,92.7338711 L100.068656,92.7338711 C100.068656,92.6038711 99.9986563,92.3038711 99.9886563,92.0838711 L99.9886563,92.0838711 C99.9643826,91.8645407 99.9643826,91.6432016 99.9886563,91.4238711 C100.025065,91.0347209 100.025065,90.6430214 99.9886563,90.2538711 L100.108656,89.9838711 L100.108656,89.9838711 C100.108656,89.9838711 98.6786563,89.5538711 98.3686563,90.0938711 L98.3686563,90.0938711 L98.3686563,90.2038711 C98.3686563,90.3238711 98.3686563,90.3838711 98.3686563,90.3738711 L98.3686563,90.2038711 C98.3686563,90.3338711 98.3686563,90.2038711 98.3086563,90.2038711 C98.313538,90.253752 98.313538,90.3039903 98.3086563,90.3538711 C98.3086563,90.3538711 98.3086563,90.3538711 98.3086563,90.3538711 C98.3293974,90.4359139 98.3293974,90.5218284 98.3086563,90.6038711 C98.3086563,90.7338711 98.2386563,90.6038711 98.2386563,90.7638711 C98.2386563,91.5638711 98.1586563,92.3438711 98.1686563,93.1538711 C98.1686563,93.1538711 98.1686563,93.1538711 98.1686563,93.1538711 C98.1686563,93.4038711 98.1686563,93.6238711 98.1686563,93.8438711 C98.1584985,93.8822006 98.1376963,93.916871 98.1086563,93.9438711 C98.1343882,94.3601405 98.1343882,94.7776017 98.1086563,95.1938711 L98.1786563,95.1938711 C98.1786563,95.4338711 98.0986563,95.2638711 98.1186563,95.4838711 C98.1386563,95.7038711 98.1186563,95.8538711 98.1186563,95.9338711 C98.1186563,96.0138711 98.1186563,96.0438711 98.1186563,96.0338711 C98.1186563,96.0238711 98.1186563,96.1438711 98.1186563,96.2138711 C98.1186563,96.2838711 98.1186563,96.2138711 98.1186563,96.2138711 L98.1186563,96.3638711 C98.1186563,96.4238711 98.1186563,96.4438711 98.0586563,96.3638711 C98.0586563,96.7738711 97.9886563,98.7538711 98.0586563,99.1938711 C98.0586563,99.1938711 98.0586563,99.0038711 98.1386563,98.9538711 C98.1386563,99.0738711 98.1386563,99.1238711 98.1386563,99.1738711 C98.1386563,99.2238711 98.1386563,99.4338711 98.0186563,99.5238711 L98.0686563,99.5238711 L98.0686563,99.5838711 C98.1026931,99.7757064 98.1026931,99.9720359 98.0686563,100.163871 C98.0686563,100.423871 98.1486563,100.553871 98.0686563,100.693871 C98.0686563,100.693871 98.0686563,100.613871 98.0686563,100.693871 C98.0686563,100.773871 98.0686563,100.873871 98.0686563,100.913871 C98.0686563,100.953871 98.0686563,101.193871 98.1386563,101.123871 C98.2086563,101.053871 98.1386563,101.353871 98.0586563,101.233871 C98.0536006,101.293765 98.0536006,101.353978 98.0586563,101.413871 L98.0586563,101.333871 C98.0586563,101.553871 98.0586563,101.673871 98.0586563,101.813871 L98.0586563,101.733871 C98.0586563,101.863871 98.0586563,101.973871 97.9986563,102.033871 L97.9986563,101.893871 C97.9822515,102.070157 97.9822515,102.247585 97.9986563,102.423871 L97.9986563,102.363871 C98.0686563,102.593871 98.1286563,103.813871 98.2086563,104.023871 L98.2686563,103.923871 L98.2686563,104.113871 C98.2686563,104.113871 98.0986563,104.023871 98.1186563,104.003871 C98.1186563,104.403871 98.1186563,106.453871 98.1186563,106.823871 C98.1186563,106.963871 98.0286563,106.823871 98.0186563,106.823871 C98.0186563,107.003871 98.0786563,106.903871 98.0786563,107.053871 C98.0786563,107.203871 98.0786563,107.053871 98.0786563,107.053871 C98.0786563,107.053871 98.0786563,107.183871 98.0786563,107.183871 C98.0786563,107.183871 98.1686563,107.183871 98.2086563,107.103871 L98.2086563,107.303871 L98.2086563,107.303871 C98.2086563,107.303871 98.3186563,107.413871 98.2986563,107.603871 C98.2786563,107.793871 98.2986563,108.283871 98.2986563,108.603871 C98.2986563,108.603871 98.2986563,108.523871 98.2386563,108.453871 C98.2488977,108.503347 98.2488977,108.554396 98.2386563,108.603871 C98.2386563,108.523871 98.2386563,108.743871 98.2386563,108.683871 C98.3386563,108.923871 98.2386563,109.233871 98.3186563,109.443871 C98.4086563,109.443871 99.8886563,109.893871 99.9986563,109.893871 C100.002101,109.943812 100.002101,109.99393 99.9986563,110.043871 C99.9986563,110.043871 99.9986563,109.903871 99.9986563,109.833871 L99.9386563,109.833871 C99.9386563,109.673871 99.9386563,109.833871 99.9386563,109.643871 C99.9386563,109.453871 99.9986563,109.773871 99.9986563,109.893871 C99.9986563,109.783871 99.9986563,109.673871 99.9986563,109.623871 C99.9986563,109.573871 100.058656,109.623871 100.078656,109.513871 C100.140843,109.334793 100.274959,109.189802 100.448656,109.113871 L100.448656,109.113871 Z" id="Path" fill="#373835"></path>
                <path d="M84.1486563,90.2038711 C84.1894104,90.119772 84.2099562,90.0273157 84.2086563,89.9338711 C84.1641675,90.0166262 84.1434039,90.1100625 84.1486563,90.2038711 L84.1486563,90.2038711 Z" id="Path" fill="#373835"></path>
                <path d="M86.2086563,109.113871 L86.2086563,109.113871 C86.2086563,108.853871 86.1386563,108.723871 86.2086563,108.493871 L86.2086563,108.493871 C86.2086563,108.413871 86.2086563,108.253871 86.2086563,108.103871 C86.2086563,108.103871 86.2086563,108.183871 86.2086563,108.103871 C86.2086563,108.023871 86.2086563,107.823871 86.2086563,107.703871 L86.2086563,107.583871 C86.2086563,106.993871 86.1486563,104.663871 86.1386563,104.073871 L86.1386563,104.073871 C86.1386563,103.173871 86.1386563,101.313871 86.0586563,100.383871 C86.0739049,100.220894 86.0739049,100.056849 86.0586563,99.8938711 C86.0586563,99.9738711 86.0586563,99.9438711 86.0586563,99.8938711 C86.0586563,99.4338711 86.0586563,99.8938711 86.0586563,99.3938711 C86.0586563,98.8938711 86.0586563,96.8238711 86.0586563,96.3938711 C86.0237574,96.1218325 86.0037276,95.8480923 85.9986563,95.5738711 L85.9986563,95.5738711 C85.9986563,95.3038711 85.9986563,93.7838711 85.9986563,93.4738711 L85.9986563,93.4738711 C85.9986563,93.2038711 85.9986563,93.2438711 86.0486563,93.0238711 C85.9786563,93.0238711 85.9286563,92.8238711 85.9286563,92.7338711 L85.9286563,92.7338711 C85.9286563,92.6038711 85.8586563,92.3038711 85.8486563,92.0838711 L85.8486563,92.0838711 C85.8243826,91.8645407 85.8243826,91.6432016 85.8486563,91.4238711 C85.885065,91.0347209 85.885065,90.6430214 85.8486563,90.2538711 L85.9686563,89.9838711 L85.9686563,89.9838711 C85.9686563,89.9838711 84.5386563,89.5538711 84.2286563,90.0938711 L84.2286563,90.0938711 L84.2286563,90.2038711 C84.2286563,90.3238711 84.2286563,90.3838711 84.2286563,90.3738711 L84.2286563,90.2038711 C84.2286563,90.3338711 84.2286563,90.2038711 84.1686563,90.2038711 C84.173538,90.253752 84.173538,90.3039903 84.1686563,90.3538711 C84.1686563,90.3538711 84.1686563,90.3538711 84.1686563,90.3538711 C84.1893974,90.4359139 84.1893974,90.5218284 84.1686563,90.6038711 C84.1686563,90.7338711 84.0986563,90.6038711 84.0986563,90.7638711 C84.0986563,91.5638711 84.0186563,92.3438711 84.0286563,93.1538711 C84.0286563,93.1538711 84.0286563,93.1538711 84.0286563,93.1538711 C84.0286563,93.4038711 84.0286563,93.6238711 84.0286563,93.8438711 C84.0184985,93.8822006 83.9976963,93.916871 83.9686563,93.9438711 C83.9943882,94.3601405 83.9943882,94.7776017 83.9686563,95.1938711 L84.0386563,95.1938711 C84.0386563,95.4338711 83.9586563,95.2638711 83.9786563,95.4838711 C83.9986563,95.7038711 83.9786563,95.8538711 83.9786563,95.9338711 C83.9786563,96.0138711 83.9786563,96.0438711 83.9786563,96.0338711 C83.9786563,96.0238711 83.9786563,96.1438711 83.9786563,96.2138711 C83.9786563,96.2838711 83.9786563,96.2138711 83.9786563,96.2138711 L83.9786563,96.3638711 C83.9786563,96.4238711 83.9786563,96.4438711 83.9186563,96.3638711 C83.9186563,96.7738711 83.8486563,98.7538711 83.9186563,99.1938711 C83.9186563,99.1938711 83.9186563,99.0038711 84.0086563,98.9538711 C84.0086563,99.0738711 84.0086563,99.1238711 84.0086563,99.1738711 C84.0086563,99.2238711 84.0086563,99.4338711 83.8886563,99.5238711 L83.8886563,99.5238711 L83.8886563,99.5838711 C83.9282754,99.7751747 83.9282754,99.9725675 83.8886563,100.163871 C83.8886563,100.423871 83.9786563,100.553871 83.9486563,100.693871 C83.9486563,100.693871 83.9486563,100.613871 83.9486563,100.693871 C83.9486563,100.773871 83.9486563,100.873871 83.9486563,100.913871 C83.9486563,100.953871 83.9486563,101.193871 84.0186563,101.123871 C84.0886563,101.053871 84.0186563,101.353871 83.9386563,101.233871 C83.9336006,101.293765 83.9336006,101.353978 83.9386563,101.413871 L83.9386563,101.333871 C83.9386563,101.553871 83.9386563,101.673871 83.9386563,101.813871 L83.9386563,101.733871 C83.9386563,101.863871 83.9386563,101.973871 83.8786563,102.033871 L83.8786563,101.893871 C83.8622515,102.070157 83.8622515,102.247585 83.8786563,102.423871 L83.8786563,102.363871 C83.9486563,102.593871 84.0086563,103.813871 84.0886563,104.023871 L84.1486563,103.923871 L84.1486563,104.113871 C84.1486563,104.113871 83.9786563,104.023871 83.9986563,104.003871 C83.9986563,104.403871 83.9986563,106.453871 83.9986563,106.823871 C83.9986563,106.963871 83.9086563,106.823871 83.8986563,106.823871 C83.8986563,107.003871 83.9586563,106.903871 83.9586563,107.053871 C83.9586563,107.203871 83.9586563,107.053871 83.9586563,107.053871 C83.9586563,107.053871 83.9586563,107.183871 83.9586563,107.183871 C83.9586563,107.183871 84.0486563,107.183871 84.0886563,107.103871 L84.0886563,107.303871 L84.0886563,107.303871 C84.0886563,107.303871 84.1986563,107.413871 84.1786563,107.603871 C84.1586563,107.793871 84.1786563,108.283871 84.1786563,108.603871 C84.1786563,108.603871 84.1786563,108.523871 84.1186563,108.453871 C84.1288977,108.503347 84.1288977,108.554396 84.1186563,108.603871 C84.1186563,108.523871 84.1186563,108.743871 84.1186563,108.683871 C84.2186563,108.923871 84.1186563,109.233871 84.1986563,109.443871 C84.2886563,109.443871 85.7686563,109.893871 85.8786563,109.893871 C85.8821007,109.943812 85.8821007,109.99393 85.8786563,110.043871 C85.8786563,110.043871 85.8786563,109.903871 85.8786563,109.833871 L85.8186563,109.833871 C85.8186563,109.673871 85.8186563,109.833871 85.8186563,109.643871 C85.8186563,109.453871 85.8786563,109.773871 85.8786563,109.893871 C85.8786563,109.783871 85.8786563,109.673871 85.8786563,109.623871 C85.8786563,109.573871 85.9386563,109.623871 85.9586563,109.513871 C85.991594,109.35498 86.0802659,109.213105 86.2086563,109.113871 L86.2086563,109.113871 Z" id="Path" fill="#373835"></path>
                <path d="M69.9086563,90.2038711 C69.9494104,90.119772 69.9699562,90.0273157 69.9686563,89.9338711 C69.9241675,90.0166262 69.9034039,90.1100625 69.9086563,90.2038711 L69.9086563,90.2038711 Z" id="Path" fill="#373835"></path>
                <path d="M71.9686563,109.113871 L71.9686563,109.113871 C71.9686563,108.853871 71.8986563,108.723871 71.9686563,108.493871 L71.9686563,108.493871 C71.9686563,108.413871 71.9686563,108.253871 71.9686563,108.103871 C71.9686563,108.103871 71.9686563,108.183871 71.9686563,108.103871 C71.9686563,108.023871 71.9686563,107.823871 71.9686563,107.703871 L71.9686563,107.583871 C71.9686563,106.993871 71.9086563,104.663871 71.8986563,104.073871 L71.8986563,104.073871 C71.8986563,103.173871 71.8986563,101.313871 71.8186563,100.383871 C71.8339049,100.220894 71.8339049,100.056849 71.8186563,99.8938711 C71.8186563,99.9738711 71.8186563,99.9438711 71.8186563,99.8938711 C71.8186563,99.4338711 71.8186563,99.8938711 71.7686563,99.3938711 C71.7186563,98.8938711 71.7686563,96.8238711 71.8186563,96.3938711 C71.7837574,96.1218325 71.7637276,95.8480923 71.7586563,95.5738711 L71.7586563,95.5738711 C71.7586563,95.3038711 71.7586563,93.7838711 71.7586563,93.4738711 L71.7586563,93.4738711 C71.7586563,93.2038711 71.7586563,93.2438711 71.7586563,93.0238711 C71.6886563,93.0238711 71.6386563,92.8238711 71.6386563,92.7338711 L71.6386563,92.7338711 C71.6386563,92.6038711 71.5686563,92.3038711 71.5586563,92.0838711 L71.5586563,92.0838711 C71.5343826,91.8645407 71.5343826,91.6432016 71.5586563,91.4238711 C71.595065,91.0347209 71.595065,90.6430214 71.5586563,90.2538711 L71.6786563,89.9838711 L71.6786563,89.9838711 C71.6786563,89.9838711 70.2486563,89.5538711 69.9386563,90.0938711 L69.9386563,90.0938711 L69.9386563,90.2038711 C69.9386563,90.3238711 69.9386563,90.3838711 69.9386563,90.3738711 L69.9386563,90.2038711 C69.9386563,90.3338711 69.9386563,90.2038711 69.8786563,90.2038711 C69.883538,90.253752 69.883538,90.3039903 69.8786563,90.3538711 C69.8786563,90.3538711 69.8786563,90.3538711 69.8786563,90.3538711 C69.8993974,90.4359139 69.8993974,90.5218284 69.8786563,90.6038711 C69.8786563,90.7338711 69.8086563,90.6038711 69.8086563,90.7638711 C69.8086563,91.5638711 69.7286563,92.3438711 69.7386563,93.1538711 C69.7386563,93.1538711 69.7386563,93.1538711 69.7386563,93.1538711 C69.7386563,93.4038711 69.7386563,93.6238711 69.7386563,93.8438711 C69.7284985,93.8822006 69.7076963,93.916871 69.6786563,93.9438711 C69.7043882,94.3601405 69.7043882,94.7776017 69.6786563,95.1938711 L69.7486563,95.1938711 C69.7486563,95.4338711 69.6686563,95.2638711 69.6886563,95.4838711 C69.7086563,95.7038711 69.6886563,95.8538711 69.6886563,95.9338711 C69.6886563,96.0138711 69.6886563,96.0438711 69.6886563,96.0338711 C69.6886563,96.0238711 69.6886563,96.1438711 69.6886563,96.2138711 C69.6886563,96.2838711 69.6886563,96.2138711 69.6886563,96.2138711 L69.6886563,96.3638711 C69.6886563,96.4238711 69.6886563,96.4438711 69.6286563,96.3638711 C69.6286563,96.7738711 69.5586563,98.7538711 69.5786563,99.1938711 C69.6286563,99.1938711 69.5786563,99.0038711 69.6686563,98.9538711 C69.6686563,99.0738711 69.6686563,99.1238711 69.6686563,99.1738711 C69.6686563,99.2238711 69.6686563,99.4338711 69.5486563,99.5238711 L69.5486563,99.5238711 L69.5486563,99.5838711 C69.5882754,99.7751747 69.5882754,99.9725675 69.5486563,100.163871 C69.5486563,100.423871 69.6386563,100.553871 69.6086563,100.693871 C69.6086563,100.693871 69.6086563,100.613871 69.6586563,100.693871 C69.7086563,100.773871 69.6586563,100.873871 69.6586563,100.913871 C69.6586563,100.953871 69.6586563,101.193871 69.7286563,101.123871 C69.7986563,101.053871 69.6786563,101.353871 69.6486563,101.233871 C69.6436006,101.293765 69.6436006,101.353978 69.6486563,101.413871 L69.6486563,101.333871 C69.6486563,101.553871 69.6486563,101.673871 69.6486563,101.813871 L69.6486563,101.733871 C69.6486563,101.863871 69.6486563,101.973871 69.5886563,102.033871 L69.5886563,101.893871 C69.5722515,102.070157 69.5722515,102.247585 69.5886563,102.423871 L69.5886563,102.363871 C69.6586563,102.593871 69.7186563,103.813871 69.7986563,104.023871 L69.8586563,103.923871 L69.8586563,104.113871 C69.8586563,104.113871 69.6886563,104.023871 69.7086563,104.003871 C69.7086563,104.403871 69.7086563,106.453871 69.7086563,106.823871 C69.7086563,106.963871 69.6186563,106.823871 69.6086563,106.823871 C69.6086563,107.003871 69.6686563,106.903871 69.6686563,107.053871 C69.6686563,107.203871 69.6186563,107.053871 69.6186563,107.053871 C69.6186563,107.053871 69.6186563,107.183871 69.6186563,107.183871 C69.6186563,107.183871 69.6986563,107.183871 69.7486563,107.103871 L69.7486563,107.303871 L69.7486563,107.303871 C69.7486563,107.303871 69.8586563,107.413871 69.8386563,107.603871 C69.8186563,107.793871 69.8386563,108.283871 69.8386563,108.603871 C69.8386563,108.603871 69.8386563,108.523871 69.7786563,108.453871 C69.7888977,108.503347 69.7888977,108.554396 69.7786563,108.603871 C69.7786563,108.523871 69.7786563,108.743871 69.7786563,108.683871 C69.8786563,108.923871 69.7786563,109.233871 69.8586563,109.443871 C69.9486563,109.443871 71.4286563,109.893871 71.5386563,109.893871 C71.5421007,109.943812 71.5421007,109.99393 71.5386563,110.043871 C71.5386563,110.043871 71.5386563,109.903871 71.5386563,109.833871 L71.4786563,109.833871 C71.4786563,109.673871 71.4786563,109.833871 71.4786563,109.643871 C71.4786563,109.453871 71.5386563,109.773871 71.5386563,109.893871 C71.5386563,109.783871 71.5386563,109.673871 71.5386563,109.623871 C71.5386563,109.573871 71.5986563,109.623871 71.6186563,109.513871 C71.6762251,109.338576 71.8025545,109.1942 71.9686563,109.113871 L71.9686563,109.113871 Z" id="Path" fill="#373835"></path>
                <path d="M73.5186563,68.1538711 C72.7286563,68.1538711 71.3686563,68.1038711 70.0786563,68.0938711 C71.0686563,68.1438711 72.1186563,68.1638711 73.5186563,68.1538711 Z" id="Path" fill="#373835"></path>
                <path d="M115.178656,68.2538711 C113.308656,68.2538711 114.838656,68.1738711 114.858656,68.1638711 C112.588656,68.1638711 113.858656,68.1638711 111.948656,68.1638711 C111.418656,68.1638711 112.058656,68.1638711 112.358656,68.1638711 C111.508656,68.1638711 110.728656,68.1638711 110.658656,68.1638711 C111.016675,68.1500704 111.374583,68.1939647 111.718656,68.2938711 L109.238656,68.2938711 L109.348656,68.2938711 C108.788656,68.2938711 107.938656,68.4138711 105.498656,68.3938711 L92.7686563,68.3938711 C92.8386563,68.3938711 93.7086563,68.3938711 94.5786563,68.3938711 L92.6586563,68.3938711 C93.6586563,68.3938711 90.9286563,68.3938711 91.6586563,68.3938711 C88.6586563,68.4938711 84.6586563,68.3938711 82.0286563,68.4738711 C81.9086563,68.4738711 80.4786563,68.9138711 79.0286563,69.3038711 L78.6386563,69.4238711 C78.6386563,69.3638711 78.6386563,69.3038711 78.6386563,69.2538711 C78.6386563,69.2038711 78.6386563,69.2538711 78.6386563,69.3138711 C78.623008,69.1809969 78.623008,69.0467453 78.6386563,68.9138711 C78.6386563,68.6938711 78.7086563,68.9138711 78.7086563,68.6438711 C78.7086563,67.3338711 78.7886563,66.0638711 78.7786563,64.7338711 C78.7786563,64.7338711 78.7786563,64.7338711 78.7786563,64.7338711 C78.7786563,64.3338711 78.7786563,63.9838711 78.7786563,63.6138711 C78.7858979,63.5565867 78.8064459,63.5017922 78.8386563,63.4538711 C78.8157669,63.1209307 78.8157669,62.7868115 78.8386563,62.4538711 L78.8386563,61.3738711 L78.7686563,61.3738711 C78.7686563,60.9838711 78.8486563,61.2638711 78.8286563,60.8938711 C78.7286563,60.7538711 78.8286563,60.2938711 78.8286563,60.1638711 C78.8286563,60.0338711 78.8286563,59.9938711 78.8286563,60.0038711 C78.8286563,60.0138711 78.8286563,59.8238711 78.8286563,59.7038711 C78.8286563,59.5838711 78.8286563,59.7038711 78.8286563,59.7638711 L78.8286563,59.5138711 C78.8286563,59.4138711 78.8286563,59.3838711 78.8886563,59.5138711 C78.8886563,58.8438711 78.9586563,55.6038711 78.8886563,54.8838711 C78.8886563,54.9738711 78.8886563,55.2038711 78.8086563,55.2838711 C78.8086563,55.0938711 78.8086563,55.0038711 78.8086563,54.9138711 C78.8086563,54.8238711 78.8086563,54.4938711 78.9286563,54.3538711 L78.8686563,54.2938711 L78.8686563,54.2038711 C78.8345447,53.8914662 78.8345447,53.5762761 78.8686563,53.2638711 C78.8738671,53.1906304 78.8738671,53.1171119 78.8686563,53.0438711 L79.0186563,53.1038711 C79.1086563,53.1038711 78.9586563,53.1038711 78.8886563,53.0338711 C79.1386563,53.1038711 79.4786563,53.1738711 79.7686563,53.2838711 C80.2286563,53.4238711 79.7686563,53.3638711 80.3186563,53.5138711 C81.7309258,53.9393138 83.1809952,54.2273183 84.6486563,54.3738711 C86.1419317,54.5369305 87.6493823,54.5201438 89.1386563,54.3238711 C89.2086563,54.3238711 89.1386563,54.3238711 89.0386563,54.3238711 C89.4986563,54.2438711 89.9386563,54.1838711 90.3486563,54.0838711 C90.7462289,53.9984397 91.1372167,53.8848193 91.5186563,53.7438711 C91.6416729,53.731371 91.7656397,53.731371 91.8886563,53.7438711 C91.8886563,53.7438711 92.1186563,53.6738711 92.5186563,53.5038711 L93.2186563,53.2238711 C93.4886563,53.1338711 93.7486563,52.9738711 94.0186563,52.8538711 C94.5187842,52.6052286 95.0060684,52.3315484 95.4786563,52.0338711 C95.6786563,51.9138711 95.8386563,51.8038711 95.9486563,51.7238711 L96.1386563,51.5838711 L96.1386563,51.4738711 C96.2868631,51.3433695 96.4558636,51.2385892 96.6386563,51.1638711 C96.6386563,51.1638711 96.7586563,51.1638711 97.0686563,50.8538711 C97.2496138,50.6259611 97.4578341,50.4210992 97.6886563,50.2438711 C97.9077256,50.0742757 98.1028302,49.8758073 98.2686563,49.6538711 C98.2686563,49.6538711 98.5586563,49.3738711 98.5686563,49.4138711 C98.5686563,49.2738711 98.8586563,49.0938711 99.0086563,48.8838711 C99.1586563,48.6738711 98.9486563,48.8838711 98.8886563,48.9738711 L99.2486563,48.4938711 C99.4086563,48.3238711 99.4686563,48.3038711 99.3186563,48.4938711 C100.425641,47.1350052 101.353251,45.639402 102.078656,44.0438711 C102.578656,43.0438711 102.928656,42.0438711 103.268656,41.1138711 C103.608656,40.1838711 103.748656,39.4938711 103.858656,39.1138711 C103.763585,39.4009208 103.650014,39.6815086 103.518656,39.9538711 C103.608656,39.5338711 103.718656,39.3538711 103.728656,39.1638711 C103.888656,39.0338711 103.978656,38.2538711 104.158656,37.9638711 L104.158656,37.8338711 L104.158656,37.7138711 L104.228656,37.5238711 C104.318656,37.0838711 104.398656,36.7438711 104.438656,36.5238711 L104.498656,36.1838711 L104.498656,36.0538711 L104.498656,35.9938711 C104.498656,35.9938711 104.498656,35.9938711 104.498656,35.9438711 L104.078656,35.7738711 L103.738656,35.6238711 L103.278656,35.4238711 L102.928656,35.2938711 L102.548656,35.1438711 C101.618656,34.8338711 101.158656,34.7838711 100.648656,34.6038711 C100.718656,34.6038711 100.918656,34.7238711 100.648656,34.6638711 C100.648656,34.6038711 99.9986563,34.5238711 99.8886563,34.4438711 C99.7786563,34.3638711 98.8886563,34.2038711 99.1286563,34.3238711 C98.9986563,34.2538711 98.3086563,34.1038711 98.7286563,34.1638711 C98.5216198,34.1072458 98.3111964,34.0638251 98.0986563,34.0338711 L98.3886563,34.1138711 L97.3886563,33.9238711 C97.1297724,33.8617474 96.8648542,33.8282135 96.5986563,33.8238711 L96.8986563,33.8938711 C96.5352107,33.8707471 96.175916,33.8035892 95.8286563,33.6938711 L96.3286563,33.6938711 C95.9286563,33.6938711 95.6086563,33.6138711 95.3286563,33.5938711 C95.0486563,33.5738711 94.7286563,33.5445416 94.3886563,33.5938711 L94.6286563,33.5938711 C93.5940534,33.5685939 92.5588654,33.6053264 91.5286563,33.7038711 C90.5094344,33.7974051 89.5034729,34.0019507 88.5286563,34.3138711 L88.8886563,34.3138711 L88.3186563,34.4738711 C88.3986563,34.4738711 88.5986563,34.2238711 88.6686563,34.2138711 L87.8786563,34.4438711 C87.5386563,34.5338711 87.1386563,34.7138711 86.6886563,34.8738711 C86.4686563,34.9538711 86.2486563,35.0738711 86.0086563,35.1838711 L85.2886563,35.5438711 L84.5686563,35.9738711 L84.1986563,36.2038711 L83.8586563,36.4638711 L83.1686563,36.9838711 L82.5186563,37.4738711 C82.3286563,37.6638711 82.1186563,37.8338711 81.9486563,38.0238711 L81.4586563,38.5838711 C81.3086563,38.7638711 81.1486563,38.9238711 81.0286563,39.0938711 L80.6986563,39.5538711 L80.2386563,40.1838711 C79.9186563,40.6338711 80.1086563,40.1838711 80.1086563,40.1838711 C79.7886563,40.7738711 80.0086563,40.4638711 79.7186563,40.9538711 C79.6386563,41.0838711 79.7186563,40.9538711 79.7186563,40.8238711 C79.6272758,40.9640376 79.5470298,41.1111554 79.4786563,41.2638711 C79.6486563,41.0038711 79.6386563,41.1538711 79.7486563,41.0538711 L79.3786563,41.6938711 L79.3786563,41.6938711 C79.2833303,42.0576677 79.1561731,42.4123694 78.9986563,42.7538711 C78.7458194,43.3128757 78.5287164,43.8873638 78.3486563,44.4738711 C78.1686563,44.9538711 78.0386563,45.4738711 77.9086563,45.9238711 L77.9086563,45.8238711 L77.9086563,45.7138711 C77.9040041,45.7470421 77.9040041,45.7807001 77.9086563,45.8138711 C77.8286563,45.5038711 77.7186563,45.1138711 77.6086563,44.7438711 C77.6086563,44.8938711 77.6686563,45.0338711 77.5486563,44.7438711 C77.3686563,44.1338711 77.1986563,43.7438711 77.0786563,43.2938711 C77.0186563,43.1538711 76.9286563,43.0338711 76.8586563,42.9038711 L76.3986563,41.9038711 C76.3547229,41.7944646 76.3046431,41.6876276 76.2486563,41.5838711 L76.0586563,41.2438711 L75.6186563,40.4738711 C75.5386563,40.3438711 75.4686563,40.2138711 75.3786563,40.0838711 L75.1086563,39.7038711 L74.5386563,38.9038711 L73.8586563,38.1338711 L73.5186563,37.7838711 L73.1286563,37.4738711 C72.1613906,36.5560171 71.0626364,35.7875633 69.8686563,35.1938711 L69.0986563,34.8338711 C68.8586563,34.7238711 68.6186563,34.6538711 68.4086563,34.5638711 L67.8086563,34.3538711 L67.3386563,34.2138711 L67.4186563,34.2138711 C67.0086563,34.1038711 66.5386563,33.9638711 66.0286563,33.8738711 C65.7686563,33.8738711 65.5086563,33.7638711 65.2286563,33.7338711 L64.3686563,33.6238711 C63.1242332,33.5180984 61.8730794,33.5180984 60.6286563,33.6238711 C58.3636849,33.8009204 56.1279033,34.2474053 53.9686563,34.9538711 C53.7086563,35.0138711 53.4086563,35.1038711 53.1086563,35.2038711 L52.8786563,35.2738711 L52.7686563,35.2738711 L52.5986563,35.3438711 C52.3586563,35.4338711 52.1286563,35.5038711 51.9086563,35.5938711 C52.1586563,35.5038711 52.2386563,35.4938711 52.2186563,35.5138711 C52.1097144,35.5732857 51.9959827,35.6234614 51.8786563,35.6638711 L51.0986563,35.9938711 L51.0286563,35.9938711 C51.0243202,36.0136361 51.0243202,36.0341062 51.0286563,36.0538711 L51.0286563,36.1738711 L51.0286563,36.3538711 C51.0286563,36.5538711 51.0286563,36.5838711 51.0986563,36.6038711 C51.1686563,36.6238711 51.0986563,36.6638711 51.1686563,36.8638711 L51.5186563,37.9338711 L51.7486563,38.8638711 C51.8586563,39.2438711 51.9986563,39.6838711 52.1386563,40.1538711 L52.3586563,40.9038711 C52.4386563,41.1538711 52.5486563,41.4138711 52.6386563,41.6838711 L52.9386563,42.4838711 L53.0886563,42.8938711 C53.0886563,43.0238711 53.1986563,43.1538711 53.2586563,43.2938711 C53.5086563,43.8238711 53.7186563,44.3638711 53.9886563,44.8638711 C54.2586563,45.3638711 54.4986563,45.8638711 54.7486563,46.2638711 L55.4586563,47.3738711 L55.6086563,47.6038711 L55.7586563,47.7938711 L55.9986563,48.1138711 C56.1586563,48.2938711 56.3286563,48.4838711 56.4886563,48.6838711 C56.6486563,48.8838711 56.8486563,49.0638711 57.0286563,49.2638711 L57.5686563,49.8338711 C57.7586563,50.0138711 57.9586563,50.1738711 58.1386563,50.3238711 L58.0586563,50.2738711 C59.0203359,51.135402 60.0851249,51.8743722 61.2286563,52.4738711 C62.4113986,53.1004208 63.6774914,53.555002 64.9886563,53.8238711 L64.8386563,53.8238711 C65.8386563,54.0038711 65.6886563,54.0338711 66.4786563,54.1738711 C66.4786563,54.1238711 66.6286563,54.1738711 66.8686563,54.1738711 L67.5786563,54.1738711 L67.5786563,54.1738711 C68.0686563,54.1738711 69.1986563,54.1738711 69.9986563,54.0938711 L69.9986563,54.0938711 C70.3286563,54.0938711 70.8186563,54.0038711 71.2786563,53.9538711 C71.7386563,53.9038711 72.1686563,53.8438711 72.4086563,53.7938711 C73.8317418,53.6178766 75.2305278,53.2824363 76.5786563,52.7938711 L76.8786563,52.7238711 C76.8637849,52.9869945 76.8637849,53.2507478 76.8786563,53.5138711 C76.8786563,53.3738711 76.8786563,53.4238711 76.8786563,53.5138711 C76.8637471,53.7836653 76.8637471,54.054077 76.8786563,54.3238711 C76.8786563,55.2038711 76.8786563,58.5438711 76.8786563,59.3238711 C76.9486563,59.7438711 76.8786563,60.2638711 76.9386563,60.6738711 L76.9386563,60.6738711 C76.9386563,61.1138711 76.9386563,63.5938711 76.9386563,64.0938711 L76.9386563,64.0338711 C76.971703,64.2760825 76.971703,64.5216598 76.9386563,64.7638711 C77.0086563,64.7638711 77.0586563,65.0938711 77.0586563,65.2438711 L77.0586563,65.2438711 C77.0586563,65.4638711 77.1286563,65.9638711 77.1386563,66.3238711 L77.1386563,66.3238711 C77.1624819,66.6868139 77.1624819,67.0509284 77.1386563,67.4138711 C77.1021854,68.0533516 77.1021854,68.6943907 77.1386563,69.3338711 L77.0186563,69.7638711 L77.0186563,69.8238711 L77.1986563,69.9038711 C76.9493954,69.9576598 76.7076147,70.0416115 76.4786563,70.1538711 L74.4286563,70.1538711 C74.6486563,70.1538711 76.2786563,70.1538711 77.1486563,70.1538711 L77.2986563,70.0938711 C79.2986563,70.0938711 77.7686563,70.0938711 79.7186563,70.0938711 C79.8186563,70.0938711 78.0286563,70.1538711 76.4486563,70.1538711 C77.8686563,70.1538711 79.2886563,70.1538711 79.8686563,70.1538711 C81.1986563,70.1538711 79.7186563,70.2138711 81.3286563,70.2338711 C82.4686563,70.2338711 83.9786563,70.1738711 85.3286563,70.2338711 L85.3286563,70.2338711 C88.5286563,70.2338711 90.2286563,70.1538711 93.1586563,70.2338711 L92.8386563,70.2338711 C93.8386563,70.2338711 95.9086563,70.2338711 97.7786563,70.2338711 C97.2486563,70.2338711 96.7786563,70.2338711 97.9086563,70.2338711 C100.048656,70.2338711 101.518656,70.2338711 103.078656,70.2338711 L104.588656,70.2338711 L121.228656,70.2338711 L119.228656,81.8938711 L113.868656,81.8938711 C113.868656,81.8938711 113.868656,81.8938711 113.628656,81.8938711 C113.24241,81.9193837 112.854902,81.9193837 112.468656,81.8938711 L112.468656,81.8938711 C111.538656,81.8938711 111.038656,81.9638711 110.188656,81.8938711 L110.278656,81.8938711 C109.978656,81.8938711 109.378656,81.8938711 108.838656,81.8938711 C108.988656,81.8938711 109.128656,81.8938711 108.838656,81.8938711 C108.208656,81.8938711 107.788656,81.8938711 107.328656,81.8938711 L106.888656,81.8938711 C104.698656,81.8938711 96.0786563,81.8938711 93.8886563,81.8938711 L93.9786563,81.8938711 C90.6386563,81.8938711 83.7786563,81.8938711 80.3286563,81.9438711 C79.7886563,81.8938711 79.0586563,81.9438711 78.4986563,81.8938711 C78.8086563,81.8938711 78.6986563,81.9438711 78.4986563,81.9438711 C76.7986563,81.9438711 78.3886563,81.9438711 76.6686563,81.9438711 C74.6686563,81.9438711 67.1286563,81.9438711 65.3686563,81.8738711 C64.4286563,81.9338711 63.2486563,81.8738711 62.3686563,81.9238711 L62.4586563,81.9238711 C61.4586563,81.9238711 55.8586563,81.9238711 54.6986563,81.9238711 L54.8586563,81.9238711 C54.3058331,81.9574742 53.7514794,81.9574742 53.1986563,81.9238711 C53.2986563,81.9938711 52.4386563,82.0338711 52.1086563,82.0438711 L52.1086563,82.0438711 C51.6086563,82.0438711 50.4886563,82.1238711 49.6686563,82.1338711 L49.6686563,82.1338711 C48.9886563,82.1338711 47.6686563,82.1338711 47.2186563,82.1338711 C46.0986563,82.1338711 44.3686563,82.0338711 42.8686563,82.0838711 L42.6186563,82.0838711 L42.6186563,81.8538711 L36.7486563,81.8538711 C36.1486563,78.3938711 35.6386563,75.4538711 35.4186563,74.2038711 L35.4986563,74.7238711 C35.1886563,73.0338711 35.0686563,72.3038711 34.9686563,71.6538711 L34.8186563,70.6538711 L34.8186563,70.3838711 L34.8186563,70.3138711 L34.8186563,70.1638711 L34.8186563,70.1638711 L34.9286563,70.1638711 L35.0386563,70.1638711 L35.3886563,70.1638711 L37.3886563,70.1638711 L37.3886563,70.1638711 C39.0786563,70.1638711 42.9186563,70.0838711 45.7186563,70.0738711 L45.6086563,70.0738711 C47.9486563,70.0738711 52.3386563,70.0738711 54.0186563,70.0738711 C57.8586563,70.0738711 63.7786563,70.1638711 68.9086563,70.0738711 L72.2286563,70.1938711 L72.7086563,70.1938711 C72.7086563,70.1938711 78.0486563,68.7638711 71.2686563,68.4638711 L71.3786563,68.4638711 L69.9386563,68.4638711 C68.3286563,68.4638711 67.5886563,68.4638711 67.6986563,68.4638711 L69.8986563,68.4638711 C68.2786563,68.4638711 69.4086563,68.4638711 70.0286563,68.4038711 L68.1586563,68.4038711 C67.8386563,68.4038711 68.3986563,68.4038711 68.6486563,68.4038711 C67.7786563,68.4038711 66.5686563,68.4538711 65.5086563,68.4038711 C63.8586563,68.4038711 65.4086563,68.3438711 63.5086563,68.3338711 L48.6486563,68.3338711 L32.4386563,68.3338711 L32.6186563,69.3338711 C32.6786563,69.7738711 32.6186563,69.2438711 32.4786563,68.6538711 C33.0786563,72.1038711 33.6186563,75.1638711 34.1786563,78.3038711 C34.2886563,79.0738711 34.2986563,79.3038711 34.3286563,79.5238711 C34.3286563,79.4438711 34.3286563,79.7938711 34.4986563,80.4338711 C34.6486563,81.2838711 34.8686563,82.5338711 35.1286563,83.9838711 L40.9886563,83.9838711 C41.4986563,86.7838711 41.9886563,89.2738711 41.9886563,89.3638711 L42.0986563,89.5438711 C42.6486563,92.5438711 42.1686563,90.4338711 42.6986563,93.2038711 C42.9986563,94.2738711 43.5186563,97.8238711 43.7586563,98.7738711 C43.7525831,98.8403995 43.7525831,98.9073428 43.7586563,98.9738711 L43.8286563,99.4238711 C43.868645,99.6252344 43.8953691,99.829006 43.9086563,100.033871 C44.0386563,100.433871 44.1786563,101.423871 44.3486563,102.283871 C44.4186563,102.593871 44.3486563,102.053871 44.3486563,101.813871 L44.7286563,103.813871 C44.8486563,104.583871 44.8486563,104.813871 44.7286563,103.953871 L47.0186563,116.693871 L61.9486563,116.693871 L71.7786563,116.693871 C71.0586563,116.693871 69.3286563,116.693871 68.6686563,116.613871 C70.1486563,116.613871 70.8586563,116.613871 71.5086563,116.613871 C72.1586563,116.613871 74.7786563,116.613871 75.8986563,116.733871 L76.3286563,116.733871 L77.0686563,116.733871 C83.5986563,116.673871 78.5586563,116.733871 84.3486563,116.733871 C87.6586563,116.733871 89.2486563,116.653871 91.0786563,116.673871 C90.7686563,116.673871 90.2286563,116.673871 91.0186563,116.623871 C91.1686563,116.683871 93.3286563,116.623871 93.7486563,116.623871 C94.5986563,116.623871 97.3586563,116.623871 96.4286563,116.553871 C96.8986563,116.553871 99.3586563,116.553871 97.8886563,116.633871 C98.7186563,116.633871 99.5186563,116.633871 100.118656,116.633871 L99.0586563,116.633871 C101.858656,116.633871 103.388656,116.633871 105.208656,116.633871 L104.208656,116.633871 L106.458656,116.633871 L107.318656,116.633871 L108.178656,116.633871 L106.178656,116.633871 L109.428656,116.633871 C109.608656,115.573871 109.768656,114.633871 109.928656,113.633871 L110.268656,111.473871 L110.128656,112.283871 C110.558656,109.363871 113.128656,94.1438711 113.488656,91.4538711 L113.218656,92.6738711 L113.568656,90.3638711 C113.568656,90.6338711 113.568656,91.5038711 113.498656,91.7338711 C113.718656,90.4238711 114.208656,87.5538711 114.818656,83.9438711 L120.758656,83.9438711 C121.688656,78.6938711 122.678656,73.0838711 123.468656,68.6438711 L115.178656,68.2538711 Z M78.7086563,69.1138711 L78.7086563,69.3538711 L78.7086563,69.3538711 C78.6686563,69.1838711 78.6386563,69.0938711 78.6786563,69.1138711 L78.7086563,69.1138711 Z M79.1686563,53.0238711 L78.8686563,52.9138711 L78.8686563,52.9138711 C79.0586563,52.9838711 79.1686563,53.0038711 79.1386563,53.0238711 L79.1686563,53.0238711 Z M79.1686563,48.6638711 L79.1686563,48.6638711 C79.2525274,48.3111579 79.3159663,47.9538969 79.3586563,47.5938711 C79.4007766,47.2525696 79.4812863,46.9171128 79.5986563,46.5938711 L79.5986563,46.6738711 C79.6986563,46.4138711 79.7886563,45.8738711 79.9686563,45.4138711 C79.9686563,45.5438711 79.8386563,45.6438711 79.9686563,45.3638711 C80.1886563,44.8338711 80.2886563,44.4538711 80.4586563,44.0738711 C80.4586563,43.9438711 80.5386563,43.8238711 80.5786563,43.6938711 C80.6186563,43.5638711 80.8186563,43.1638711 80.9886563,42.7938711 C80.9886563,42.7038711 81.0686563,42.6038711 81.1186563,42.5038711 L81.2886563,42.2138711 L81.6486563,41.5738711 C81.7186563,41.4638711 81.7686563,41.3438711 81.8486563,41.2338711 L82.0786563,40.8938711 L82.5686563,40.2038711 L83.1386563,39.5338711 L83.4286563,39.2038711 L83.7586563,38.8938711 C84.5675759,38.0904068 85.4950446,37.4158841 86.5086563,36.8938711 L87.1586563,36.5738711 C87.3686563,36.4738711 87.5786563,36.4038711 87.7686563,36.3338711 L88.2786563,36.1338711 L88.6886563,36.0138711 L88.6186563,36.0138711 C89.0196194,35.8892651 89.4268462,35.7857895 89.8386563,35.7038711 C90.0686563,35.7038711 90.2986563,35.6038711 90.5486563,35.5738711 L91.3086563,35.4638711 C92.4382682,35.3492267 93.575283,35.3258175 94.7086563,35.3938711 C96.8266361,35.5563321 98.9215649,35.941799 100.958656,36.5438711 C101.188656,36.6438711 101.468656,36.7338711 101.748656,36.8338711 L102.098656,36.9638711 L102.198656,36.9638711 C102.198656,36.9638711 102.198656,36.9638711 102.198656,36.9638711 L102.258656,36.9638711 L102.348656,36.9638711 C102.348656,36.9638711 102.348656,36.9638711 102.348656,36.9638711 C102.348656,36.9638711 102.348656,36.9638711 102.348656,36.9638711 C102.348656,36.9638711 102.348656,36.9638711 102.348656,36.9638711 C102.352013,36.9837303 102.352013,37.004012 102.348656,37.0238711 L102.348656,37.0738711 L102.288656,37.3238711 C102.288656,37.5538711 102.168656,37.8538711 102.088656,38.2238711 C102.008656,38.5938711 101.868656,38.9938711 101.728656,39.4538711 C101.668656,39.6838711 101.588656,39.9138711 101.518656,40.1638711 C101.448656,40.4138711 101.348656,40.6438711 101.258656,40.8938711 C101.168656,41.1438711 101.068656,41.3938711 100.968656,41.6538711 L100.828656,42.0338711 C100.768656,42.1638711 100.708656,42.2838711 100.658656,42.4038711 C100.418656,42.9038711 100.208656,43.4038711 99.9586563,43.8638711 C99.7086563,44.3238711 99.4686563,44.7538711 99.2386563,45.1438711 L98.5586563,46.1438711 L98.4186563,46.3438711 L98.2786563,46.5138711 L98.0486563,46.7938711 C97.9386563,46.9738711 97.7986563,47.1538711 97.6586563,47.3438711 C97.5130117,47.5300132 97.3560483,47.7070145 97.1886563,47.8738711 L96.6986563,48.3938711 L96.2186563,48.8538711 L96.2786563,48.7838711 C95.4305079,49.5575818 94.4819743,50.2134827 93.4586563,50.7338711 C92.3981165,51.265492 91.2764223,51.6651375 90.1186563,51.9238711 L90.2586563,51.9238711 C89.7727698,52.0561195 89.2721674,52.1266742 88.7686563,52.1338711 C88.7686563,52.1338711 88.6586563,52.2238711 88.4386563,52.2638711 L87.7986563,52.3538711 L87.7986563,52.3538711 C87.0552469,52.4395466 86.3067427,52.4729619 85.5586563,52.4538711 L85.5586563,52.4538711 C85.1576892,52.4521123 84.7571083,52.4287451 84.3586563,52.3838711 C83.9286563,52.3838711 83.5186563,52.2738711 83.2986563,52.2338711 C82.142567,52.0419946 80.9975917,51.7882974 79.8686563,51.4738711 L80.3186563,51.2238711 C80.3186563,51.2238711 80.3186563,51.2238711 80.3186563,51.2238711 C80.4586563,51.1138711 80.5986563,51.0438711 80.7186563,50.9438711 C80.7481115,50.9357858 80.779201,50.9357858 80.8086563,50.9438711 C81.0526153,50.7725299 81.3063815,50.6155955 81.5686563,50.4738711 L81.5186563,50.4738711 C81.6586563,50.3838711 81.5986563,50.4738711 81.7286563,50.4238711 C81.8586563,50.3738711 81.9686563,50.3038711 81.9786563,50.2238711 C81.9886563,50.1438711 82.0586563,50.2238711 82.0686563,50.2238711 C82.0786563,50.2238711 82.1286563,50.1738711 82.1686563,50.1338711 C82.2086563,50.0938711 82.1686563,50.1338711 82.1686563,50.1338711 L82.2486563,50.0538711 C82.2486563,50.0538711 82.3286563,50.0538711 82.2486563,50.0538711 C82.5086563,49.9238711 83.7686563,49.2538711 84.0286563,49.0538711 C83.9686563,49.0538711 83.8986563,49.0538711 83.8286563,49.0538711 C83.7586563,49.0538711 83.9486563,49.0538711 83.9586563,48.9538711 C83.9686563,48.8538711 84.1286563,48.8838711 84.2386563,48.9538711 L84.2386563,48.8838711 L84.2886563,48.8838711 C84.5786563,48.6538711 84.3486563,48.8238711 84.6386563,48.6638711 C84.9286563,48.5038711 84.8386563,48.4438711 84.9386563,48.4238711 C85.0386563,48.4038711 84.8686563,48.4238711 84.9386563,48.4238711 C85.0086563,48.4238711 85.0286563,48.3238711 85.0786563,48.3538711 C85.1286563,48.3838711 85.2586563,48.2538711 85.1786563,48.2238711 C85.0986563,48.1938711 85.3386563,48.2238711 85.2886563,48.2238711 C85.2386563,48.2238711 85.3686563,48.2238711 85.3886563,48.1638711 L85.3186563,48.1638711 C85.4486563,48.0738711 85.5586563,48.0738711 85.6086563,47.9738711 L85.5186563,47.9738711 C85.5986563,47.9738711 85.6586563,47.8838711 85.7286563,47.9738711 L85.6586563,48.0438711 C85.7694535,47.9778128 85.8733116,47.9007568 85.9686563,47.8138711 L85.9686563,47.8138711 C86.0786563,47.6738711 86.8086563,47.1838711 86.8986563,47.0338711 L86.8086563,47.0338711 L86.8986563,46.9238711 C86.8986563,46.9238711 86.8986563,47.1038711 86.8986563,47.0938711 C87.1486563,46.9538711 88.3986563,46.1738711 88.6386563,46.0938711 C88.8786563,46.0138711 88.6986563,46.1538711 88.6986563,46.1638711 C88.6986563,46.1738711 88.6986563,46.0838711 88.8186563,46.0338711 C88.9386563,45.9838711 88.8186563,46.0338711 88.8186563,46.0938711 C88.8186563,46.1538711 88.9086563,46.0938711 88.8986563,46.0338711 C88.8886563,45.9738711 88.8286563,45.9738711 88.7786563,45.9538711 L88.9086563,45.8838711 L88.9086563,45.8838711 C88.9086563,45.8838711 88.9086563,45.7438711 89.0586563,45.6938711 C89.2086563,45.6438711 89.4786563,45.4538711 89.6786563,45.3438711 C89.6786563,45.3438711 89.6786563,45.4038711 89.6186563,45.4438711 C89.5586563,45.4838711 89.6886563,45.4438711 89.7186563,45.4438711 C89.7486563,45.4438711 89.7886563,45.3638711 89.7186563,45.3738711 C89.8086563,45.1938711 90.0486563,45.1638711 90.1486563,45.0338711 C90.2486563,44.9038711 89.6386563,43.5138711 89.5786563,43.4138711 L89.6786563,43.4138711 C89.6786563,43.4138711 89.5686563,43.4138711 89.5386563,43.4738711 L89.5386563,43.4738711 C89.4486563,43.5538711 89.5386563,43.4738711 89.3986563,43.4738711 C89.2586563,43.4738711 89.4586563,43.3838711 89.5286563,43.3338711 C89.5986563,43.2838711 89.3686563,43.3338711 89.3686563,43.4338711 C89.3686563,43.5338711 89.3686563,43.4338711 89.2586563,43.4338711 C89.1486563,43.4338711 89.1586563,43.5638711 89.0786563,43.5738711 L89.0786563,43.5738711 C88.8986563,43.5738711 88.8786563,43.7738711 88.7086563,43.8138711 L88.7086563,43.8138711 C88.6386563,43.8138711 88.5586563,43.9138711 88.4586563,43.9338711 C88.3586563,43.9538711 88.5286563,43.9338711 88.4586563,43.9338711 C88.3674669,43.9786993 88.2740073,44.0187534 88.1786563,44.0538711 L88.1786563,44.1338711 C87.8086563,44.3338711 86.4086563,45.2338711 86.0386563,45.4538711 L86.0386563,45.4538711 C85.4886563,45.7938711 84.3386563,46.4538711 83.7986563,46.8538711 C83.6811216,46.8802801 83.5693258,46.9277087 83.4686563,46.9938711 C83.5286563,46.9938711 83.5286563,46.9938711 83.4686563,46.9938711 C83.1786563,47.1538711 83.4686563,46.9938711 83.1886563,47.2238711 C82.5693868,47.6135174 81.9283402,47.9674285 81.2686563,48.2838711 C81.1486563,48.4338711 80.9286563,48.5038711 80.7986563,48.6338711 L80.7986563,48.6338711 C80.6486563,48.7538711 79.6786563,49.2438711 79.4986563,49.3838711 L79.4986563,49.3838711 C79.3486563,49.5138711 79.3386563,49.4438711 79.1986563,49.4938711 C79.1986563,49.5538711 79.1286563,49.6738711 79.0786563,49.7138711 L79.0786563,49.7138711 L78.8886563,49.8938711 C78.893082,49.8372909 78.893082,49.7804514 78.8886563,49.7238711 C78.9461937,49.3630539 79.0365691,49.0082465 79.1586563,48.6638711 L79.1686563,48.6638711 Z M74.6186563,51.5538711 C73.3091553,51.9053743 71.9702419,52.1363368 70.6186563,52.2438711 C69.2859801,52.3582497 67.9448393,52.3280741 66.6186563,52.1538711 C66.5586563,52.1538711 66.6186563,52.1538711 66.7086563,52.1538711 C66.3084963,52.1147856 65.9110921,52.0513345 65.5186563,51.9638711 C65.1811561,51.8981921 64.8473583,51.8147427 64.5186563,51.7138711 C64.4170985,51.6739548 64.3199196,51.6236899 64.2286563,51.5638711 C64.0391198,51.5296672 63.8544358,51.472583 63.6786563,51.3938711 L63.0686563,51.1638711 C62.8347408,51.0772403 62.6074688,50.973631 62.3886563,50.8538711 C61.9577498,50.6469292 61.5402619,50.413136 61.1386563,50.1538711 C60.9954355,50.0794654 60.8612246,49.9888731 60.7386563,49.8838711 L60.5186563,49.7638711 L60.4286563,49.7638711 C60.1086563,49.5338711 60.0786563,49.4838711 60.0486563,49.4338711 C60.0186563,49.3838711 59.9886563,49.3638711 59.7086563,49.1238711 C59.4912262,48.9992098 59.2925804,48.8443335 59.1186563,48.6638711 C58.8886563,48.4638711 58.7186563,48.2138711 58.6086563,48.1538711 C58.4986563,48.0938711 58.3686563,47.8838711 58.4086563,47.8738711 C58.2886563,47.8738711 58.1386563,47.6238711 57.9786563,47.4538711 C57.8186563,47.2838711 57.9786563,47.5138711 57.9786563,47.5738711 L57.6386563,47.1738711 C57.5286563,47.0038711 57.5186563,46.9438711 57.6386563,47.1138711 C56.6723945,45.8838641 55.85973,44.5406169 55.2186563,43.1138711 C54.7786563,42.1938711 54.4586563,41.2138711 54.1486563,40.4038711 C53.8386563,39.5938711 53.6986563,38.8838711 53.5786563,38.5238711 C53.5786563,38.7238711 53.7586563,39.1638711 53.7386563,39.3538711 C53.5886563,38.9738711 53.5886563,38.7838711 53.4986563,38.6238711 C53.4086563,38.4638711 53.3086563,37.7538711 53.3386563,37.4238711 L53.2586563,37.3238711 C53.2586563,37.3238711 53.2586563,37.2438711 53.2586563,37.2438711 L53.2586563,37.2438711 L53.2586563,37.2438711 L53.2586563,37.2438711 L53.2586563,37.2438711 L53.3786563,37.2438711 C53.9971291,36.9519605 54.6314543,36.6948919 55.2786563,36.4738711 C55.2086563,36.4738711 54.9986563,36.4738711 55.2786563,36.4738711 C55.2786563,36.4738711 55.8686563,36.2738711 55.9986563,36.2938711 C56.1286563,36.3138711 56.9986563,36.0638711 56.6786563,36.0538711 C56.8186563,36.0538711 57.4686563,35.9438711 57.0886563,36.0538711 C57.2873561,36.0246148 57.4843146,35.9845555 57.6786563,35.9338711 L57.3886563,35.9338711 C57.7586563,35.8438711 58.0486563,35.8138711 58.3086563,35.7738711 C58.5686563,35.7338711 58.7886563,35.6838711 59.0286563,35.6238711 L58.7486563,35.6238711 C59.0777354,35.5586962 59.4137064,35.5351783 59.7486563,35.5538711 L59.2986563,35.6338711 L60.2986563,35.5238711 L61.1586563,35.4238711 L60.9286563,35.4238711 C61.8747169,35.3171037 62.8280968,35.290355 63.7786563,35.3438711 C64.7083861,35.3970111 65.6336737,35.5105843 66.5486563,35.6838711 L66.2386563,35.5438711 L66.8486563,35.6638711 C66.7786563,35.6638711 66.5186563,35.7538711 66.4586563,35.7238711 C68.0051653,36.1050582 69.4624077,36.7844253 70.7486563,37.7238711 L71.3486563,38.1738711 C71.5386563,38.3338711 71.7186563,38.5038711 71.8986563,38.6738711 C72.0783017,38.8268592 72.2486076,38.9904864 72.4086563,39.1638711 L72.8386563,39.6538711 C72.9686563,39.8138711 73.1186563,39.9538711 73.2186563,40.1038711 L73.5186563,40.5238711 L73.9186563,41.1038711 C74.1486563,41.5338711 73.9186563,41.2238711 73.9186563,41.2138711 C74.2286563,41.7338711 74.0886563,41.4138711 74.3386563,41.8638711 C74.3986563,41.9838711 74.3386563,41.8638711 74.2486563,41.7938711 C74.3105214,41.9289258 74.3876938,42.056428 74.4786563,42.1738711 C74.3586563,41.9238711 74.4786563,41.9938711 74.4786563,41.8738711 L74.8086563,42.4538711 L74.8086563,42.4538711 C75.0098727,42.7350762 75.1808212,43.03675 75.3186563,43.3538711 C75.5586563,43.8538711 75.7286563,44.4138711 75.9286563,44.9538711 C76.119499,45.4978166 76.2797496,46.0520165 76.4086563,46.6138711 C76.3365594,46.4666899 76.2796003,46.3125654 76.2386563,46.1538711 C76.2386563,46.3038711 76.3386563,46.5238711 76.3586563,46.6638711 C76.3586563,46.3938711 76.5086563,47.1138711 76.4686563,46.9038711 C76.6301061,47.3259411 76.7408812,47.7656846 76.7986563,48.2138711 C76.8786563,48.6738711 76.9786563,49.1138711 77.0586563,49.4738711 C77.0586563,49.4738711 77.5386563,49.8238711 77.9786563,50.1738711 L78.2986563,50.4138711 L78.1786563,50.4738711 L77.9686563,50.3438711 L77.8686563,50.2838711 L77.7886563,50.2838711 C77.7397564,50.2536074 77.6853981,50.2332231 77.6286563,50.2238711 L77.7286563,50.3138711 C77.5386563,50.2038711 77.3786563,50.1138711 77.3386563,50.0138711 L77.5386563,50.1138711 C77.2902639,49.9622017 77.0331518,49.8252979 76.7686563,49.7038711 L76.8586563,49.7638711 C76.4986563,49.6338711 74.7486563,48.6738711 74.3986563,48.5738711 L74.5086563,48.7038711 L74.2286563,48.5838711 C74.2286563,48.5838711 74.4386563,48.5138711 74.4586563,48.5838711 C73.8986563,48.2638711 70.9686563,46.5838711 70.4586563,46.2738711 C70.2586563,46.1238711 70.4586563,46.1738711 70.4586563,46.1738711 C70.1986563,46.0438711 70.3186563,46.1738711 70.1086563,46.0238711 C70.0486563,46.0238711 70.1086563,46.0238711 70.1786563,46.0238711 C70.2486563,46.0238711 69.9986563,45.9038711 69.9786563,45.9238711 C69.9586563,45.9438711 69.9786563,46.0338711 70.0386563,46.1038711 L69.7586563,45.9338711 L69.7586563,45.9338711 C69.5878851,45.9141208 69.4237919,45.8560044 69.2786563,45.7638711 C68.8286563,45.4838711 68.2786563,45.2038711 67.8686563,44.9238711 C67.8686563,44.9238711 67.9886563,44.9238711 68.0986563,44.9938711 L67.8886563,44.8638711 C67.9786563,44.9638711 67.6786563,44.7738711 67.7586563,44.8638711 C67.3686563,44.7638711 66.9786563,44.4238711 66.6486563,44.3138711 C66.5686563,44.3738711 65.2186563,45.3138711 65.1586563,45.3838711 L64.9586563,45.2538711 C65.041059,45.3366814 65.1398291,45.4013928 65.2486563,45.4438711 L65.2486563,45.4438711 C65.4886563,45.5638711 65.2486563,45.5038711 65.5086563,45.6338711 C65.5086563,45.6338711 65.2886563,45.5738711 65.1086563,45.4738711 C65.2686563,45.5738711 65.4086563,45.6938711 65.4986563,45.6838711 C65.5886563,45.6738711 65.4986563,45.6838711 65.6186563,45.8438711 C65.7804543,45.9022901 65.9348423,45.9794841 66.0786563,46.0738711 L66.0786563,46.0738711 C66.4186563,46.3238711 66.6686563,46.3338711 66.9686563,46.5638711 L66.9686563,46.5638711 C67.0786563,46.6538711 67.3186563,46.7538711 67.5186563,46.9038711 C67.4586563,46.9038711 67.4286563,46.8038711 67.5186563,46.9038711 C67.6086563,47.0038711 67.9286563,47.1438711 68.0786563,47.2738711 L68.2686563,47.3338711 C69.0986563,47.8238711 72.4286563,49.6938711 73.2686563,50.1738711 L73.2686563,50.1738711 L75.2686563,51.2938711 L75.7786563,51.5938711 C75.6421221,51.6476976 75.5017243,51.6911541 75.3586563,51.7238711 C74.7286563,51.5938711 75.1086563,51.4138711 74.6086563,51.5538711 L74.6186563,51.5538711 Z M107.658656,114.273871 L88.2286563,114.273871 C86.4086563,114.273871 83.8786563,114.273871 81.9786563,114.273871 C83.0386563,114.273871 82.6786563,114.273871 81.8486563,114.273871 C76.0386563,114.273871 81.4486563,114.273871 75.5786563,114.273871 L63.6986563,114.273871 L48.5186563,114.373871 C47.7186563,109.873871 47.0586563,106.143871 46.7386563,104.373871 C46.0886563,101.213871 45.4186563,97.2338711 44.8086563,94.1338711 L44.8786563,94.4438711 C44.6086563,92.9638711 43.8186563,88.5638711 42.9286563,83.6738711 C43.1682283,83.6536009 43.4090843,83.6536009 43.6486563,83.6738711 C44.1286563,83.6738711 43.6486563,83.7438711 44.2386563,83.7438711 C47.2386563,83.7438711 50.0986563,83.8338711 53.0986563,83.8338711 C53.1686563,83.8338711 53.0986563,83.8338711 52.9986563,83.8338711 C53.9086563,83.8338711 54.7086563,83.8338711 55.5386563,83.8338711 C55.6600003,83.844743 55.7803453,83.8648005 55.8986563,83.8938711 C55.7586563,83.8938711 60.4486563,83.8938711 60.5286563,83.8938711 L60.5286563,83.8138711 C61.4286563,83.8138711 60.7886563,83.9038711 61.6186563,83.8838711 C62.1682606,83.8543665 62.719052,83.8543665 63.2686563,83.8838711 C63.2686563,83.8838711 63.6686563,83.8838711 63.6386563,83.8838711 C63.8614417,83.8617472 64.0858708,83.8617472 64.3086563,83.8838711 C64.4086563,83.8838711 64.2486563,83.8838711 64.1786563,83.8838711 L64.7586563,83.8838711 C64.9886563,83.8838711 65.0486563,83.9438711 64.7586563,83.9438711 C66.2786563,83.9438711 73.5986563,84.0438711 75.2386563,84.0138711 C74.9341425,84.0029773 74.6304,83.9762746 74.3286563,83.9338711 C74.7586563,83.9338711 74.9686563,83.9338711 75.1586563,83.9338711 C75.3486563,83.9338711 76.1586563,83.9338711 76.4386563,84.0638711 L76.5686563,84.0138711 L76.7786563,84.0138711 C78.6886563,84.0138711 77.2186563,84.0138711 78.9086563,84.0138711 C79.9086563,84.0138711 80.3586563,83.9238711 80.9086563,83.9638711 C80.8286563,83.9638711 80.6186563,83.9638711 80.9086563,83.9038711 C80.9086563,83.9638711 81.5886563,83.9038711 81.7086563,83.9038711 C81.8286563,83.9038711 82.7586563,83.9038711 82.4886563,83.8338711 C82.6286563,83.8338711 83.3386563,83.8838711 82.9186563,83.9138711 C83.1350611,83.9289356 83.3522515,83.9289356 83.5686563,83.9138711 L83.2586563,83.9138711 C84.0786563,83.9138711 84.5186563,83.9138711 85.0586563,83.9138711 L84.7486563,83.9138711 C85.1130737,83.8888568 85.4791861,83.9090097 85.8386563,83.9738711 L85.3386563,83.9738711 C86.1486563,83.9738711 86.6386563,83.9738711 87.3386563,83.9738711 L87.0986563,83.9738711 C87.9586563,83.9038711 92.4686563,83.8638711 93.2586563,83.7738711 L92.8986563,83.7738711 L93.5786563,83.7738711 C93.4986563,83.7738711 93.2486563,83.9538711 93.1786563,83.9338711 C94.6386563,83.9338711 102.248656,83.9338711 103.608656,83.9338711 C104.148656,83.9338711 103.698656,84.0238711 103.698656,84.0238711 C104.358656,84.0238711 103.978656,83.9738711 104.548656,83.9738711 C104.698656,83.9738711 104.548656,84.0238711 104.428656,84.0238711 C104.591372,84.0439551 104.75594,84.0439551 104.918656,84.0238711 C104.618656,84.0238711 104.748656,83.9438711 104.618656,83.8938711 L105.338656,83.8938711 L105.338656,83.8938711 C105.708131,83.827187 106.083274,83.7970416 106.458656,83.8038711 C107.668656,83.8038711 108.968656,83.8038711 110.178656,83.8038711 C110.00493,83.8444476 109.827057,83.8645842 109.648656,83.8638711 C109.835184,83.853695 110.022128,83.853695 110.208656,83.8638711 C109.918656,83.8638711 110.718656,83.8638711 110.488656,83.8638711 C111.228656,83.7838711 112.148656,83.8638711 112.888656,83.8138711 C112.348656,86.9538711 112.098656,88.4438711 111.888656,89.5138711 L111.888656,89.2238711 C110.908656,95.1138711 109.238656,104.933871 107.658656,114.273871 Z" id="Shape" fill="#373835"></path>
            </g>
        </g>
    </g>
</svg>