<?xml version="1.0" encoding="UTF-8"?>
<svg width="158px" height="157px" viewBox="0 0 158 157" version="1.1" xmlns="http://www.w3.org/2000/svg" xmlns:xlink="http://www.w3.org/1999/xlink">
    <title>2BBF9441-51A2-45C4-A6DD-2DEDC0CAC4C3</title>
    <g id="Desktop" stroke="none" stroke-width="1" fill="none" fill-rule="evenodd">
        <g id="0.0-Exportable-Items-Copy" transform="translate(-109.000000, -8527.000000)" fill-rule="nonzero">
            <g id="icon-independent-brands-big" transform="translate(109.751974, 8527.147380)">
                <circle id="Oval" fill="#FFFEF7" cx="78.3580262" cy="77.85262" r="75"></circle>
                <path d="M16.2880262,30.85262 C14.8419214,32.5071035 13.5278874,34.2725233 12.3580262,36.13262 C13.5380262,34.62262 14.6580262,32.94262 16.2880262,30.85262 Z" id="Path" fill="#FFFEF8"></path>
                <polygon id="Path" fill="#FFFEF8" points="12.3580262 36.17262 12.3580262 36.17262 12.4080262 36.10262"></polygon>
                <path d="M23.3580262,32.03262 L24.5480262,30.59262 L23.3580262,32.03262 Z" id="Path" fill="#FFFEF8"></path>
                <path d="M34.1680262,142.70262 L34.6080262,142.70262 C35.8280262,143.54262 36.5180262,144.01262 36.9680262,144.29262 C37.2241957,144.458265 37.4681549,144.64207 37.6980262,144.84262 C37.9060546,145.02149 38.1266181,145.185241 38.3580262,145.33262 C39.083368,145.807295 39.8345259,146.241297 40.6080262,146.63262 C41.338005,146.921626 42.0493689,147.2556 42.7380262,147.63262 L45.6380262,149.04262 C46.6380262,149.55262 47.6380262,149.96262 48.5280262,150.34262 C49.1958752,150.647063 49.8842259,150.904359 50.5880262,151.11262 C51.3628017,151.403232 52.1206597,151.73709 52.8580262,152.11262 C53.6780262,152.24262 55.4880262,152.89262 57.1080262,153.35262 C57.7080262,153.48262 56.6980262,153.17262 56.2780262,152.98262 C57.5080262,153.36262 58.7680262,153.61262 60.0080262,153.91262 C61.4580262,154.33262 61.7980262,154.53262 60.1980262,154.15262 C64.5966405,155.214854 69.0809395,155.884152 73.5980262,156.15262 C76.9081668,156.358325 80.2278857,156.358325 83.5380262,156.15262 C87.1712993,155.910662 90.7853565,155.436359 94.3580262,154.73262 C105.848046,152.392185 116.658586,147.479236 125.978026,140.36262 C124.342091,141.532133 122.642839,142.61044 120.888026,143.59262 C121.478026,143.17262 121.988026,142.83262 122.448026,142.52262 L123.638026,141.68262 C124.232215,141.289261 124.803168,140.861881 125.348026,140.40262 C126.457084,139.756142 127.50477,139.009708 128.478026,138.17262 C129.788026,137.08262 131.188026,135.87262 132.098026,135.25262 L132.558026,134.54262 L133.658026,133.62262 C135.424646,131.823168 137.093699,129.930461 138.658026,127.95262 C140.10355,126.33665 141.439841,124.626198 142.658026,122.83262 C145.105817,119.191529 147.262509,115.362983 149.108026,111.38262 C148.878026,111.86262 148.108026,113.10262 148.838026,111.57262 C149.257001,110.872764 149.611781,110.136428 149.898026,109.37262 C150.203768,108.479906 150.574769,107.610894 151.008026,106.77262 C151.338026,106.02262 151.878026,104.36262 152.318026,103.13262 C152.758026,101.90262 152.898026,101.02262 152.548026,101.85262 C152.728026,101.44262 153.178026,100.10262 153.488026,99.21262 C153.798026,98.32262 153.938026,97.86262 153.608026,99.21262 C154.038026,97.67262 154.428026,96.21262 154.608026,95.04262 L154.058026,97.04262 C154.218026,96.39262 154.368026,95.77262 154.518026,95.18262 C154.668026,94.59262 154.758026,94.03262 154.868026,93.50262 C155.088026,92.43262 155.318026,91.50262 155.448026,90.56262 C155.578026,89.62262 155.708026,88.79262 155.828026,87.94262 C155.948026,87.09262 155.968026,86.25262 156.018026,85.37262 L155.728026,87.37262 C156.098026,84.17262 156.178026,81.49262 156.458026,80.23262 L156.358026,83.51262 C156.696133,79.1804866 156.598981,74.8253667 156.068026,70.51262 L156.198026,72.10262 C155.539269,65.3179455 154.044609,58.6406789 151.748026,52.22262 C150.348028,48.3598251 148.642638,44.6146536 146.648026,41.02262 C145.748026,39.47262 144.928026,38.09262 144.208026,37.02262 C143.488026,35.95262 142.888026,35.09262 142.508026,34.56262 L143.658026,36.66262 C142.818026,35.44262 141.978026,34.21262 141.058026,33.05262 C141.358026,33.48262 142.768026,34.48262 142.938026,34.90262 C140.443753,31.1693958 137.62625,27.6625748 134.518026,24.42262 C124.843307,14.3287766 112.645275,7.0058147 99.1880262,3.21262002 C95.0090321,2.03671006 90.7417927,1.2006522 86.4280262,0.712620024 C82.8880262,0.262620024 85.8080262,0.372620024 85.8580262,0.352620024 C84.8627241,0.233963398 83.8596258,0.193839465 82.8580262,0.232620024 C82.4680262,0.232620024 82.1580262,0.232620024 80.3080262,0.172620024 C79.3080262,0.172620024 80.5180262,0.0226200237 81.0880262,0.0426200237 C80.0054381,-0.0142066746 78.9206144,-0.0142066746 77.8380262,0.0426200237 C79.8380262,0.112620024 79.0080262,0.322620024 79.8380262,0.462620024 C78.2580262,0.462620024 76.6780262,0.462620024 75.1080262,0.462620024 L75.3080262,0.322620024 C74.2480262,0.322620024 72.6380262,0.722620024 68.0280262,1.24262002 C59.9956259,2.31250013 52.1826638,4.64457652 44.8780262,8.15262002 C45.8677002,7.56918641 46.8893029,7.04169217 47.9380262,6.57262002 C46.9380262,7.00262002 45.5080262,7.69262002 44.5980262,8.04262002 C45.4980262,7.72262002 44.7380262,8.04262002 43.9680262,8.48262002 C43.1980262,8.92262002 42.3680262,9.32262002 43.0380262,9.01262002 C40.5180262,10.43262 37.7080262,12.17262 35.0380262,13.93262 C32.5722794,15.5908577 30.2325632,17.4292061 28.0380262,19.43262 C27.9680262,19.69262 26.7180262,22.43262 25.8080262,25.14262 C25.2880262,26.46262 24.9380262,27.85262 24.6580262,28.85262 C24.4527756,29.4233412 24.3511783,30.0261519 24.3580262,30.63262 C23.3580262,31.76262 22.4480262,32.85262 22.1280262,33.20262 C22.4580262,32.98262 24.2780262,30.74262 25.3180262,29.60262 L25.3180262,29.28262 C27.6880262,26.65262 25.9180262,28.71262 28.3180262,26.28262 C28.4380262,26.28262 27.9380262,26.83262 27.1580262,27.63262 L24.4680262,30.63262 L26.9280262,28.04262 C27.531113,27.4847793 28.0957376,26.886745 28.6180262,26.25262 C29.4880262,25.45262 29.4680262,25.53262 29.4980262,25.57262 C29.5280262,25.61262 29.5880262,25.57262 30.6780262,24.68262 C32.3382088,23.0441591 34.1309787,21.5457246 36.0380262,20.20262 L36.0380262,20.20262 C37.2080262,19.41262 38.2080262,18.68262 39.1880262,18.06262 C40.1680262,17.44262 41.0080262,16.81262 41.9180262,16.28262 C43.802264,15.06739 45.7821087,14.0072367 47.8380262,13.11262 L47.3480262,13.38262 C49.9771462,12.1604473 52.6750209,11.091982 55.4280262,10.18262 C54.5380262,10.46262 53.7280262,10.62262 55.5880262,9.96262002 C58.4801797,9.0111012 61.4380757,8.27246278 64.4380262,7.75262002 C65.2980262,7.54262002 66.1580262,7.31262002 67.0280262,7.12262002 L69.9080262,6.73262002 L73.5980262,6.38262002 C76.7117638,6.19152843 79.8342887,6.19152843 82.9480262,6.38262002 C86.6710804,6.62101738 90.3712702,7.13576827 94.0180262,7.92262002 C97.9542595,8.81056836 101.810639,10.021331 105.548026,11.54262 C117.772622,16.5310009 128.387358,24.7895971 136.228026,35.41262 L135.908026,35.00262 C137.60705,37.2690499 139.166598,39.636758 140.578026,42.09262 C141.398026,43.42262 142.098026,44.89262 142.878026,46.37262 C143.658026,47.85262 144.338026,49.43262 144.958026,51.09262 C150.664061,65.2239804 151.738972,80.8014477 148.028026,95.58262 C147.638026,97.32262 147.028026,98.99262 146.598026,100.58262 C146.168026,102.17262 145.518026,103.76262 144.878026,105.22262 C143.785905,107.928037 142.53369,110.566037 141.128026,113.12262 C139.205755,116.284837 137.102244,119.333258 134.828026,122.25262 C136.008026,120.79262 135.708026,121.36262 134.828026,122.54262 C131.548026,126.54262 131.338026,126.54262 131.258026,126.76262 C131.086285,127.019241 130.892196,127.260178 130.678026,127.48262 C130.218026,128.04262 129.258026,129.00262 127.388026,130.84262 C123.891533,134.104384 120.083269,137.015009 116.018026,139.53262 C113.179074,141.234402 110.236689,142.757361 107.208026,144.09262 C103.935544,145.497537 100.566991,146.667174 97.1280262,147.59262 C93.705102,148.499359 90.2234165,149.167629 86.7080262,149.59262 C83.4845246,149.951742 80.240654,150.095394 76.9980262,150.02262 C72.4759812,149.945565 67.9732199,149.412872 63.5580262,148.43262 C57.8680262,147.56262 51.1280262,144.96262 46.0480262,142.55262 L46.5780262,142.75262 C43.887755,141.46062 41.288429,139.987223 38.7980262,138.34262 C34.7963657,135.722403 31.0676922,132.707303 27.6680262,129.34262 C24.2350932,125.935861 21.1437014,122.201406 18.4380262,118.19262 C16.6819082,115.560939 15.0856919,112.825999 13.6580262,110.00262 L14.0580262,110.85262 C13.4877866,109.840106 12.9704255,108.798708 12.5080262,107.73262 C12.1680262,106.94262 11.8980262,106.38262 11.7180262,105.83262 C11.5380262,105.28262 11.3580262,104.77262 11.1280262,104.11262 C10.8980262,103.45262 10.6080262,102.65262 10.2580262,101.50262 C10.2580262,101.84262 9.76802624,100.79262 9.25802624,99.39262 C8.74802624,97.99262 8.25802624,96.26262 7.99802624,95.27262 L8.06802624,95.34262 C7.89802624,94.60262 7.61802624,93.64262 7.36802624,92.52262 C7.11802624,91.40262 6.81802624,90.14262 6.60802624,88.79262 C6.39802624,87.44262 6.13802624,86.05262 6.01802624,84.65262 C5.94802624,83.96262 5.86802624,83.27262 5.79802624,82.65262 C5.72802624,82.03262 5.72802624,81.32262 5.69802624,80.65262 L5.83802624,80.84262 C5.83802624,80.31262 5.76802624,79.74262 5.71802624,79.12262 C5.66802624,78.50262 5.71802624,77.83262 5.71802624,77.12262 C5.71802624,75.75262 5.78802624,74.28262 5.85802624,72.85262 C5.92802624,71.42262 6.11802624,70.04262 6.22802624,68.85262 C6.33802624,67.66262 6.55802624,66.59262 6.66802624,65.85262 C7.40839054,61.7695949 8.48882007,57.7556152 9.89802624,53.85262 C11.5160598,49.4142817 13.5030055,45.119268 15.8380262,41.01262 C16.4180262,40.20262 16.9580262,39.38262 17.5480262,38.59262 L19.3580262,36.27262 C19.5080262,36.02262 19.6680262,35.78262 19.8380262,35.54262 C20.1135631,34.1950286 20.1339149,32.807714 19.8980262,31.45262 C19.849148,31.082521 19.6251395,30.7585629 19.2961308,30.5821666 C18.967122,30.4057704 18.5733255,30.3984957 18.2380262,30.56262 C17.5634421,30.8409586 16.9437798,31.2371361 16.4080262,31.73262 C15.9849573,32.0840499 15.5810438,32.4579203 15.1980262,32.85262 C14.7680262,33.32262 14.3080262,33.85262 13.7980262,34.51262 L13.7980262,34.27262 C13.3280262,34.99262 12.7980262,35.68262 12.3980262,36.42262 C11.5680262,37.73262 10.9980262,38.70262 10.6480262,39.32262 C10.2980262,39.94262 10.1780262,40.23262 10.1780262,40.11262 C10.8180262,38.85262 11.6180262,37.69262 12.3380262,36.47262 C10.6980262,39.11262 11.7580262,37.22262 12.3380262,36.16262 L10.4180262,39.16262 C10.1680262,39.72262 10.6880262,38.79262 10.9780262,38.40262 C10.5380262,39.12262 10.1280262,40.04262 9.65802624,40.96262 C9.18802624,41.88262 8.65802624,42.86262 8.22802624,43.77262 C7.53802624,45.21262 7.46802624,45.23262 7.37802624,45.31262 C7.28802624,45.39262 7.10802624,45.52262 6.37802624,47.25262 C-1.46489184,65.3793744 -2.09792294,85.8151919 4.60802624,104.39262 C4.69802624,104.84262 4.52802624,104.33262 4.31802624,103.79262 C6.18336179,109.072876 8.62122067,114.133026 11.5880262,118.88262 C12.0018288,119.561993 12.3790332,120.262992 12.7180262,120.98262 C15.49926,125.064449 18.6275302,128.898671 22.0680262,132.44262 C23.3880262,133.85262 24.8380262,135.14262 26.1780262,136.38262 C27.5180262,137.62262 28.8680262,138.69262 30.0380262,139.60262 L32.9280262,141.85262 L34.1680262,142.70262 Z" id="Path" fill="#FFFEF8"></path>
                <path d="M81.1380262,89.56262 C80.5580262,89.90262 79.9680262,90.28262 79.1380262,90.79262 C79.6480262,90.54262 80.4180262,90.04262 81.1380262,89.56262 Z" id="Path" fill="#373835"></path>
                <path d="M76.8180262,89.67262 L77.4180262,90.04262 L76.8180262,89.67262 Z" id="Path" fill="#373835"></path>
                <path d="M90.6080262,83.71262 C90.2470666,83.6083976 89.879594,83.5282218 89.5080262,83.47262 C89.7580262,83.55262 90.1980262,83.63262 90.6080262,83.71262 Z" id="Path" fill="#373835"></path>
                <path d="M52.4380262,98.25262 C52.5951612,98.3434435 52.763164,98.4140046 52.9380262,98.46262 C52.7797541,98.3741076 52.6120346,98.3036654 52.4380262,98.25262 L52.4380262,98.25262 Z" id="Path" fill="#373835"></path>
                <polygon id="Path" fill="#373835" points="52.4280262 98.25262 52.4280262 98.24262 52.4380262 98.25262"></polygon>
                <path d="M116.458026,87.40262 C116.348026,87.20262 116.218026,87.00262 116.118026,86.83262 C116.228026,87.03262 116.118026,86.97262 116.068026,86.83262 C115.708026,86.34262 115.688026,86.34262 115.668026,86.33262 C115.648026,86.32262 115.668026,86.33262 115.218026,85.86262 C114.292038,84.9581737 113.265322,84.1629723 112.158026,83.49262 C111.109412,82.8557914 110.020442,82.2879233 108.898026,81.79262 C108.308026,81.59262 107.608026,81.27262 107.028026,81.09262 L107.088026,81.09262 C106.788026,80.99262 105.768026,80.61262 104.738026,80.28262 C103.708026,79.95262 102.638026,79.66262 102.268026,79.57262 L102.368026,79.57262 C102.027826,79.4887408 101.693722,79.3818276 101.368026,79.25262 C101.368026,79.33262 100.868026,79.25262 100.658026,79.19262 L100.658026,79.19262 L99.0980262,78.92262 L99.0980262,78.92262 C98.6580262,78.86262 97.8480262,78.69262 97.5380262,78.63262 C96.9580262,78.51262 96.1280262,78.32262 95.3180262,78.20262 L95.5080262,78.02262 C95.8080262,77.71262 96.0980262,77.39262 96.3880262,77.08262 C96.9880262,76.47262 97.5480262,75.81262 98.1180262,75.16262 C98.4080262,74.83262 98.6680262,74.49262 98.9480262,74.16262 C99.2280262,73.83262 99.4980262,73.48262 99.7480262,73.16262 C99.8580262,73.04262 99.7480262,73.16262 99.6280262,73.36262 C100.833273,71.7826216 101.913226,70.1108674 102.858026,68.36262 C103.148026,67.91262 103.208026,67.77262 103.308026,67.64262 C104.096011,66.0717998 104.764569,64.4438622 105.308026,62.77262 C105.689796,61.5463512 105.9773,60.2927015 106.168026,59.02262 C106.318026,58.02262 106.348026,57.23262 106.358026,57.19262 L106.298026,57.05262 C106.298026,55.98262 106.298026,55.83262 106.358026,55.69262 C106.405464,55.2806478 106.405464,54.8645923 106.358026,54.45262 C106.288026,54.07262 106.188026,53.25262 106.028026,52.45262 C105.954167,52.05966 105.853941,51.6721174 105.728026,51.29262 C105.70409,51.2072267 105.674012,51.1236755 105.638026,51.04262 L105.568026,50.84262 C105.568026,50.72262 105.478026,50.61262 105.438026,50.54262 C105.441059,50.4993397 105.441059,50.4559003 105.438026,50.41262 L105.328026,50.11262 C105.265143,49.985528 105.218124,49.851187 105.188026,49.71262 C105.108026,49.58262 105.008026,49.35262 104.888026,49.09262 L104.478026,48.27262 C104.358026,48.08262 104.548026,48.42262 104.598026,48.57262 C104.498026,48.37262 104.378026,48.16262 104.258026,47.96262 C104.138026,47.76262 104.038026,47.56262 103.908026,47.36262 C103.628026,46.89262 103.578026,46.76262 103.908026,47.26262 C103.053286,45.8543829 102.006563,44.5720628 100.798026,43.45262 C98.9291364,41.7457577 96.7354823,40.4329663 94.3480262,39.59262 C93.6957383,39.3659842 93.0313852,39.1756921 92.3580262,39.02262 L92.0980262,38.97262 L91.9680262,38.97262 L91.7580262,38.97262 L91.2680262,38.97262 L90.2680262,38.90262 L90.0280262,38.90262 L89.3580262,38.90262 L88.4280262,38.90262 C87.8180262,38.96262 87.2180262,39.01262 86.6580262,39.09262 C84.9769799,39.3624196 83.3414267,39.8638547 81.7980262,40.58262 C82.0480262,40.50262 82.4380262,40.32262 82.7980262,40.17262 C83.1580262,40.02262 83.5980262,39.90262 83.7980262,39.85262 C83.3180262,40.04262 82.9580262,40.16262 82.6680262,40.27262 C82.4257674,40.3664178 82.1887551,40.4732403 81.9580262,40.59262 C81.7824098,40.6397126 81.6116475,40.70333 81.4480262,40.78262 L80.6880262,41.16262 C80.1380262,41.46262 79.5580262,41.79262 79.2180262,41.99262 L78.9980262,42.19262 C78.8480262,42.28262 78.6980262,42.37262 78.5580262,42.47262 C78.1080262,42.80262 77.7780262,43.08262 77.5580262,43.31262 L77.2180262,43.61262 L77.1480262,43.68262 L77.1480262,43.68262 L77.1480262,43.68262 L77.1480262,43.68262 L77.1480262,43.68262 L76.9880262,43.54262 L76.5880262,43.19262 C76.4280262,43.06262 76.2280262,42.93262 76.0180262,42.78262 C75.2676848,42.2425132 74.4789228,41.7578924 73.6580262,41.33262 L72.6980262,40.85262 L72.2580262,40.65262 L71.8580262,40.48262 C72.0480262,40.56262 72.4280262,40.74262 71.8580262,40.54262 C71.5906417,40.4212958 71.3169112,40.3144742 71.0380262,40.22262 C70.6280262,40.08262 70.1980262,39.96262 70.0380262,39.90262 C69.8780262,39.84262 69.1480262,39.65262 68.6880262,39.55262 C68.5139965,39.5065748 68.3368693,39.4731546 68.1580262,39.45262 C68.0680262,39.45262 68.0680262,39.45262 68.2180262,39.50262 L67.2180262,39.29262 C66.8780262,39.29262 66.7080262,39.21262 67.2180262,39.29262 C66.7043476,39.2154726 66.1869659,39.1654034 65.6680262,39.14262 C65.9180262,39.14262 66.1580262,39.14262 66.4080262,39.21262 C66.1680262,39.21262 65.9380262,39.21262 65.7180262,39.16262 L65.0980262,39.16262 C64.6980262,39.16262 64.3480262,39.16262 64.0080262,39.16262 C63.6680262,39.16262 63.3580262,39.16262 63.0080262,39.16262 C62.6717597,39.1905977 62.3377024,39.2407063 62.0080262,39.31262 C62.2598533,39.2731919 62.513509,39.2464914 62.7680262,39.23262 L62.3380262,39.28262 L62.1180262,39.28262 L61.8980262,39.28262 L61.3580262,39.45262 C60.9180262,39.54262 60.5780262,39.65262 60.3580262,39.68262 C60.7380262,39.56262 61.1180262,39.44262 61.5080262,39.35262 C60.7000663,39.5418528 59.9077572,39.7925836 59.1380262,40.10262 C58.4482115,40.387495 57.779815,40.7216932 57.1380262,41.10262 L57.6580262,40.83262 C56.7973883,41.2893732 55.9747531,41.8143883 55.1980262,42.40262 C53.9927536,43.318217 52.922266,44.3988035 52.0180262,45.61262 C50.5667417,47.5516504 49.5101074,49.7566524 48.9080262,52.10262 C48.9980262,51.83262 49.0980262,51.56262 49.1980262,51.29262 C49.0480262,51.81262 48.9080262,52.29262 48.7980262,52.85262 C48.7980262,52.67262 48.7980262,52.06262 48.9080262,51.91262 C48.6932725,52.5195066 48.5096994,53.1369798 48.3580262,53.76262 C48.3580262,53.96262 48.2880262,54.18262 48.2580262,54.42262 C48.2280262,54.66262 48.2580262,54.89262 48.1980262,55.14262 C48.1380262,55.39262 48.1980262,55.65262 48.1980262,55.91262 C48.1980262,56.17262 48.1980262,56.45262 48.1980262,56.73262 C48.2374733,57.9405658 48.3881098,59.1423097 48.6480262,60.32262 C48.9423805,61.5983819 49.3369382,62.8489293 49.8280262,64.06262 C50.7693682,66.3427402 51.9528182,68.5151923 53.3580262,70.54262 C54.5780262,72.31262 55.6480262,73.61262 56.1380262,74.22262 C56.9380262,75.22262 56.2280262,74.44262 56.2180262,74.43262 C57.2180262,75.59262 56.6780262,74.91262 57.5380262,75.89262 C57.7780262,76.16262 57.4680262,75.89262 57.3280262,75.71262 C57.5694079,76.0093492 57.8299656,76.2899498 58.1080262,76.55262 C57.6380262,76.02262 57.8780262,76.20262 57.7080262,75.95262 C58.0780262,76.37262 58.4580262,76.78262 58.8380262,77.19262 L58.7580262,77.19262 C58.9680262,77.40262 59.2880262,77.66262 59.9680262,78.32262 L59.8880262,78.32262 L59.8880262,78.32262 C59.3680262,78.32262 59.1180262,78.53262 58.6380262,78.58262 L58.6380262,78.58262 C58.4680262,78.58262 58.1480262,78.68262 57.8480262,78.73262 C57.9380262,78.73262 58.0180262,78.73262 57.8480262,78.73262 C57.4980262,78.78262 57.2780262,78.86262 57.0180262,78.88262 L56.7880262,78.98262 C56.1980262,79.11262 54.7380262,79.48262 53.2880262,79.92262 C51.8380262,80.36262 50.4180262,80.92262 49.8480262,81.10262 L49.8980262,81.10262 C48.7071425,81.5586532 47.5420719,82.0794298 46.4080262,82.66262 C45.2664153,83.2765824 44.1936616,84.0107482 43.2080262,84.85262 C43.0627176,84.9521332 42.9225384,85.0589365 42.7880262,85.17262 C42.6380262,85.29262 42.5080262,85.43262 42.3780262,85.54262 C42.5280262,85.42262 42.4980262,85.54262 42.3780262,85.54262 C42.0280262,85.90262 42.0280262,85.92262 42.0180262,85.94262 C41.9157082,86.0974774 41.8020642,86.2445462 41.6780262,86.38262 L41.5180262,86.58262 L41.3580262,86.85262 C41.2180262,87.05262 41.0680262,87.30262 40.9180262,87.56262 C40.5776082,88.1833322 40.3539082,88.8612109 40.2580262,89.56262 C40.1819645,90.2755491 40.2499782,90.9964938 40.4580262,91.68262 C40.5997797,92.1275596 40.7874574,92.5565372 41.0180262,92.96262 C41.3648414,93.4699409 41.7564063,93.9451735 42.1880262,94.38262 L42.1380262,94.38262 C42.648054,94.9157243 43.1998048,95.4072841 43.7880262,95.85262 C44.3891317,96.3053947 45.0206168,96.7163612 45.6780262,97.08262 L45.6080262,97.08262 C45.8863386,97.2261312 46.1537257,97.3899058 46.4080262,97.57262 C46.4080262,97.49262 46.8380262,97.67262 47.0080262,97.75262 L47.0080262,97.75262 C47.2680262,97.87262 47.8580262,98.09262 48.2780262,98.26262 L48.2780262,98.26262 C48.6480262,98.38262 49.2780262,98.67262 49.5580262,98.76262 C50.2943374,99.1003788 51.0527514,99.3877074 51.8280262,99.62262 L52.3180262,99.88262 L52.3580262,99.88262 C52.5469605,99.7384225 52.7093801,99.5624681 52.8380262,99.36262 C52.9682461,99.2072299 53.0171387,98.9993297 52.9698248,98.8021884 C52.9225109,98.6050471 52.7845868,98.4419828 52.5980262,98.36262 L52.5980262,98.36262 L52.3980262,98.30262 C52.1580262,98.21262 52.0380262,98.21262 52.0680262,98.18262 L52.3980262,98.30262 C52.1580262,98.20262 52.3280262,98.24262 52.3980262,98.30262 L52.1280262,98.18262 C52.1280262,98.18262 52.1280262,98.18262 52.1880262,98.18262 C52.024343,98.154257 51.8636513,98.1107363 51.7080262,98.05262 C51.4680262,97.96262 51.7080262,97.99262 51.4280262,97.89262 C49.9469573,97.3375257 48.5009628,96.6930062 47.0980262,95.96262 C47.0980262,95.96262 47.0980262,95.96262 47.1580262,95.96262 C46.7280262,95.75262 46.3580262,95.54262 45.9780262,95.33262 C45.924293,95.2926766 45.8799269,95.241485 45.8480262,95.18262 C45.499387,95.0017268 45.1650805,94.7944567 44.8480262,94.56262 C44.5980262,94.39262 44.3680262,94.20262 44.1880262,94.05262 L43.8880262,93.80262 L43.8280262,93.80262 C43.4880262,93.50262 43.7780262,93.66262 43.4680262,93.39262 C43.2780262,93.39262 43.0080262,92.89262 42.8880262,92.81262 C42.7680262,92.73262 42.7780262,92.65262 42.8080262,92.65262 C42.8380262,92.65262 42.6680262,92.50262 42.5980262,92.40262 C42.5280262,92.30262 42.5980262,92.40262 42.5980262,92.47262 L42.4280262,92.25262 C42.4280262,92.15262 42.4280262,92.11262 42.4280262,92.25262 C42.2701671,91.9800064 42.1331111,91.6958659 42.0180262,91.40262 C41.8567071,90.9746808 41.7786407,90.5198593 41.7880262,90.06262 C41.8104139,89.6042345 41.915434,89.1536646 42.0980262,88.73262 C42.2591827,88.4238113 42.4465363,88.1293984 42.6580262,87.85262 C42.5580262,87.85262 42.4680262,88.12262 42.3680262,88.17262 C42.4480262,87.98262 42.5280262,87.92262 42.5580262,87.82262 C42.5880262,87.72262 42.8380262,87.46262 43.0180262,87.40262 L43.0180262,87.32262 L43.1080262,87.26262 L43.4680262,86.82262 C43.4680262,86.82262 43.5280262,86.82262 43.8380262,86.49262 C44.0718531,86.2487308 44.3224656,86.0215088 44.5880262,85.81262 C44.5880262,85.81262 44.4480262,85.88262 44.5880262,85.81262 C44.7280262,85.74262 44.8380262,85.57262 44.9280262,85.57262 C45.0180262,85.57262 45.3780262,85.25262 45.2280262,85.29262 C45.2980262,85.29262 45.6280262,85.08262 45.4480262,85.22262 C45.5483463,85.1650465 45.6451813,85.1016029 45.7380262,85.03262 L45.5880262,85.11262 C45.9380262,84.86262 46.1780262,84.79262 46.3880262,84.60262 L46.2380262,84.66262 C46.3939282,84.5429975 46.5752792,84.4608764 46.7680262,84.42262 L46.5380262,84.56262 C46.9180262,84.36262 47.1380262,84.22262 47.4480262,84.04262 L47.3280262,84.04262 C47.8029142,83.7520858 48.2936806,83.4883406 48.7980262,83.25262 L49.7080262,82.82262 C49.9780262,82.69262 50.1880262,82.59262 50.2780262,82.53262 L50.0780262,82.53262 L50.4080262,82.36262 C50.4080262,82.36262 50.2980262,82.57262 50.2580262,82.56262 C50.6280262,82.42262 51.7680262,81.98262 52.9380262,81.56262 C54.1080262,81.14262 55.2780262,80.87262 55.6380262,80.80262 C55.9980262,80.73262 55.7080262,80.80262 55.7080262,80.86262 C56.0480262,80.76262 55.8380262,80.78262 56.1380262,80.70262 C56.2280262,80.70262 56.1380262,80.70262 56.0880262,80.76262 C56.2180262,80.76262 56.3380262,80.71262 56.3480262,80.68262 C56.1780262,80.68262 56.2380262,80.68262 56.1580262,80.62262 L56.5380262,80.53262 L56.5380262,80.53262 C56.7187412,80.4295683 56.9144277,80.3553423 57.1180262,80.31262 C57.7580262,80.17262 58.4480262,80.01262 59.1180262,79.89262 C59.0336956,79.9396209 58.9426275,79.9733498 58.8480262,79.99262 C58.9478331,79.9838312 59.0482194,79.9838312 59.1480262,79.99262 C58.9880262,79.99262 59.4180262,79.91262 59.2880262,79.92262 C59.7480262,79.74262 60.3780262,79.70262 60.7880262,79.57262 C60.8455394,79.4042131 60.9157407,79.2404102 60.9980262,79.08262 C62.0980262,80.16262 63.2780262,81.24262 64.4780262,82.29262 C64.3689351,82.3132135 64.2618587,82.3433288 64.1580262,82.38262 C63.7080262,82.47262 64.1580262,82.32262 63.6580262,82.38262 C63.1580262,82.44262 62.7980262,82.66262 62.3580262,82.75262 L62.3580262,82.75262 C61.2980262,83.01262 60.7780262,83.29262 59.8180262,83.60262 L59.9180262,83.60262 C59.5680262,83.70262 58.9180262,83.98262 58.3280262,84.23262 C58.4980262,84.16262 58.6580262,84.12262 58.3280262,84.29262 C57.7711383,84.5344381 57.2270834,84.8047967 56.6980262,85.10262 L56.2580262,85.42262 C55.8765368,85.6745946 55.5123855,85.9518842 55.1680262,86.25262 C54.636519,86.7085035 54.1925922,87.2574817 53.8580262,87.87262 C53.6030267,88.2956436 53.4331754,88.7644333 53.3580262,89.25262 C53.3280132,89.4916817 53.3280132,89.7335583 53.3580262,89.97262 C53.371822,90.217025 53.4154799,90.4588228 53.4880262,90.69262 C53.7986148,91.562654 54.3332789,92.3353298 55.0380262,92.93262 C55.6503586,93.4696151 56.321259,93.9358909 57.0380262,94.32262 C57.6844154,94.6773987 58.3523896,94.9913466 59.0380262,95.26262 C60.2980262,95.77262 61.3580262,96.07262 61.9680262,96.26262 L61.8780262,96.26262 C62.8080262,96.53262 63.9980262,96.83262 65.3280262,97.09262 C66.6580262,97.35262 68.1080262,97.60262 69.5680262,97.77262 C72.1860042,98.0920331 74.8206441,98.2556546 77.4580262,98.26262 C78.0680262,98.31262 78.9180262,98.26262 79.5580262,98.31262 C79.1980262,98.31262 79.3180262,98.26262 79.5580262,98.26262 C81.5080262,98.26262 79.6880262,98.26262 81.6580262,98.16262 C82.7980262,98.16262 85.5280262,97.96262 88.2280262,97.60262 C90.3528113,97.3250786 92.4596899,96.9244044 94.5380262,96.40262 C95.6734944,96.0764149 96.7916097,95.6925843 97.8880262,95.25262 L97.7980262,95.31262 L98.4180262,95.05262 C98.6780262,94.93262 99.0180262,94.79262 99.4180262,94.61262 C100.276918,94.2102536 101.088545,93.7138872 101.838026,93.13262 C102.251844,92.8054218 102.624553,92.4293557 102.948026,92.01262 C103.280196,91.5979371 103.528172,91.1223672 103.678026,90.61262 L103.758026,90.25262 C103.758026,90.13262 103.758026,90.01262 103.758026,89.90262 C103.767677,89.7894921 103.767677,89.6757479 103.758026,89.56262 C103.763445,89.4626934 103.763445,89.3625466 103.758026,89.26262 L103.758026,88.98262 L103.698026,88.75262 C103.662809,88.6298425 103.619378,88.5095713 103.568026,88.39262 L103.638026,88.60262 C103.484706,88.2143033 103.286707,87.8451526 103.048026,87.50262 C102.978026,87.39262 102.918026,87.29262 102.828026,87.17262 C102.708697,87.0168308 102.578364,86.869788 102.438026,86.73262 C102.438026,86.80262 102.278026,86.64262 102.038026,86.46262 L101.658026,86.18262 L101.328026,85.95262 L101.328026,85.95262 C100.514224,85.4281571 99.6539385,84.9796036 98.7580262,84.61262 L98.7580262,84.61262 C98.3880262,84.46262 97.8580262,84.25262 97.3380262,84.06262 C96.8180262,83.87262 96.3380262,83.71262 96.0680262,83.63262 C94.4847356,83.0844131 92.8593387,82.6663584 91.2080262,82.38262 L90.8480262,82.28262 C91.4580262,81.77262 92.0580262,81.28262 92.6380262,80.71262 L93.9080262,79.55262 L94.2180262,79.61262 L93.9380262,79.53262 L93.9380262,79.47262 L93.9380262,79.47262 L94.1880262,79.47262 C94.4780262,79.53262 94.6280262,79.47262 94.5980262,79.54262 L94.1980262,79.47262 C94.4880262,79.53262 94.2780262,79.47262 94.1980262,79.47262 C94.3161092,79.4882079 94.4330313,79.5115923 94.5480262,79.54262 C94.6080262,79.54262 94.5480262,79.54262 94.4580262,79.54262 C94.6531106,79.5479362 94.8472787,79.5713703 95.0380262,79.61262 C95.3380262,79.61262 95.0380262,79.67262 95.3980262,79.73262 C97.2680262,80.07262 99.0480262,80.47262 100.898026,80.92262 C100.898026,80.92262 100.898026,80.92262 100.838026,80.92262 C101.398026,81.03262 101.838026,81.17262 102.398026,81.29262 C102.470133,81.322762 102.537498,81.3631809 102.598026,81.41262 C103.058394,81.508464 103.512554,81.6320222 103.958026,81.78262 C104.308026,81.88262 104.668026,82.00262 104.958026,82.09262 L105.428026,82.24262 L105.428026,82.24262 C105.958026,82.42262 105.558026,82.36262 106.058026,82.52262 C106.278026,82.52262 106.858026,82.83262 107.058026,82.85262 C107.058026,82.85262 107.288026,82.95262 107.258026,82.97262 C107.228026,82.99262 107.508026,83.06262 107.658026,83.11262 C107.808026,83.16262 107.658026,83.11262 107.588026,83.05262 L107.938026,83.17262 C108.058026,83.24262 108.078026,83.28262 107.938026,83.17262 C108.368026,83.37262 109.638026,83.94262 110.818026,84.63262 C111.736466,85.1682462 112.60348,85.7875423 113.408026,86.48262 C113.338026,86.37262 113.108026,86.19262 113.048026,86.07262 C113.268026,86.21262 113.328026,86.33262 113.438026,86.38262 C113.548026,86.43262 113.828026,86.79262 113.898026,86.98262 L113.978026,86.98262 L114.038026,87.10262 C114.162123,87.2187068 114.279007,87.3422706 114.388026,87.47262 L114.478026,87.58262 C114.478026,87.58262 114.478026,87.64262 114.768026,88.04262 C114.975428,88.329396 115.137334,88.6464605 115.248026,88.98262 C115.248026,88.98262 115.248026,88.82262 115.248026,88.98262 C115.248026,89.14262 115.388026,89.31262 115.338026,89.39262 L115.398026,89.69262 C115.398026,89.79262 115.398026,89.86262 115.398026,89.78262 C115.398026,89.86262 115.398026,90.23262 115.398026,90.01262 C115.398026,90.13262 115.398026,90.25262 115.398026,90.34262 L115.398026,90.18262 C115.368966,90.4956365 115.318852,90.8063399 115.248026,91.11262 C115.275465,91.0646404 115.298878,91.0144686 115.318026,90.96262 C115.292323,91.1591687 115.208787,91.3436447 115.078026,91.49262 C115.110563,91.4078694 115.137291,91.3210019 115.158026,91.23262 C115.040131,91.5778854 114.892928,91.9124373 114.718026,92.23262 L114.788026,92.12262 C114.513368,92.6558418 114.155555,93.1419275 113.728026,93.56262 C113.178026,94.14262 112.538026,94.65262 112.358026,94.82262 L112.568026,94.72262 L112.248026,95.00262 C112.248026,95.00262 112.328026,94.76262 112.368026,94.75262 C112.188026,94.88262 111.808026,95.15262 111.318026,95.46262 C110.828026,95.77262 110.208026,96.11262 109.568026,96.46262 C108.597039,96.9543157 107.594895,97.3818972 106.568026,97.74262 C106.238026,97.84262 106.488026,97.74262 106.488026,97.74262 C106.098026,97.90262 106.338026,97.85262 105.998026,97.96262 C105.908026,97.96262 105.998026,97.96262 106.058026,97.90262 C105.958294,97.9306312 105.861247,97.9674424 105.768026,98.01262 C105.958026,98.01262 105.898026,98.01262 105.988026,98.01262 L105.548026,98.16262 L105.548026,98.16262 C105.347147,98.2937801 105.128162,98.39485 104.898026,98.46262 C104.168026,98.69262 103.378026,98.94262 102.638026,99.14262 C102.638026,99.14262 102.798026,99.06262 102.948026,99.00262 C102.833961,99.0419559 102.716917,99.072053 102.598026,99.09262 C102.788026,99.09262 102.298026,99.20262 102.438026,99.17262 C101.918026,99.41262 101.198026,99.52262 100.728026,99.69262 C100.728026,99.78262 99.9880262,101.24262 100.008026,101.33262 L99.6480262,101.40262 C99.8209984,101.392991 99.9922062,101.362778 100.158026,101.31262 L100.158026,101.25262 C100.518026,101.15262 100.248026,101.25262 100.608026,101.17262 C100.608026,101.17262 100.308026,101.29262 100.008026,101.37262 C100.226989,101.345066 100.441857,101.291349 100.648026,101.21262 C100.898026,101.21262 100.648026,101.21262 100.928026,101.21262 C101.165456,101.123525 101.409547,101.053307 101.658026,101.00262 L101.658026,101.00262 C102.258026,100.89262 102.548026,100.70262 103.088026,100.59262 L103.088026,100.59262 C103.288026,100.59262 103.648026,100.42262 103.998026,100.35262 C103.898026,100.35262 103.808026,100.35262 103.998026,100.35262 C104.398026,100.26262 104.658026,100.14262 104.998026,100.09262 L105.258026,99.96262 C106.618805,99.5236321 107.954189,99.0095092 109.258026,98.42262 C110.068026,98.05262 110.868026,97.64262 111.528026,97.26262 C112.188026,96.88262 112.728026,96.52262 113.028026,96.31262 L113.028026,96.31262 C113.601686,95.9187397 114.146412,95.4842959 114.658026,95.01262 C115.31292,94.4317965 115.87896,93.7579394 116.338026,93.01262 C116.825061,92.2040921 117.10022,91.2857484 117.138026,90.34262 C117.159505,89.5522357 116.995092,88.767851 116.658026,88.05262 C116.614861,87.8294084 116.547808,87.611488 116.458026,87.40262 L116.458026,87.40262 Z M64.4580262,82.40262 L64.4580262,82.40262 C64.3459879,82.4150196 64.2354502,82.438467 64.1280262,82.47262 C64.1280262,82.47262 64.2480262,82.48262 64.4380262,82.43262 L64.4580262,82.40262 Z M93.0580262,78.30262 L93.0580262,78.22262 C92.5080262,78.76262 91.6880262,79.53262 90.9080262,80.22262 C90.1280262,80.91262 89.3380262,81.56262 88.9080262,81.92262 C86.9080262,83.53262 83.7780262,85.92262 80.9880262,87.82262 C80.3680262,88.21262 79.7380262,88.59262 79.1080262,88.97262 L78.8480262,89.15262 C78.5587637,89.5120719 78.3322485,89.9177706 78.1780262,90.35262 C78.0880262,90.81262 78.4880262,91.00262 80.4580262,89.86262 L80.4580262,89.93262 L81.2080262,89.42262 C82.1180262,88.83262 82.4980262,88.51262 82.4580262,88.58262 L81.2380262,89.41262 C82.1380262,88.82262 81.5180262,89.25262 81.2380262,89.50262 L82.2380262,88.81262 C82.4080262,88.68262 82.0980262,88.89262 81.9580262,88.98262 C82.4280262,88.63262 83.0780262,88.15262 83.6680262,87.74262 C84.5680262,87.10262 83.7580262,87.74262 84.8080262,86.99262 C86.1980262,85.99262 87.5480262,84.99262 88.8780262,83.91262 L89.6680262,83.27262 C89.8672526,83.380891 90.0787693,83.4648261 90.2980262,83.52262 L90.2980262,83.52262 L90.7380262,83.59262 C90.950197,83.6655283 91.1573153,83.7523844 91.3580262,83.85262 L90.6480262,83.71262 C91.1680262,83.82262 90.7980262,83.77262 90.6480262,83.71262 L91.2380262,83.84262 C91.3480262,83.84262 91.1680262,83.84262 91.0880262,83.84262 C91.3680262,83.84262 91.7680262,83.93262 92.0880262,84.01262 C92.6180262,84.13262 92.0880262,84.08262 92.7280262,84.22262 C94.304002,84.5735949 95.8516232,85.0415581 97.3580262,85.62262 C98.0962281,85.9075481 98.8145043,86.2416301 99.5080262,86.62262 C99.852488,86.814414 100.18631,87.0247219 100.508026,87.25262 C100.813074,87.4657421 101.097633,87.7067806 101.358026,87.97262 C101.358026,88.03262 101.358026,87.97262 101.278026,87.92262 C101.832952,88.3702606 102.162246,89.0398258 102.178026,89.75262 C102.169208,89.840646 102.14195,89.9258279 102.098026,90.00262 C102.093204,90.0391281 102.093204,90.0761119 102.098026,90.11262 C102.105418,90.1656972 102.105418,90.2195428 102.098026,90.27262 C102.072915,90.3446155 102.042842,90.4147836 102.008026,90.48262 C101.781373,90.9093513 101.472026,91.286686 101.098026,91.59262 C100.678212,91.9648843 100.226471,92.2995067 99.7480262,92.59262 C99.5115135,92.7319798 99.2678446,92.8588211 99.0180262,92.97262 L99.0180262,93.06262 C98.8440004,93.1741009 98.6506872,93.2521045 98.4480262,93.29262 C98.2656904,93.3378505 98.0906366,93.4085454 97.9280262,93.50262 C97.3790692,93.7634976 96.8146842,93.9905875 96.2380262,94.18262 C96.1067267,94.2210346 95.9731259,94.2510948 95.8380262,94.27262 C95.6122087,94.3730598 95.3779664,94.4533714 95.1380262,94.51262 C95.0480262,94.51262 95.2180262,94.51262 95.2880262,94.51262 L94.6780262,94.71262 C94.4280262,94.71262 94.3580262,94.71262 94.6780262,94.71262 C94.2680262,94.82262 93.4680262,95.04262 92.4580262,95.25262 C91.4480262,95.46262 90.2280262,95.68262 88.9980262,95.86262 C86.5280262,96.23262 83.9980262,96.39262 83.0980262,96.45262 C83.3380262,96.45262 83.8980262,96.45262 84.0980262,96.45262 C83.6180262,96.52262 83.3880262,96.45262 83.1680262,96.53262 C82.9480262,96.61262 82.0980262,96.53262 81.7280262,96.53262 L81.5880262,96.59262 L81.3480262,96.59262 C80.5530691,96.6569256 79.7549772,96.6737311 78.9580262,96.64262 C77.8580262,96.64262 77.3280262,96.71262 76.7180262,96.64262 C76.8080262,96.64262 77.0480262,96.64262 76.7180262,96.64262 C76.7180262,96.64262 75.9480262,96.64262 75.8180262,96.64262 C75.5380262,96.64262 74.6280262,96.64262 74.9380262,96.64262 C74.7780262,96.64262 73.9380262,96.54262 74.4580262,96.55262 L73.7280262,96.55262 L74.0780262,96.55262 C73.1580262,96.55262 72.6580262,96.42262 72.0780262,96.41262 L72.4180262,96.47262 C72.0068057,96.4556866 71.598211,96.3987513 71.1980262,96.30262 L71.7580262,96.30262 L69.5480262,96.09262 L69.8180262,96.09262 C69.3380262,96.09262 67.8180262,95.89262 66.3680262,95.63262 C64.9180262,95.37262 63.4480262,95.05262 63.0080262,94.96262 L63.3880262,95.11262 L62.6480262,94.94262 C62.7280262,94.94262 63.0380262,94.94262 63.1080262,94.94262 C62.7180262,94.83262 61.9080262,94.61262 60.9180262,94.27262 C59.7801814,93.9010548 58.6788851,93.4257232 57.6280262,92.85262 C57.1162201,92.5625854 56.631005,92.2279543 56.1780262,91.85262 C55.7846378,91.5336986 55.4467395,91.1518735 55.1780262,90.72262 C54.8633025,90.2355811 54.7895758,89.6310217 54.9780262,89.08262 C55.1680262,88.64262 55.0680262,89.02262 55.0780262,89.08262 C55.1680262,88.81262 55.1980262,88.75262 55.2180262,88.70262 C55.2588644,88.5892883 55.3198439,88.484268 55.3980262,88.39262 C55.4880262,88.28262 55.3980262,88.39262 55.3980262,88.51262 C55.4542681,88.4209872 55.5178073,88.3340388 55.5880262,88.25262 C55.622489,88.2161702 55.6526839,88.1759102 55.6780262,88.13262 C55.4680262,88.35262 55.5080262,88.21262 55.3980262,88.29262 C55.5476643,88.1006521 55.7114547,87.9201483 55.8880262,87.75262 L55.8880262,87.75262 C56.1193975,87.4356379 56.4076161,87.1643734 56.7380262,86.95262 C57.8677438,86.2115439 59.0833172,85.6104731 60.3580262,85.16262 C60.1899413,85.2630496 60.012428,85.3467823 59.8280262,85.41262 L60.4080262,85.20262 C60.0880262,85.28262 60.9280262,84.99262 60.6880262,85.06262 C61.6660227,84.6665867 62.6680091,84.3325912 63.6880262,84.06262 C63.6880262,84.06262 64.0880262,83.57262 64.4780262,83.14262 L64.8280262,82.74262 C65.5680262,83.38262 66.3080262,84.00262 67.0480262,84.59262 C67.0480262,84.59262 66.5380262,84.22262 66.0480262,83.86262 C66.3280262,84.10262 66.7780262,84.45262 67.0480262,84.68262 C66.5380262,84.23262 67.9680262,85.39262 67.5680262,85.05262 C69.2580262,86.29262 71.3580262,87.92262 72.8480262,88.85262 C72.9380262,88.85262 73.9180262,89.14262 74.8480262,89.35262 C75.5074808,89.509713 76.1751846,89.6298997 76.8480262,89.71262 L77.9280262,90.38262 C77.8180262,90.29262 76.9280262,89.71262 76.3980262,89.38262 L76.2880262,89.38262 C75.1480262,88.70262 76.0280262,89.18262 74.9380262,88.51262 C74.8780262,88.43262 75.9380262,89.06262 76.8180262,89.61262 C76.0180262,89.11262 75.2080262,88.61262 74.8880262,88.43262 C74.1580262,87.93262 74.9880262,88.43262 74.1180262,87.84262 C73.4880262,87.43262 72.6480262,86.84262 71.9580262,86.36262 L71.9580262,86.36262 C70.2680262,85.08262 69.3180262,84.48262 67.8380262,83.23262 L68.0080262,83.35262 C67.4880262,82.91262 66.4280262,82.08262 65.5180262,81.25262 C65.7780262,81.48262 65.9880262,81.71262 65.4280262,81.25262 C64.3680262,80.25262 63.6380262,79.66262 62.9080262,78.93262 L62.1580262,78.27262 C61.2780262,77.42262 59.7480262,75.91262 58.0580262,73.96262 C56.1508123,71.7969288 54.4563423,69.4528003 52.9980262,66.96262 C52.2595829,65.6788158 51.6178069,64.3417824 51.0780262,62.96262 C50.5875,61.7007832 50.2191464,60.3948021 49.9780262,59.06262 C49.7769097,57.9544293 49.6897887,56.8285584 49.7180262,55.70262 C49.7180262,55.46262 49.7180262,55.22262 49.7180262,55.00262 L49.7180262,54.68262 C49.7180262,54.59262 49.7180262,54.49262 49.7180262,54.39262 C49.7680262,54.01262 49.8380262,53.66262 49.8980262,53.39262 L49.8980262,53.58262 C50.353497,51.3984609 51.2077772,49.3170004 52.4180262,47.44262 C53.1428106,46.3426014 53.9991415,45.3351533 54.9680262,44.44262 C55.9971776,43.5274944 57.1439914,42.7539836 58.3780262,42.14262 C59.6474032,41.5526386 60.9839091,41.1194494 62.3580262,40.85262 C62.6886522,40.7926068 63.0225885,40.7525344 63.3580262,40.73262 C63.6880262,40.73262 64.0280262,40.73262 64.3580262,40.68262 C65.0258396,40.6758822 65.6935173,40.7059277 66.3580262,40.77262 C67.5778658,40.8891784 68.7815274,41.1372869 69.9480262,41.51262 C70.4980262,41.66262 70.9480262,41.89262 71.4980262,42.07262 C72.0480262,42.25262 72.4280262,42.51262 72.8580262,42.70262 L73.6580262,43.20262 L74.0980262,43.46262 C74.2480262,43.55262 74.3780262,43.66262 74.5280262,43.76262 L75.3780262,44.37262 L75.7580262,44.69262 L76.2080262,45.07262 L76.0380262,44.92262 L75.9280262,44.85262 L75.8280262,44.76262 L75.8280262,44.76262 L75.9680262,44.86262 L76.3580262,45.19262 C76.7680262,45.53262 77.1080262,45.83262 77.3580262,45.98262 C77.7780262,45.51262 78.1080262,45.19262 78.3580262,44.98262 L78.6680262,44.70262 L78.8180262,44.55262 L79.1080262,44.30262 L79.5680262,43.93262 L79.9280262,43.66262 L80.4180262,43.33262 C81.8488047,42.3780365 83.4215719,41.6557786 85.0780262,41.19262 C85.3480262,41.12262 85.6180262,41.03262 85.8980262,40.97262 L86.7580262,40.80262 L87.2080262,40.72262 L87.6580262,40.67262 L88.5780262,40.58262 L89.5280262,40.58262 C89.8480262,40.58262 90.1580262,40.58262 90.5280262,40.58262 L91.5280262,40.66262 L91.7680262,40.66262 L91.9680262,40.66262 L92.4280262,40.76262 C93.6576571,41.0754105 94.848406,41.5248762 95.9780262,42.10262 C97.0190029,42.626846 98.0012055,43.260417 98.9080262,43.99262 C100.174189,45.0083823 101.277018,46.2123884 102.178026,47.56262 C102.822634,48.4776793 103.365826,49.4601203 103.798026,50.49262 C103.918026,50.74262 104.008026,51.03262 104.118026,51.30262 L104.268026,51.71262 C104.315446,51.8334225 104.355519,51.9569812 104.388026,52.08262 C104.535687,52.5850309 104.652571,53.0959793 104.738026,53.61262 L104.738026,53.42262 C104.915853,54.4794223 104.982882,55.5519 104.938026,56.62262 C104.868972,58.3532455 104.59027,60.0691076 104.108026,61.73262 C103.599533,63.4293455 102.929812,65.0735086 102.108026,66.64262 C101.768026,67.34262 101.398026,67.95262 101.108026,68.47262 C100.818026,68.99262 100.548026,69.38262 100.378026,69.66262 L100.568026,69.37262 C99.9211466,70.4232888 99.1992708,71.425894 98.4080262,72.37262 C98.4080262,72.37262 98.4080262,72.37262 98.3280262,72.54262 L97.9280262,73.08262 C97.5980262,73.52262 97.1980262,74.08262 96.9280262,74.33262 L96.9280262,74.33262 C96.0580262,75.15262 94.3580262,77.04262 93.0380262,78.33262 L93.0580262,78.30262 Z" id="Shape" fill="#373835"></path>
                <path d="M77.3580262,107.45262 C77.6897116,107.494221 78.0237462,107.514264 78.3580262,107.51262 C78.0259834,107.475009 77.6921841,107.454981 77.3580262,107.45262 Z" id="Path" fill="#373835"></path>
                <path d="M41.2780262,77.63262 L41.5880262,77.52262 L41.2780262,77.63262 Z" id="Path" fill="#373835"></path>
                <path d="M77.6680262,107.54262 L77.6680262,107.54262 L77.2580262,107.54262 C77.0283924,107.560975 76.79766,107.560975 76.5680262,107.54262 L77.2480262,107.54262 C76.7480262,107.54262 77.0980262,107.54262 77.2480262,107.49262 L76.6680262,107.49262 C76.5780262,107.49262 76.7480262,107.49262 76.8180262,107.49262 C76.5580262,107.49262 76.1880262,107.49262 75.8180262,107.49262 C75.3180262,107.49262 75.8180262,107.43262 75.1980262,107.41262 C72.0880262,107.32262 69.0780262,107.12262 65.9480262,106.86262 C65.8780262,106.86262 65.9480262,106.86262 66.0480262,106.86262 C65.1080262,106.79262 64.2680262,106.71262 63.4080262,106.63262 C63.2821897,106.614052 63.1583324,106.583924 63.0380262,106.54262 C63.1080262,106.54262 61.9280262,106.44262 60.7180262,106.30262 L59.0380262,106.07262 L58.2380262,105.96262 L58.1680262,105.96262 C57.2480262,105.82262 57.9180262,105.85262 57.0580262,105.73262 C56.7080262,105.73262 55.6480262,105.49262 55.3480262,105.49262 C55.3480262,105.49262 54.9380262,105.41262 54.9780262,105.39262 C54.7427107,105.375056 54.5088471,105.341647 54.2780262,105.29262 C54.1880262,105.29262 54.3480262,105.29262 54.4180262,105.34262 L53.8180262,105.25262 C53.5880262,105.19262 53.5280262,105.15262 53.8180262,105.19262 C53.0380262,105.04262 50.8180262,104.58262 48.5280262,104.01262 C46.2380262,103.44262 44.0480262,102.76262 43.2380262,102.51262 C43.4380262,102.61262 43.9480262,102.75262 44.1180262,102.86262 C43.6780262,102.76262 43.4880262,102.65262 43.2880262,102.62262 C43.0880262,102.59262 42.3580262,102.30262 42.0580262,102.10262 L41.9280262,102.10262 L41.7280262,102.00262 C41.0221991,101.794674 40.330724,101.5408 39.6580262,101.24262 C38.6580262,100.87262 38.2480262,100.73262 37.7380262,100.48262 C37.8180262,100.48262 38.0080262,100.64262 37.7380262,100.54262 C37.7380262,100.54262 37.0880262,100.28262 36.9880262,100.19262 C36.8880262,100.10262 35.9880262,99.71262 36.2380262,99.89262 C36.1280262,99.80262 35.4780262,99.45262 35.8780262,99.63262 L35.2880262,99.32262 L35.5580262,99.49262 C34.8080262,99.10262 34.4380262,98.83262 33.9480262,98.60262 L34.3580262,98.85262 C34.0290448,98.6772234 33.7204978,98.4659358 33.4380262,98.22262 L33.8780262,98.48262 C33.1780262,98.04262 32.7680262,97.76262 32.1980262,97.38262 L32.3980262,97.52262 C31.5246077,96.9452336 30.7165296,96.2746293 29.9880262,95.52262 C29.558076,95.0800874 29.1666572,94.6016866 28.8180262,94.09262 C28.5180262,93.65262 28.3380262,93.28262 28.2380262,93.09262 C28.2380262,93.20262 28.3080262,93.31262 28.3480262,93.42262 L28.1880262,93.13262 L28.0480262,92.83262 C28.0480262,92.91262 28.2980262,93.07262 28.3080262,93.14262 C28.0420385,92.5523356 27.8667281,91.9252639 27.7880262,91.28262 C27.6806565,90.2772846 27.8464822,89.2616022 28.2680262,88.34262 C28.7052954,87.3986515 29.3005126,86.536263 30.0280262,85.79262 C30.4862891,85.3056159 30.9810599,84.8543048 31.5080262,84.44262 C31.9580262,84.12262 31.6280262,84.44262 31.6280262,84.44262 C32.1480262,84.02262 31.8280262,84.22262 32.2880262,83.88262 C32.4180262,83.80262 32.2880262,83.88262 32.2180262,83.99262 C32.3606702,83.9018943 32.4945787,83.7981152 32.6180262,83.68262 C32.3580262,83.85262 32.4280262,83.68262 32.2980262,83.78262 C32.4980262,83.63262 32.7080262,83.50262 32.9080262,83.36262 L32.9080262,83.36262 C33.1913695,83.0987119 33.5033033,82.8672772 33.8380262,82.67262 C34.9369062,82.0096859 36.0720131,81.408747 37.2380262,80.87262 C37.0863814,80.9767273 36.9257436,81.0670861 36.7580262,81.14262 C36.9080262,81.07262 37.1380262,80.96262 37.2880262,80.91262 C36.9980262,81.00262 37.7580262,80.66262 37.5380262,80.75262 C38.3380262,80.28262 39.4680262,79.90262 40.2080262,79.56262 C40.2080262,79.51262 40.5080262,79.04262 40.7980262,78.56262 C41.0182379,78.2474385 41.2090391,77.9126995 41.3680262,77.56262 L41.9380262,77.38262 C41.6620453,77.4494114 41.3913222,77.5363101 41.1280262,77.64262 L41.1280262,77.70262 C40.5480262,77.93262 40.9880262,77.70262 40.4180262,77.93262 C40.7143494,77.7649094 41.0300105,77.6339436 41.3580262,77.54262 C41.0151503,77.6384448 40.6806989,77.7621918 40.3580262,77.91262 C39.9580262,78.04262 40.3580262,77.84262 39.9080262,78.01262 C39.4580262,78.18262 39.1480262,78.35262 38.7580262,78.49262 L38.7580262,78.49262 C37.8180262,78.83262 37.3680262,79.14262 36.5180262,79.49262 L36.6080262,79.49262 C36.2980262,79.60262 35.7380262,79.91262 35.1980262,80.15262 C35.3580262,80.08262 35.4980262,80.04262 35.1980262,80.21262 C34.5780262,80.50262 34.1980262,80.75262 33.7380262,80.97262 L33.3480262,81.24262 C32.4929536,81.7289439 31.6681111,82.2665943 30.8780262,82.85262 C29.743472,83.7083478 28.733754,84.7180658 27.8780262,85.85262 C27.4187486,86.4691117 27.0390842,87.1410842 26.7480262,87.85262 C26.4693514,88.536162 26.2940933,89.2574163 26.2280262,89.99262 C26.1419967,91.0449917 26.2888076,92.1033957 26.6580262,93.09262 L26.6580262,93.00262 C27.0696114,94.1020395 27.6759694,95.118282 28.4480262,96.00262 C29.3274349,97.0719888 30.3349944,98.0291704 31.4480262,98.85262 C33.4776242,100.266153 35.6617194,101.443753 37.9580262,102.36262 C38.4680262,102.62262 39.1980262,102.91262 39.7580262,103.13262 C39.4480262,102.99262 39.5680262,103.01262 39.8080262,103.13262 C41.5080262,103.77262 39.9280262,103.13262 41.6580262,103.76262 C42.6580262,104.09262 45.0780262,104.87262 47.4980262,105.49262 C49.9180262,106.11262 52.3380262,106.62262 53.2480262,106.81262 C54.1580262,107.00262 55.4680262,107.20262 56.4380262,107.32262 L56.3580262,107.32262 C56.8780262,107.40262 58.6080262,107.68262 60.3580262,107.91262 C62.1080262,108.14262 63.8980262,108.33262 64.4980262,108.38262 L64.3380262,108.38262 C65.3980262,108.45262 65.2480262,108.50262 66.0880262,108.59262 C65.9780262,108.52262 66.8880262,108.59262 67.2380262,108.59262 L67.2380262,108.59262 L69.8080262,108.69262 L69.8080262,108.69262 C70.5280262,108.69262 71.8780262,108.78262 72.3980262,108.80262 C73.5780262,108.86262 75.3980262,108.98262 76.9980262,108.95262 L77.9980262,109.05262 L78.1480262,109.05262 C78.3780386,108.87744 78.5688022,108.656018 78.7080262,108.40262 C78.8180262,108.05262 78.7080262,107.68262 77.6680262,107.54262 Z" id="Path" fill="#373835"></path>
                <path d="M104.298026,76.28262 C104.093743,76.2065688 103.882837,76.1496577 103.668026,76.11262 C103.871461,76.1912924 104.08263,76.2482746 104.298026,76.28262 L104.298026,76.28262 Z" id="Path" fill="#373835"></path>
                <polygon id="Path" fill="#373835" points="104.308026 76.29262 104.308026 76.29262 104.298026 76.28262"></polygon>
                <path d="M130.648026,88.11262 C130.311807,87.2753704 129.857173,86.4907054 129.298026,85.78262 C128.851507,85.2077608 128.352711,84.6754881 127.808026,84.19262 C127.525878,83.8807997 127.218138,83.5931299 126.888026,83.33262 C127.048026,83.48262 126.968026,83.45262 126.838026,83.33262 C126.398026,82.96262 126.368026,82.97262 126.348026,82.96262 C126.163788,82.8630337 125.98964,82.7458186 125.828026,82.61262 C124.76375,81.8887163 123.662237,81.2211326 122.528026,80.61262 C121.138026,79.85262 119.708026,79.22262 119.178026,78.97262 C118.878026,78.88262 118.548026,78.75262 118.178026,78.62262 C117.808026,78.49262 117.528026,78.36262 117.178026,78.27262 L117.358026,78.27262 C117.038026,78.16262 116.018026,77.77262 114.958026,77.42262 L113.458026,76.92262 L112.458026,76.63262 L112.558026,76.63262 C112.199475,76.5433749 111.848414,76.4263547 111.508026,76.28262 C111.558026,76.36262 110.998026,76.28262 110.788026,76.19262 L110.788026,76.19262 L109.198026,75.85262 L109.198026,75.85262 C108.748026,75.78262 107.928026,75.56262 107.608026,75.49262 C106.888026,75.31262 105.778026,75.01262 104.798026,74.86262 L104.188026,74.64262 L104.088026,74.64262 C103.898805,74.8006237 103.742506,74.9942988 103.628026,75.21262 C103.468026,75.52262 103.468026,75.90262 104.078026,76.15262 L104.078026,76.15262 L104.328026,76.15262 C104.628026,76.23262 104.768026,76.22262 104.748026,76.25262 L104.338026,76.16262 C104.638026,76.23262 104.418026,76.16262 104.338026,76.16262 L104.688026,76.24262 C104.748026,76.24262 104.688026,76.24262 104.598026,76.24262 C104.797037,76.2544605 104.994536,76.2845875 105.188026,76.33262 C105.498026,76.40262 105.188026,76.39262 105.558026,76.47262 C107.448026,76.90262 109.268026,77.37262 111.158026,77.89262 C111.158026,77.89262 111.158026,77.89262 111.088026,77.89262 C111.658026,78.03262 112.158026,78.19262 112.678026,78.33262 C112.751689,78.3618222 112.822077,78.3986917 112.888026,78.44262 C112.888026,78.44262 113.558026,78.63262 114.278026,78.86262 L115.278026,79.19262 C115.558026,79.28262 115.738026,79.36262 115.748026,79.36262 L115.808026,79.36262 C116.348026,79.56262 115.938026,79.49262 116.448026,79.66262 C116.678026,79.66262 117.268026,79.98262 117.448026,80.00262 C117.448026,80.00262 117.688026,80.10262 117.658026,80.12262 C117.628026,80.14262 117.918026,80.22262 118.068026,80.27262 C118.218026,80.32262 118.068026,80.27262 117.998026,80.21262 L118.358026,80.33262 C118.488026,80.40262 118.508026,80.45262 118.358026,80.39262 C118.808026,80.58262 120.118026,81.16262 121.358026,81.82262 C122.598026,82.48262 123.828026,83.25262 124.258026,83.53262 C124.178026,83.42262 123.888026,83.27262 123.818026,83.15262 C124.068026,83.27262 124.158026,83.38262 124.268026,83.42262 C124.378026,83.46262 124.758026,83.78262 124.878026,83.97262 L124.968026,83.97262 L125.058026,84.08262 C125.264659,84.2043554 125.461878,84.3414059 125.648026,84.49262 L126.108026,84.89262 C126.338026,85.09262 126.518026,85.23262 126.668026,85.35262 C126.805363,85.4535324 126.929646,85.5710974 127.038026,85.70262 C127.038026,85.70262 126.938026,85.55262 127.038026,85.65262 C127.138026,85.75262 127.358026,85.92262 127.368026,86.01262 C127.378026,86.10262 127.788026,86.50262 127.728026,86.33262 C127.728026,86.42262 128.018026,86.77262 127.838026,86.58262 C127.912051,86.6904445 127.992181,86.7939469 128.078026,86.89262 L127.978026,86.73262 C128.106416,86.8907659 128.223378,87.0578553 128.328026,87.23262 C128.418026,87.37262 128.498026,87.49262 128.598026,87.62262 L128.528026,87.45262 C128.657874,87.6284901 128.749812,87.8293924 128.798026,88.04262 C128.750571,87.9556675 128.697108,87.8721314 128.638026,87.79262 C128.742849,87.9664261 128.836376,88.1467989 128.918026,88.33262 C129.006618,88.4900858 129.083492,88.653862 129.148026,88.82262 L129.148026,88.69262 C129.398441,89.2413337 129.547509,89.8308288 129.588026,90.43262 C129.624468,91.025326 129.584134,91.6202564 129.468026,92.20262 C129.510576,92.1393622 129.547389,92.0724295 129.578026,92.00262 C129.578026,92.14262 129.518026,92.27262 129.488026,92.41262 C129.488026,92.41262 129.408026,92.18262 129.488026,92.14262 L129.348026,92.60262 C129.278026,92.80262 129.168026,93.03262 129.058026,93.29262 C128.948026,93.55262 128.918026,93.54262 128.848026,93.68262 C128.778026,93.82262 128.698026,93.95262 128.608026,94.09262 L128.318026,94.51262 L128.168026,94.72262 L127.998026,94.92262 C127.313838,95.7604087 126.527762,96.5095315 125.658026,97.15262 C125.368026,97.35262 125.568026,97.15262 125.558026,97.15262 C125.248026,97.42262 125.448026,97.30262 125.158026,97.51262 C125.068026,97.51262 125.158026,97.51262 125.158026,97.43262 C125.038026,97.52262 124.908026,97.60262 124.918026,97.62262 C125.078026,97.52262 125.048026,97.62262 125.138026,97.62262 L124.758026,97.89262 L124.758026,97.89262 C124.596268,98.0739868 124.407355,98.2291649 124.198026,98.35262 C123.868026,98.56262 123.538026,98.78262 123.198026,98.98262 C122.858026,99.18262 122.508026,99.39262 122.198026,99.56262 C122.280757,99.4866618 122.371256,99.4196256 122.468026,99.36262 C122.365507,99.4238734 122.258541,99.4773565 122.148026,99.52262 C122.338026,99.52262 121.868026,99.70262 122.008026,99.64262 C121.548026,100.00262 120.838026,100.24262 120.408026,100.52262 C120.408026,100.61262 119.968026,102.19262 119.998026,102.28262 L119.658026,102.42262 C119.82894,102.376291 119.993509,102.30912 120.148026,102.22262 L120.148026,102.22262 C120.488026,102.04262 120.238026,102.22262 120.588026,102.05262 C120.414887,102.184324 120.222678,102.288859 120.018026,102.36262 C120.233587,102.294108 120.438808,102.196544 120.628026,102.07262 C120.878026,101.98262 120.628026,102.13262 120.918026,102.07262 C121.139112,101.93334 121.369676,101.809704 121.608026,101.70262 L121.608026,101.70262 C122.198026,101.46262 122.448026,101.21262 122.978026,100.98262 L122.928026,100.98262 C123.118026,100.90262 123.458026,100.69262 123.788026,100.51262 C123.688026,100.56262 123.598026,100.58262 123.788026,100.51262 C124.168026,100.31262 124.408026,100.15262 124.688026,100.00262 L124.918026,99.81262 C126.180578,99.0187115 127.345262,98.0789085 128.388026,97.01262 C129.032665,96.3663119 129.596762,95.6444024 130.068026,94.86262 L130.358026,94.35262 C130.4431,94.1933663 130.519869,94.0298139 130.588026,93.86262 L130.758026,93.45262 C130.758026,93.33262 130.838026,93.21262 130.878026,93.11262 L130.878026,93.17262 C130.994321,92.8477012 131.081334,92.5130357 131.138026,92.17262 C131.182701,91.9780447 131.21609,91.7810494 131.238026,91.58262 L131.238026,90.94262 C131.235821,89.9689837 131.035063,89.0060264 130.648026,88.11262 Z" id="Path" fill="#373835"></path>
            </g>
        </g>
    </g>
</svg>